<svg width="340" height="100" viewBox="0 0 340 100" fill="none" xmlns="http://www.w3.org/2000/svg">
<g id="logo-right-text-black">
<g id="Path">
<path id="leg-1" d="M34.0677 21.2026L0.930825 87.7343C-1.05946 91.731 0.246739 96.7603 3.84967 98.9681C7.45261 101.175 11.9876 99.7269 13.9778 95.7289L35.7779 51.9602L43.7391 35.9772L34.0677 21.2026Z" fill="#212121"/>
<path id="body-1" d="M90.363 9.15527e-05L58.0077 57.7732L43.7394 35.9754L35.7783 51.9583L51.9967 76.7367C55.3276 81.8233 62.2419 81.547 65.2331 76.2071L87.9009 35.7322L97.5091 18.5779L90.363 9.15527e-05Z" fill="#212121"/>
<path id="shadow-2" d="M97.5084 18.5776L87.9001 35.7332L90.7295 43.0874L100.338 25.9318L97.5084 18.5776Z" fill="#2C65C9"/>
<path id="path152" d="M43.7394 35.9804L39.7589 43.9719L35.7783 51.9634L39.7807 58.0762L47.7694 42.1365L43.7394 35.9804Z" fill="#212121"/>
<path id="leg-2" d="M124.397 88.4853L97.5088 18.5796L87.9006 35.7339L110.687 94.975C111.894 98.1161 114.649 100 117.545 100C118.52 100 119.513 99.7866 120.467 99.3346C124.253 97.5419 126.013 92.6858 124.397 88.4853Z" fill="#212121"/>
</g>
<path id="MyStartup" d="M146.238 62C145.854 62 145.518 61.868 145.23 61.604C144.966 61.316 144.834 60.98 144.834 60.596V35.288C144.834 34.88 144.966 34.544 145.23 34.28C145.518 34.016 145.854 33.884 146.238 33.884C146.814 33.884 147.234 34.124 147.498 34.604L159.63 58.724H158.406L170.322 34.604C170.61 34.124 171.03 33.884 171.582 33.884C171.966 33.884 172.29 34.016 172.554 34.28C172.818 34.544 172.95 34.88 172.95 35.288V60.596C172.95 60.98 172.818 61.316 172.554 61.604C172.29 61.868 171.966 62 171.582 62C171.174 62 170.826 61.868 170.538 61.604C170.274 61.316 170.142 60.98 170.142 60.596V38.924L170.754 38.96L160.134 60.668C159.87 61.124 159.462 61.352 158.91 61.352C158.31 61.352 157.878 61.064 157.614 60.488L146.922 39.104L147.642 38.924V60.596C147.642 60.98 147.498 61.316 147.21 61.604C146.946 61.868 146.622 62 146.238 62ZM183.19 70.568C182.998 70.568 182.782 70.52 182.542 70.424C181.726 70.064 181.498 69.488 181.858 68.696L193.486 43.064C193.846 42.296 194.422 42.08 195.214 42.416C196.03 42.752 196.258 43.316 195.898 44.108L184.234 69.74C183.994 70.292 183.646 70.568 183.19 70.568ZM187.186 61.388C186.826 61.556 186.49 61.592 186.178 61.496C185.866 61.376 185.614 61.136 185.422 60.776L177.394 44.144C177.226 43.784 177.202 43.448 177.322 43.136C177.442 42.824 177.682 42.584 178.042 42.416C178.402 42.248 178.738 42.224 179.05 42.344C179.362 42.44 179.602 42.668 179.77 43.028L187.654 59.66C187.846 60.02 187.906 60.356 187.834 60.668C187.762 60.98 187.546 61.22 187.186 61.388ZM208.528 62.36C206.992 62.36 205.564 62.144 204.244 61.712C202.948 61.256 201.82 60.62 200.86 59.804C199.9 58.988 199.168 58.04 198.664 56.96C198.472 56.576 198.46 56.228 198.628 55.916C198.82 55.58 199.132 55.352 199.564 55.232C199.9 55.136 200.224 55.172 200.536 55.34C200.872 55.508 201.124 55.76 201.292 56.096C201.652 56.792 202.18 57.416 202.876 57.968C203.572 58.52 204.4 58.952 205.36 59.264C206.32 59.552 207.376 59.696 208.528 59.696C209.8 59.696 210.928 59.492 211.912 59.084C212.896 58.652 213.664 58.04 214.216 57.248C214.792 56.432 215.08 55.448 215.08 54.296C215.08 52.832 214.54 51.572 213.46 50.516C212.38 49.46 210.688 48.788 208.384 48.5C205.576 48.164 203.38 47.3 201.796 45.908C200.212 44.492 199.42 42.764 199.42 40.724C199.42 39.26 199.804 37.988 200.572 36.908C201.364 35.828 202.444 35 203.812 34.424C205.18 33.824 206.752 33.524 208.528 33.524C209.848 33.524 211.048 33.74 212.128 34.172C213.208 34.58 214.144 35.132 214.936 35.828C215.752 36.5 216.412 37.244 216.916 38.06C217.156 38.444 217.228 38.816 217.132 39.176C217.06 39.536 216.856 39.812 216.52 40.004C216.16 40.172 215.788 40.196 215.404 40.076C215.044 39.956 214.768 39.728 214.576 39.392C214.216 38.84 213.76 38.324 213.208 37.844C212.68 37.34 212.032 36.944 211.264 36.656C210.496 36.368 209.572 36.212 208.492 36.188C206.596 36.188 205.072 36.596 203.92 37.412C202.768 38.204 202.192 39.368 202.192 40.904C202.192 41.72 202.408 42.476 202.84 43.172C203.272 43.844 203.98 44.432 204.964 44.936C205.972 45.416 207.316 45.776 208.996 46.016C211.996 46.448 214.216 47.372 215.656 48.788C217.12 50.18 217.852 52.004 217.852 54.26C217.852 55.556 217.612 56.708 217.132 57.716C216.676 58.724 216.016 59.576 215.152 60.272C214.312 60.944 213.316 61.46 212.164 61.82C211.036 62.18 209.824 62.36 208.528 62.36ZM231.068 62C229.796 62 228.656 61.7 227.648 61.1C226.664 60.5 225.884 59.684 225.308 58.652C224.732 57.596 224.444 56.396 224.444 55.052V37.448C224.444 37.04 224.564 36.704 224.804 36.44C225.068 36.176 225.404 36.044 225.812 36.044C226.22 36.044 226.556 36.176 226.82 36.44C227.084 36.704 227.216 37.04 227.216 37.448V55.052C227.216 56.276 227.576 57.284 228.296 58.076C229.016 58.844 229.94 59.228 231.068 59.228H232.04C232.424 59.228 232.736 59.36 232.976 59.624C233.216 59.888 233.336 60.224 233.336 60.632C233.336 61.04 233.192 61.376 232.904 61.64C232.616 61.88 232.256 62 231.824 62H231.068ZM222.104 45.44C221.744 45.44 221.444 45.332 221.204 45.116C220.964 44.876 220.844 44.588 220.844 44.252C220.844 43.892 220.964 43.604 221.204 43.388C221.444 43.148 221.744 43.028 222.104 43.028H231.284C231.644 43.028 231.944 43.148 232.184 43.388C232.424 43.604 232.544 43.892 232.544 44.252C232.544 44.588 232.424 44.876 232.184 45.116C231.944 45.332 231.644 45.44 231.284 45.44H222.104ZM246.525 62.18C244.677 62.18 243.021 61.748 241.557 60.884C240.093 59.996 238.929 58.796 238.065 57.284C237.225 55.772 236.805 54.068 236.805 52.172C236.805 50.252 237.237 48.536 238.101 47.024C238.989 45.512 240.189 44.324 241.701 43.46C243.213 42.572 244.917 42.128 246.813 42.128C248.709 42.128 250.401 42.572 251.889 43.46C253.401 44.324 254.589 45.512 255.453 47.024C256.341 48.536 256.797 50.252 256.821 52.172L255.705 53.036C255.705 54.764 255.297 56.324 254.481 57.716C253.689 59.084 252.597 60.176 251.205 60.992C249.837 61.784 248.277 62.18 246.525 62.18ZM246.813 59.66C248.205 59.66 249.441 59.336 250.521 58.688C251.625 58.04 252.489 57.152 253.113 56.024C253.761 54.872 254.085 53.588 254.085 52.172C254.085 50.732 253.761 49.448 253.113 48.32C252.489 47.192 251.625 46.304 250.521 45.656C249.441 44.984 248.205 44.648 246.813 44.648C245.445 44.648 244.209 44.984 243.105 45.656C242.001 46.304 241.125 47.192 240.477 48.32C239.829 49.448 239.505 50.732 239.505 52.172C239.505 53.588 239.829 54.872 240.477 56.024C241.125 57.152 242.001 58.04 243.105 58.688C244.209 59.336 245.445 59.66 246.813 59.66ZM255.417 62C255.009 62 254.673 61.88 254.409 61.64C254.145 61.376 254.013 61.04 254.013 60.632V54.476L254.697 51.632L256.821 52.172V60.632C256.821 61.04 256.689 61.376 256.425 61.64C256.161 61.88 255.825 62 255.417 62ZM263.364 49.868C263.436 48.38 263.82 47.048 264.516 45.872C265.236 44.696 266.16 43.772 267.288 43.1C268.44 42.428 269.712 42.092 271.104 42.092C272.208 42.092 273.06 42.248 273.66 42.56C274.26 42.872 274.488 43.328 274.344 43.928C274.248 44.288 274.08 44.528 273.84 44.648C273.624 44.768 273.348 44.816 273.012 44.792C272.7 44.768 272.34 44.744 271.932 44.72C270.588 44.6 269.388 44.744 268.332 45.152C267.3 45.536 266.472 46.136 265.848 46.952C265.248 47.768 264.948 48.74 264.948 49.868H263.364ZM263.58 62C263.148 62 262.812 61.88 262.572 61.64C262.332 61.4 262.212 61.064 262.212 60.632V43.676C262.212 43.244 262.332 42.908 262.572 42.668C262.812 42.428 263.148 42.308 263.58 42.308C264.012 42.308 264.348 42.428 264.588 42.668C264.828 42.908 264.948 43.244 264.948 43.676V60.632C264.948 61.064 264.828 61.4 264.588 61.64C264.348 61.88 264.012 62 263.58 62ZM286.404 62C285.132 62 283.992 61.7 282.984 61.1C282 60.5 281.22 59.684 280.644 58.652C280.068 57.596 279.78 56.396 279.78 55.052V37.448C279.78 37.04 279.9 36.704 280.14 36.44C280.404 36.176 280.74 36.044 281.148 36.044C281.556 36.044 281.892 36.176 282.156 36.44C282.42 36.704 282.552 37.04 282.552 37.448V55.052C282.552 56.276 282.912 57.284 283.632 58.076C284.352 58.844 285.276 59.228 286.404 59.228H287.376C287.76 59.228 288.072 59.36 288.312 59.624C288.552 59.888 288.672 60.224 288.672 60.632C288.672 61.04 288.528 61.376 288.24 61.64C287.952 61.88 287.592 62 287.16 62H286.404ZM277.44 45.44C277.08 45.44 276.78 45.332 276.54 45.116C276.3 44.876 276.18 44.588 276.18 44.252C276.18 43.892 276.3 43.604 276.54 43.388C276.78 43.148 277.08 43.028 277.44 43.028H286.62C286.98 43.028 287.28 43.148 287.52 43.388C287.76 43.604 287.88 43.892 287.88 44.252C287.88 44.588 287.76 44.876 287.52 45.116C287.28 45.332 286.98 45.44 286.62 45.44H277.44ZM301.753 62.216C300.049 62.216 298.525 61.868 297.181 61.172C295.837 60.452 294.769 59.408 293.977 58.04C293.209 56.672 292.825 55.004 292.825 53.036V43.676C292.825 43.292 292.957 42.968 293.221 42.704C293.485 42.44 293.809 42.308 294.193 42.308C294.601 42.308 294.937 42.44 295.201 42.704C295.465 42.968 295.597 43.292 295.597 43.676V53.036C295.597 54.524 295.873 55.748 296.425 56.708C297.001 57.668 297.769 58.388 298.729 58.868C299.713 59.348 300.817 59.588 302.041 59.588C303.217 59.588 304.273 59.36 305.209 58.904C306.169 58.448 306.925 57.824 307.477 57.032C308.029 56.24 308.305 55.34 308.305 54.332H310.285C310.213 55.844 309.793 57.2 309.025 58.4C308.281 59.576 307.273 60.512 306.001 61.208C304.729 61.88 303.313 62.216 301.753 62.216ZM309.673 62C309.265 62 308.929 61.88 308.665 61.64C308.425 61.376 308.305 61.028 308.305 60.596V43.676C308.305 43.268 308.425 42.944 308.665 42.704C308.929 42.44 309.265 42.308 309.673 42.308C310.081 42.308 310.417 42.44 310.681 42.704C310.945 42.944 311.077 43.268 311.077 43.676V60.596C311.077 61.028 310.945 61.376 310.681 61.64C310.417 61.88 310.081 62 309.673 62ZM318.952 70.424C318.52 70.424 318.172 70.292 317.908 70.028C317.668 69.788 317.548 69.452 317.548 69.02V52.028C317.572 50.156 318.016 48.476 318.88 46.988C319.768 45.476 320.956 44.288 322.444 43.424C323.956 42.56 325.648 42.128 327.52 42.128C329.44 42.128 331.156 42.572 332.668 43.46C334.18 44.324 335.368 45.512 336.232 47.024C337.12 48.536 337.564 50.252 337.564 52.172C337.564 54.068 337.132 55.772 336.268 57.284C335.428 58.796 334.276 59.996 332.812 60.884C331.348 61.748 329.692 62.18 327.844 62.18C326.236 62.18 324.772 61.844 323.452 61.172C322.156 60.476 321.112 59.564 320.32 58.436V69.02C320.32 69.452 320.188 69.788 319.924 70.028C319.684 70.292 319.36 70.424 318.952 70.424ZM327.52 59.66C328.912 59.66 330.16 59.336 331.264 58.688C332.368 58.04 333.232 57.152 333.856 56.024C334.504 54.872 334.828 53.588 334.828 52.172C334.828 50.732 334.504 49.448 333.856 48.32C333.232 47.192 332.368 46.304 331.264 45.656C330.16 44.984 328.912 44.648 327.52 44.648C326.152 44.648 324.916 44.984 323.812 45.656C322.708 46.304 321.844 47.192 321.22 48.32C320.596 49.448 320.284 50.732 320.284 52.172C320.284 53.588 320.596 54.872 321.22 56.024C321.844 57.152 322.708 58.04 323.812 58.688C324.916 59.336 326.152 59.66 327.52 59.66Z" fill="#212121"/>
</g>
</svg>
