<svg width="341" height="100" viewBox="0 0 341 100" fill="none" xmlns="http://www.w3.org/2000/svg">
<g id="logo-right-text-white-with-blue">
<g id="Path">
<path id="leg-1" d="M35.065 21.2026L1.92814 87.7343C-0.0621406 91.731 1.24405 96.7603 4.84699 98.9681C8.44992 101.175 12.9849 99.7269 14.9751 95.7289L36.7752 51.9602L44.7364 35.9772L35.065 21.2026Z" fill="white"/>
<path id="body-1" d="M91.3603 9.15527e-05L59.005 57.7732L44.7368 35.9754L36.7756 51.9583L52.994 76.7367C56.3249 81.8233 63.2392 81.547 66.2304 76.2071L88.8982 35.7322L98.5065 18.5779L91.3603 9.15527e-05Z" fill="#F4F4F4"/>
<path id="shadow-2" d="M98.5057 18.5776L88.8975 35.7332L91.7268 43.0874L101.335 25.9318L98.5057 18.5776Z" fill="#2C65C9"/>
<path id="path152" d="M44.7368 35.9804L36.7756 51.9634L40.778 58.0762L48.7667 42.1365L44.7368 35.9804Z" fill="#E9E9E9"/>
<path id="leg-2" d="M125.394 88.4853L98.5062 18.5796L88.8979 35.7339L111.684 94.975C112.892 98.1161 115.646 100 118.542 100C119.518 100 120.511 99.7866 121.464 99.3346C125.25 97.5419 127.011 92.6858 125.394 88.4853Z" fill="white"/>
</g>
<g id="MyStartup">
<path d="M147.235 62C146.851 62 146.515 61.868 146.227 61.604C145.963 61.316 145.831 60.98 145.831 60.596V35.288C145.831 34.88 145.963 34.544 146.227 34.28C146.515 34.016 146.851 33.884 147.235 33.884C147.811 33.884 148.231 34.124 148.495 34.604L160.627 58.724H159.403L171.319 34.604C171.607 34.124 172.027 33.884 172.579 33.884C172.963 33.884 173.287 34.016 173.551 34.28C173.815 34.544 173.947 34.88 173.947 35.288V60.596C173.947 60.98 173.815 61.316 173.551 61.604C173.287 61.868 172.963 62 172.579 62C172.171 62 171.823 61.868 171.535 61.604C171.271 61.316 171.139 60.98 171.139 60.596V38.924L171.751 38.96L161.131 60.668C160.867 61.124 160.459 61.352 159.907 61.352C159.307 61.352 158.875 61.064 158.611 60.488L147.919 39.104L148.639 38.924V60.596C148.639 60.98 148.495 61.316 148.207 61.604C147.943 61.868 147.619 62 147.235 62ZM184.187 70.568C183.995 70.568 183.779 70.52 183.539 70.424C182.723 70.064 182.495 69.488 182.855 68.696L194.483 43.064C194.843 42.296 195.419 42.08 196.211 42.416C197.027 42.752 197.255 43.316 196.895 44.108L185.231 69.74C184.991 70.292 184.643 70.568 184.187 70.568ZM188.183 61.388C187.823 61.556 187.487 61.592 187.175 61.496C186.863 61.376 186.611 61.136 186.419 60.776L178.391 44.144C178.223 43.784 178.199 43.448 178.319 43.136C178.439 42.824 178.679 42.584 179.039 42.416C179.399 42.248 179.735 42.224 180.047 42.344C180.359 42.44 180.599 42.668 180.767 43.028L188.651 59.66C188.843 60.02 188.903 60.356 188.831 60.668C188.759 60.98 188.543 61.22 188.183 61.388ZM209.526 62.36C207.99 62.36 206.562 62.144 205.242 61.712C203.946 61.256 202.818 60.62 201.858 59.804C200.898 58.988 200.166 58.04 199.662 56.96C199.47 56.576 199.458 56.228 199.626 55.916C199.818 55.58 200.13 55.352 200.562 55.232C200.898 55.136 201.222 55.172 201.534 55.34C201.87 55.508 202.122 55.76 202.29 56.096C202.65 56.792 203.178 57.416 203.874 57.968C204.57 58.52 205.398 58.952 206.358 59.264C207.318 59.552 208.374 59.696 209.526 59.696C210.798 59.696 211.926 59.492 212.91 59.084C213.894 58.652 214.662 58.04 215.214 57.248C215.79 56.432 216.078 55.448 216.078 54.296C216.078 52.832 215.538 51.572 214.458 50.516C213.378 49.46 211.686 48.788 209.382 48.5C206.574 48.164 204.378 47.3 202.794 45.908C201.21 44.492 200.418 42.764 200.418 40.724C200.418 39.26 200.802 37.988 201.57 36.908C202.362 35.828 203.442 35 204.81 34.424C206.178 33.824 207.75 33.524 209.526 33.524C210.846 33.524 212.046 33.74 213.126 34.172C214.206 34.58 215.142 35.132 215.934 35.828C216.75 36.5 217.41 37.244 217.914 38.06C218.154 38.444 218.226 38.816 218.13 39.176C218.058 39.536 217.854 39.812 217.518 40.004C217.158 40.172 216.786 40.196 216.402 40.076C216.042 39.956 215.766 39.728 215.574 39.392C215.214 38.84 214.758 38.324 214.206 37.844C213.678 37.34 213.03 36.944 212.262 36.656C211.494 36.368 210.57 36.212 209.49 36.188C207.594 36.188 206.07 36.596 204.918 37.412C203.766 38.204 203.19 39.368 203.19 40.904C203.19 41.72 203.406 42.476 203.838 43.172C204.27 43.844 204.978 44.432 205.962 44.936C206.97 45.416 208.314 45.776 209.994 46.016C212.994 46.448 215.214 47.372 216.654 48.788C218.118 50.18 218.85 52.004 218.85 54.26C218.85 55.556 218.61 56.708 218.13 57.716C217.674 58.724 217.014 59.576 216.15 60.272C215.31 60.944 214.314 61.46 213.162 61.82C212.034 62.18 210.822 62.36 209.526 62.36ZM232.066 62C230.794 62 229.654 61.7 228.646 61.1C227.662 60.5 226.882 59.684 226.306 58.652C225.73 57.596 225.442 56.396 225.442 55.052V37.448C225.442 37.04 225.562 36.704 225.802 36.44C226.066 36.176 226.402 36.044 226.81 36.044C227.218 36.044 227.554 36.176 227.818 36.44C228.082 36.704 228.214 37.04 228.214 37.448V55.052C228.214 56.276 228.574 57.284 229.294 58.076C230.014 58.844 230.938 59.228 232.066 59.228H233.038C233.422 59.228 233.734 59.36 233.974 59.624C234.214 59.888 234.334 60.224 234.334 60.632C234.334 61.04 234.19 61.376 233.902 61.64C233.614 61.88 233.254 62 232.822 62H232.066ZM223.102 45.44C222.742 45.44 222.442 45.332 222.202 45.116C221.962 44.876 221.842 44.588 221.842 44.252C221.842 43.892 221.962 43.604 222.202 43.388C222.442 43.148 222.742 43.028 223.102 43.028H232.282C232.642 43.028 232.942 43.148 233.182 43.388C233.422 43.604 233.542 43.892 233.542 44.252C233.542 44.588 233.422 44.876 233.182 45.116C232.942 45.332 232.642 45.44 232.282 45.44H223.102ZM247.522 62.18C245.674 62.18 244.018 61.748 242.554 60.884C241.09 59.996 239.926 58.796 239.062 57.284C238.222 55.772 237.802 54.068 237.802 52.172C237.802 50.252 238.234 48.536 239.098 47.024C239.986 45.512 241.186 44.324 242.698 43.46C244.21 42.572 245.914 42.128 247.81 42.128C249.706 42.128 251.398 42.572 252.886 43.46C254.398 44.324 255.586 45.512 256.45 47.024C257.338 48.536 257.794 50.252 257.818 52.172L256.702 53.036C256.702 54.764 256.294 56.324 255.478 57.716C254.686 59.084 253.594 60.176 252.202 60.992C250.834 61.784 249.274 62.18 247.522 62.18ZM247.81 59.66C249.202 59.66 250.438 59.336 251.518 58.688C252.622 58.04 253.486 57.152 254.11 56.024C254.758 54.872 255.082 53.588 255.082 52.172C255.082 50.732 254.758 49.448 254.11 48.32C253.486 47.192 252.622 46.304 251.518 45.656C250.438 44.984 249.202 44.648 247.81 44.648C246.442 44.648 245.206 44.984 244.102 45.656C242.998 46.304 242.122 47.192 241.474 48.32C240.826 49.448 240.502 50.732 240.502 52.172C240.502 53.588 240.826 54.872 241.474 56.024C242.122 57.152 242.998 58.04 244.102 58.688C245.206 59.336 246.442 59.66 247.81 59.66ZM256.414 62C256.006 62 255.67 61.88 255.406 61.64C255.142 61.376 255.01 61.04 255.01 60.632V54.476L255.694 51.632L257.818 52.172V60.632C257.818 61.04 257.686 61.376 257.422 61.64C257.158 61.88 256.822 62 256.414 62ZM264.361 49.868C264.433 48.38 264.817 47.048 265.513 45.872C266.233 44.696 267.157 43.772 268.285 43.1C269.437 42.428 270.709 42.092 272.101 42.092C273.205 42.092 274.057 42.248 274.657 42.56C275.257 42.872 275.485 43.328 275.341 43.928C275.245 44.288 275.077 44.528 274.837 44.648C274.621 44.768 274.345 44.816 274.009 44.792C273.697 44.768 273.337 44.744 272.929 44.72C271.585 44.6 270.385 44.744 269.329 45.152C268.297 45.536 267.469 46.136 266.845 46.952C266.245 47.768 265.945 48.74 265.945 49.868H264.361ZM264.577 62C264.145 62 263.809 61.88 263.569 61.64C263.329 61.4 263.209 61.064 263.209 60.632V43.676C263.209 43.244 263.329 42.908 263.569 42.668C263.809 42.428 264.145 42.308 264.577 42.308C265.009 42.308 265.345 42.428 265.585 42.668C265.825 42.908 265.945 43.244 265.945 43.676V60.632C265.945 61.064 265.825 61.4 265.585 61.64C265.345 61.88 265.009 62 264.577 62ZM287.402 62C286.13 62 284.99 61.7 283.982 61.1C282.998 60.5 282.218 59.684 281.642 58.652C281.066 57.596 280.778 56.396 280.778 55.052V37.448C280.778 37.04 280.898 36.704 281.138 36.44C281.402 36.176 281.738 36.044 282.146 36.044C282.554 36.044 282.89 36.176 283.154 36.44C283.418 36.704 283.55 37.04 283.55 37.448V55.052C283.55 56.276 283.91 57.284 284.63 58.076C285.35 58.844 286.274 59.228 287.402 59.228H288.374C288.758 59.228 289.07 59.36 289.31 59.624C289.55 59.888 289.67 60.224 289.67 60.632C289.67 61.04 289.526 61.376 289.238 61.64C288.95 61.88 288.59 62 288.158 62H287.402ZM278.438 45.44C278.078 45.44 277.778 45.332 277.538 45.116C277.298 44.876 277.178 44.588 277.178 44.252C277.178 43.892 277.298 43.604 277.538 43.388C277.778 43.148 278.078 43.028 278.438 43.028H287.618C287.978 43.028 288.278 43.148 288.518 43.388C288.758 43.604 288.878 43.892 288.878 44.252C288.878 44.588 288.758 44.876 288.518 45.116C288.278 45.332 287.978 45.44 287.618 45.44H278.438Z" fill="white"/>
<path d="M302.75 62.216C301.046 62.216 299.522 61.868 298.178 61.172C296.834 60.452 295.766 59.408 294.974 58.04C294.206 56.672 293.822 55.004 293.822 53.036V43.676C293.822 43.292 293.954 42.968 294.218 42.704C294.482 42.44 294.806 42.308 295.19 42.308C295.598 42.308 295.934 42.44 296.198 42.704C296.462 42.968 296.594 43.292 296.594 43.676V53.036C296.594 54.524 296.87 55.748 297.422 56.708C297.998 57.668 298.766 58.388 299.726 58.868C300.71 59.348 301.814 59.588 303.038 59.588C304.214 59.588 305.27 59.36 306.206 58.904C307.166 58.448 307.922 57.824 308.474 57.032C309.026 56.24 309.302 55.34 309.302 54.332H311.282C311.21 55.844 310.79 57.2 310.022 58.4C309.278 59.576 308.27 60.512 306.998 61.208C305.726 61.88 304.31 62.216 302.75 62.216ZM310.67 62C310.262 62 309.926 61.88 309.662 61.64C309.422 61.376 309.302 61.028 309.302 60.596V43.676C309.302 43.268 309.422 42.944 309.662 42.704C309.926 42.44 310.262 42.308 310.67 42.308C311.078 42.308 311.414 42.44 311.678 42.704C311.942 42.944 312.074 43.268 312.074 43.676V60.596C312.074 61.028 311.942 61.376 311.678 61.64C311.414 61.88 311.078 62 310.67 62ZM319.949 70.424C319.517 70.424 319.169 70.292 318.905 70.028C318.665 69.788 318.545 69.452 318.545 69.02V52.028C318.569 50.156 319.013 48.476 319.877 46.988C320.765 45.476 321.953 44.288 323.441 43.424C324.953 42.56 326.645 42.128 328.517 42.128C330.437 42.128 332.153 42.572 333.665 43.46C335.177 44.324 336.365 45.512 337.229 47.024C338.117 48.536 338.561 50.252 338.561 52.172C338.561 54.068 338.129 55.772 337.265 57.284C336.425 58.796 335.273 59.996 333.809 60.884C332.345 61.748 330.689 62.18 328.841 62.18C327.233 62.18 325.769 61.844 324.449 61.172C323.153 60.476 322.109 59.564 321.317 58.436V69.02C321.317 69.452 321.185 69.788 320.921 70.028C320.681 70.292 320.357 70.424 319.949 70.424ZM328.517 59.66C329.909 59.66 331.157 59.336 332.261 58.688C333.365 58.04 334.229 57.152 334.853 56.024C335.501 54.872 335.825 53.588 335.825 52.172C335.825 50.732 335.501 49.448 334.853 48.32C334.229 47.192 333.365 46.304 332.261 45.656C331.157 44.984 329.909 44.648 328.517 44.648C327.149 44.648 325.913 44.984 324.809 45.656C323.705 46.304 322.841 47.192 322.217 48.32C321.593 49.448 321.281 50.732 321.281 52.172C321.281 53.588 321.593 54.872 322.217 56.024C322.841 57.152 323.705 58.04 324.809 58.688C325.913 59.336 327.149 59.66 328.517 59.66Z" fill="#FA5D50"/>
</g>
</g>
</svg>
