<svg width="252" height="100" viewBox="0 0 252 100" fill="none" xmlns="http://www.w3.org/2000/svg">
<g id="logo-right-text-black">
<g id="Path">
<path id="leg-1" d="M34.0677 21.2026L0.930825 87.7343C-1.05946 91.731 0.246739 96.7603 3.84967 98.9681C7.45261 101.175 11.9876 99.7269 13.9778 95.7289L35.7779 51.9602L43.7391 35.9772L34.0677 21.2026Z" fill="#212121"/>
<path id="body-1" d="M90.363 9.15527e-05L58.0077 57.7732L43.7394 35.9754L35.7783 51.9583L51.9967 76.7367C55.3276 81.8233 62.2419 81.547 65.2331 76.2071L87.9009 35.7322L97.5091 18.5779L90.363 9.15527e-05Z" fill="black"/>
<path id="shadow-2" d="M97.5084 18.5776L87.9001 35.7332L90.7295 43.0874L100.338 25.9318L97.5084 18.5776Z" fill="#2C65C9"/>
<path id="path152" d="M43.7394 35.9804L39.7589 43.9719L35.7783 51.9634L39.7807 58.0762L47.7694 42.1365L43.7394 35.9804Z" fill="black"/>
<path id="leg-2" d="M124.397 88.4853L97.5088 18.5796L87.9006 35.7339L110.687 94.975C111.894 98.1161 114.649 100 117.545 100C118.52 100 119.513 99.7866 120.467 99.3346C124.253 97.5419 126.013 92.6858 124.397 88.4853Z" fill="#212121"/>
</g>
<path id="MyStartup" d="M144.131 56C143.917 56 143.731 55.9267 143.571 55.78C143.424 55.62 143.351 55.4333 143.351 55.22V41.16C143.351 40.9333 143.424 40.7467 143.571 40.6C143.731 40.4533 143.917 40.38 144.131 40.38C144.451 40.38 144.684 40.5133 144.831 40.78L151.571 54.18H150.891L157.511 40.78C157.671 40.5133 157.904 40.38 158.211 40.38C158.424 40.38 158.604 40.4533 158.751 40.6C158.897 40.7467 158.971 40.9333 158.971 41.16V55.22C158.971 55.4333 158.897 55.62 158.751 55.78C158.604 55.9267 158.424 56 158.211 56C157.984 56 157.791 55.9267 157.631 55.78C157.484 55.62 157.411 55.4333 157.411 55.22V43.18L157.751 43.2L151.851 55.26C151.704 55.5133 151.477 55.64 151.171 55.64C150.837 55.64 150.597 55.48 150.451 55.16L144.511 43.28L144.911 43.18V55.22C144.911 55.4333 144.831 55.62 144.671 55.78C144.524 55.9267 144.344 56 144.131 56ZM164.66 60.76C164.553 60.76 164.433 60.7333 164.3 60.68C163.846 60.48 163.72 60.16 163.92 59.72L170.38 45.48C170.58 45.0533 170.9 44.9333 171.34 45.12C171.793 45.3067 171.92 45.62 171.72 46.06L165.24 60.3C165.106 60.6067 164.913 60.76 164.66 60.76ZM166.88 55.66C166.68 55.7533 166.493 55.7733 166.32 55.72C166.146 55.6533 166.006 55.52 165.9 55.32L161.44 46.08C161.346 45.88 161.333 45.6933 161.4 45.52C161.466 45.3467 161.6 45.2133 161.8 45.12C162 45.0267 162.186 45.0133 162.36 45.08C162.533 45.1333 162.666 45.26 162.76 45.46L167.14 54.7C167.246 54.9 167.28 55.0867 167.24 55.26C167.2 55.4333 167.08 55.5667 166.88 55.66ZM178.737 56.2C177.883 56.2 177.09 56.08 176.357 55.84C175.637 55.5867 175.01 55.2333 174.477 54.78C173.943 54.3267 173.537 53.8 173.257 53.2C173.15 52.9867 173.143 52.7933 173.237 52.62C173.343 52.4333 173.517 52.3067 173.757 52.24C173.943 52.1867 174.123 52.2067 174.297 52.3C174.483 52.3933 174.623 52.5333 174.717 52.72C174.917 53.1067 175.21 53.4533 175.597 53.76C175.983 54.0667 176.443 54.3067 176.977 54.48C177.51 54.64 178.097 54.72 178.737 54.72C179.443 54.72 180.07 54.6067 180.617 54.38C181.163 54.14 181.59 53.8 181.897 53.36C182.217 52.9067 182.377 52.36 182.377 51.72C182.377 50.9067 182.077 50.2067 181.477 49.62C180.877 49.0333 179.937 48.66 178.657 48.5C177.097 48.3133 175.877 47.8333 174.997 47.06C174.117 46.2733 173.677 45.3133 173.677 44.18C173.677 43.3667 173.89 42.66 174.317 42.06C174.757 41.46 175.357 41 176.117 40.68C176.877 40.3467 177.75 40.18 178.737 40.18C179.47 40.18 180.137 40.3 180.737 40.54C181.337 40.7667 181.857 41.0733 182.297 41.46C182.75 41.8333 183.117 42.2467 183.397 42.7C183.53 42.9133 183.57 43.12 183.517 43.32C183.477 43.52 183.363 43.6733 183.177 43.78C182.977 43.8733 182.77 43.8867 182.557 43.82C182.357 43.7533 182.203 43.6267 182.097 43.44C181.897 43.1333 181.643 42.8467 181.337 42.58C181.043 42.3 180.683 42.08 180.257 41.92C179.83 41.76 179.317 41.6733 178.717 41.66C177.663 41.66 176.817 41.8867 176.177 42.34C175.537 42.78 175.217 43.4267 175.217 44.28C175.217 44.7333 175.337 45.1533 175.577 45.54C175.817 45.9133 176.21 46.24 176.757 46.52C177.317 46.7867 178.063 46.9867 178.997 47.12C180.663 47.36 181.897 47.8733 182.697 48.66C183.51 49.4333 183.917 50.4467 183.917 51.7C183.917 52.42 183.783 53.06 183.517 53.62C183.263 54.18 182.897 54.6533 182.417 55.04C181.95 55.4133 181.397 55.7 180.757 55.9C180.13 56.1 179.457 56.2 178.737 56.2ZM191.259 56C190.552 56 189.919 55.8333 189.359 55.5C188.812 55.1667 188.379 54.7133 188.059 54.14C187.739 53.5533 187.579 52.8867 187.579 52.14V42.36C187.579 42.1333 187.646 41.9467 187.779 41.8C187.926 41.6533 188.112 41.58 188.339 41.58C188.566 41.58 188.752 41.6533 188.899 41.8C189.046 41.9467 189.119 42.1333 189.119 42.36V52.14C189.119 52.82 189.319 53.38 189.719 53.82C190.119 54.2467 190.632 54.46 191.259 54.46H191.799C192.012 54.46 192.186 54.5333 192.319 54.68C192.452 54.8267 192.519 55.0133 192.519 55.24C192.519 55.4667 192.439 55.6533 192.279 55.8C192.119 55.9333 191.919 56 191.679 56H191.259ZM186.279 46.8C186.079 46.8 185.912 46.74 185.779 46.62C185.646 46.4867 185.579 46.3267 185.579 46.14C185.579 45.94 185.646 45.78 185.779 45.66C185.912 45.5267 186.079 45.46 186.279 45.46H191.379C191.579 45.46 191.746 45.5267 191.879 45.66C192.012 45.78 192.079 45.94 192.079 46.14C192.079 46.3267 192.012 46.4867 191.879 46.62C191.746 46.74 191.579 46.8 191.379 46.8H186.279ZM199.846 56.1C198.819 56.1 197.899 55.86 197.086 55.38C196.272 54.8867 195.626 54.22 195.146 53.38C194.679 52.54 194.446 51.5933 194.446 50.54C194.446 49.4733 194.686 48.52 195.166 47.68C195.659 46.84 196.326 46.18 197.166 45.7C198.006 45.2067 198.952 44.96 200.006 44.96C201.059 44.96 201.999 45.2067 202.826 45.7C203.666 46.18 204.326 46.84 204.806 47.68C205.299 48.52 205.552 49.4733 205.566 50.54L204.946 51.02C204.946 51.98 204.719 52.8467 204.266 53.62C203.826 54.38 203.219 54.9867 202.446 55.44C201.686 55.88 200.819 56.1 199.846 56.1ZM200.006 54.7C200.779 54.7 201.466 54.52 202.066 54.16C202.679 53.8 203.159 53.3067 203.506 52.68C203.866 52.04 204.046 51.3267 204.046 50.54C204.046 49.74 203.866 49.0267 203.506 48.4C203.159 47.7733 202.679 47.28 202.066 46.92C201.466 46.5467 200.779 46.36 200.006 46.36C199.246 46.36 198.559 46.5467 197.946 46.92C197.332 47.28 196.846 47.7733 196.486 48.4C196.126 49.0267 195.946 49.74 195.946 50.54C195.946 51.3267 196.126 52.04 196.486 52.68C196.846 53.3067 197.332 53.8 197.946 54.16C198.559 54.52 199.246 54.7 200.006 54.7ZM204.786 56C204.559 56 204.372 55.9333 204.226 55.8C204.079 55.6533 204.006 55.4667 204.006 55.24V51.82L204.386 50.24L205.566 50.54V55.24C205.566 55.4667 205.492 55.6533 205.346 55.8C205.199 55.9333 205.012 56 204.786 56ZM209.201 49.26C209.241 48.4333 209.454 47.6933 209.841 47.04C210.241 46.3867 210.754 45.8733 211.381 45.5C212.021 45.1267 212.728 44.94 213.501 44.94C214.114 44.94 214.588 45.0267 214.921 45.2C215.254 45.3733 215.381 45.6267 215.301 45.96C215.248 46.16 215.154 46.2933 215.021 46.36C214.901 46.4267 214.748 46.4533 214.561 46.44C214.388 46.4267 214.188 46.4133 213.961 46.4C213.214 46.3333 212.548 46.4133 211.961 46.64C211.388 46.8533 210.928 47.1867 210.581 47.64C210.248 48.0933 210.081 48.6333 210.081 49.26H209.201ZM209.321 56C209.081 56 208.894 55.9333 208.761 55.8C208.628 55.6667 208.561 55.48 208.561 55.24V45.82C208.561 45.58 208.628 45.3933 208.761 45.26C208.894 45.1267 209.081 45.06 209.321 45.06C209.561 45.06 209.748 45.1267 209.881 45.26C210.014 45.3933 210.081 45.58 210.081 45.82V55.24C210.081 55.48 210.014 55.6667 209.881 55.8C209.748 55.9333 209.561 56 209.321 56ZM222.001 56C221.294 56 220.661 55.8333 220.101 55.5C219.554 55.1667 219.121 54.7133 218.801 54.14C218.481 53.5533 218.321 52.8867 218.321 52.14V42.36C218.321 42.1333 218.388 41.9467 218.521 41.8C218.668 41.6533 218.854 41.58 219.081 41.58C219.308 41.58 219.494 41.6533 219.641 41.8C219.788 41.9467 219.861 42.1333 219.861 42.36V52.14C219.861 52.82 220.061 53.38 220.461 53.82C220.861 54.2467 221.374 54.46 222.001 54.46H222.541C222.754 54.46 222.928 54.5333 223.061 54.68C223.194 54.8267 223.261 55.0133 223.261 55.24C223.261 55.4667 223.181 55.6533 223.021 55.8C222.861 55.9333 222.661 56 222.421 56H222.001ZM217.021 46.8C216.821 46.8 216.654 46.74 216.521 46.62C216.388 46.4867 216.321 46.3267 216.321 46.14C216.321 45.94 216.388 45.78 216.521 45.66C216.654 45.5267 216.821 45.46 217.021 45.46H222.121C222.321 45.46 222.488 45.5267 222.621 45.66C222.754 45.78 222.821 45.94 222.821 46.14C222.821 46.3267 222.754 46.4867 222.621 46.62C222.488 46.74 222.321 46.8 222.121 46.8H217.021ZM230.528 56.12C229.581 56.12 228.735 55.9267 227.988 55.54C227.241 55.14 226.648 54.56 226.208 53.8C225.781 53.04 225.568 52.1133 225.568 51.02V45.82C225.568 45.6067 225.641 45.4267 225.788 45.28C225.935 45.1333 226.115 45.06 226.328 45.06C226.555 45.06 226.741 45.1333 226.888 45.28C227.035 45.4267 227.108 45.6067 227.108 45.82V51.02C227.108 51.8467 227.261 52.5267 227.568 53.06C227.888 53.5933 228.315 53.9933 228.848 54.26C229.395 54.5267 230.008 54.66 230.688 54.66C231.341 54.66 231.928 54.5333 232.448 54.28C232.981 54.0267 233.401 53.68 233.708 53.24C234.015 52.8 234.168 52.3 234.168 51.74H235.268C235.228 52.58 234.995 53.3333 234.568 54C234.155 54.6533 233.595 55.1733 232.888 55.56C232.181 55.9333 231.395 56.12 230.528 56.12ZM234.928 56C234.701 56 234.515 55.9333 234.368 55.8C234.235 55.6533 234.168 55.46 234.168 55.22V45.82C234.168 45.5933 234.235 45.4133 234.368 45.28C234.515 45.1333 234.701 45.06 234.928 45.06C235.155 45.06 235.341 45.1333 235.488 45.28C235.635 45.4133 235.708 45.5933 235.708 45.82V55.22C235.708 55.46 235.635 55.6533 235.488 55.8C235.341 55.9333 235.155 56 234.928 56ZM240.083 60.68C239.843 60.68 239.65 60.6067 239.503 60.46C239.37 60.3267 239.303 60.14 239.303 59.9V50.46C239.317 49.42 239.563 48.4867 240.043 47.66C240.537 46.82 241.197 46.16 242.023 45.68C242.863 45.2 243.803 44.96 244.843 44.96C245.91 44.96 246.863 45.2067 247.703 45.7C248.543 46.18 249.203 46.84 249.683 47.68C250.177 48.52 250.423 49.4733 250.423 50.54C250.423 51.5933 250.183 52.54 249.703 53.38C249.237 54.22 248.597 54.8867 247.783 55.38C246.97 55.86 246.05 56.1 245.023 56.1C244.13 56.1 243.317 55.9133 242.583 55.54C241.863 55.1533 241.283 54.6467 240.843 54.02V59.9C240.843 60.14 240.77 60.3267 240.623 60.46C240.49 60.6067 240.31 60.68 240.083 60.68ZM244.843 54.7C245.617 54.7 246.31 54.52 246.923 54.16C247.537 53.8 248.017 53.3067 248.363 52.68C248.723 52.04 248.903 51.3267 248.903 50.54C248.903 49.74 248.723 49.0267 248.363 48.4C248.017 47.7733 247.537 47.28 246.923 46.92C246.31 46.5467 245.617 46.36 244.843 46.36C244.083 46.36 243.397 46.5467 242.783 46.92C242.17 47.28 241.69 47.7733 241.343 48.4C240.997 49.0267 240.823 49.74 240.823 50.54C240.823 51.3267 240.997 52.04 241.343 52.68C241.69 53.3067 242.17 53.8 242.783 54.16C243.397 54.52 244.083 54.7 244.843 54.7Z" fill="#212121"/>
</g>
</svg>
