<svg width="125" height="101" viewBox="0 0 125 101" fill="none" xmlns="http://www.w3.org/2000/svg">
<g id="logo">
<g id="Path">
<path id="leg-1" d="M34.0677 21.2036L0.930825 87.7353C-1.05946 91.732 0.246739 96.7612 3.84967 98.969C7.45261 101.176 11.9876 99.7279 13.9778 95.7299L35.7779 51.9612L43.7391 35.9782L34.0677 21.2036Z" fill="#367BF5"/>
<path id="body-1" d="M90.363 0.00106812L58.0077 57.7741L43.7394 35.9763L35.7783 51.9593L51.9967 76.7377C55.3276 81.8243 62.2419 81.548 65.2331 76.2081L87.9009 35.7332L97.5091 18.5789L90.363 0.00106812Z" fill="#FA5D50"/>
<path id="shadow-2" d="M97.5084 18.5786L87.9001 35.7342L90.7295 43.0884L100.338 25.9328L97.5084 18.5786Z" fill="#2C65C9"/>
<path id="path152" d="M43.7394 35.9814L35.7783 51.9643L39.7807 58.0771L47.7694 42.1375L43.7394 35.9814Z" fill="#C8493E"/>
<path id="leg-2" d="M124.397 88.4863L97.5088 18.5806L87.9006 35.7349L110.687 94.976C111.894 98.1171 114.649 100.001 117.545 100.001C118.52 100.001 119.513 99.7876 120.467 99.3356C124.253 97.5428 126.013 92.6867 124.397 88.4863Z" fill="#367BF5"/>
</g>
</g>
</svg>
