<svg width="125" height="138" viewBox="0 0 125 138" fill="none" xmlns="http://www.w3.org/2000/svg">
<g id="logo-bottom-text-white-with-blue">
<g id="Path">
<path id="leg-1" d="M34.0677 21.2026L0.930824 87.7343C-1.05946 91.731 0.246739 96.7603 3.84967 98.9681C7.45261 101.175 11.9876 99.7269 13.9778 95.7289L35.7779 51.9602L43.7391 35.9772L34.0677 21.2026Z" fill="white"/>
<path id="body-1" d="M90.363 9.51158e-05L58.0077 57.7732L43.7394 35.9754L35.7783 51.9583L51.9967 76.7367C55.3276 81.8233 62.2419 81.547 65.2331 76.2071L87.9009 35.7322L97.5091 18.5779L90.363 9.51158e-05Z" fill="#F4F4F4"/>
<path id="shadow-2" d="M97.5084 18.5776L87.9001 35.7332L90.7295 43.0874L100.338 25.9318L97.5084 18.5776Z" fill="#2C65C9"/>
<path id="path152" d="M43.7394 35.9804L35.7783 51.9634L39.7807 58.0762L47.7694 42.1365L43.7394 35.9804Z" fill="#E9E9E9"/>
<path id="leg-2" d="M124.397 88.4853L97.5088 18.5796L87.9006 35.7339L110.687 94.975C111.894 98.1161 114.649 100 117.545 100C118.52 100 119.513 99.7866 120.467 99.3346C124.253 97.5419 126.013 92.6858 124.397 88.4853Z" fill="white"/>
</g>
<g id="MyStartup">
<path d="M10.1335 133C9.92018 133 9.73352 132.927 9.57352 132.78C9.42685 132.62 9.35352 132.434 9.35352 132.22V118.16C9.35352 117.934 9.42685 117.747 9.57352 117.6C9.73352 117.454 9.92018 117.38 10.1335 117.38C10.4535 117.38 10.6868 117.514 10.8335 117.78L17.5735 131.18H16.8935L23.5135 117.78C23.6735 117.514 23.9069 117.38 24.2135 117.38C24.4268 117.38 24.6068 117.454 24.7535 117.6C24.9002 117.747 24.9735 117.934 24.9735 118.16V132.22C24.9735 132.434 24.9002 132.62 24.7535 132.78C24.6068 132.927 24.4268 133 24.2135 133C23.9868 133 23.7935 132.927 23.6335 132.78C23.4868 132.62 23.4135 132.434 23.4135 132.22V120.18L23.7535 120.2L17.8535 132.26C17.7068 132.514 17.4802 132.64 17.1735 132.64C16.8402 132.64 16.6002 132.48 16.4535 132.16L10.5135 120.28L10.9135 120.18V132.22C10.9135 132.434 10.8335 132.62 10.6735 132.78C10.5268 132.927 10.3468 133 10.1335 133ZM30.6624 137.76C30.5558 137.76 30.4358 137.734 30.3024 137.68C29.8491 137.48 29.7224 137.16 29.9224 136.72L36.3824 122.48C36.5824 122.054 36.9024 121.934 37.3424 122.12C37.7958 122.307 37.9224 122.62 37.7224 123.06L31.2424 137.3C31.1091 137.607 30.9158 137.76 30.6624 137.76ZM32.8824 132.66C32.6824 132.754 32.4958 132.774 32.3224 132.72C32.1491 132.654 32.0091 132.52 31.9024 132.32L27.4424 123.08C27.3491 122.88 27.3358 122.694 27.4024 122.52C27.4691 122.347 27.6024 122.214 27.8024 122.12C28.0024 122.027 28.1891 122.014 28.3624 122.08C28.5358 122.134 28.6691 122.26 28.7624 122.46L33.1424 131.7C33.2491 131.9 33.2824 132.087 33.2424 132.26C33.2024 132.434 33.0824 132.567 32.8824 132.66ZM44.7395 133.2C43.8861 133.2 43.0928 133.08 42.3595 132.84C41.6395 132.587 41.0128 132.234 40.4795 131.78C39.9461 131.327 39.5395 130.8 39.2595 130.2C39.1528 129.987 39.1461 129.794 39.2395 129.62C39.3461 129.434 39.5195 129.307 39.7595 129.24C39.9461 129.187 40.1261 129.207 40.2995 129.3C40.4861 129.394 40.6261 129.534 40.7195 129.72C40.9195 130.107 41.2128 130.454 41.5995 130.76C41.9861 131.067 42.4461 131.307 42.9795 131.48C43.5128 131.64 44.0995 131.72 44.7395 131.72C45.4461 131.72 46.0728 131.607 46.6195 131.38C47.1661 131.14 47.5928 130.8 47.8995 130.36C48.2195 129.907 48.3795 129.36 48.3795 128.72C48.3795 127.907 48.0795 127.207 47.4795 126.62C46.8795 126.034 45.9395 125.66 44.6595 125.5C43.0995 125.314 41.8795 124.834 40.9995 124.06C40.1195 123.274 39.6795 122.314 39.6795 121.18C39.6795 120.367 39.8928 119.66 40.3195 119.06C40.7595 118.46 41.3595 118 42.1195 117.68C42.8795 117.347 43.7528 117.18 44.7395 117.18C45.4728 117.18 46.1395 117.3 46.7395 117.54C47.3395 117.767 47.8595 118.074 48.2995 118.46C48.7528 118.834 49.1195 119.247 49.3995 119.7C49.5328 119.914 49.5728 120.12 49.5195 120.32C49.4795 120.52 49.3661 120.674 49.1795 120.78C48.9795 120.874 48.7728 120.887 48.5595 120.82C48.3595 120.754 48.2061 120.627 48.0995 120.44C47.8995 120.134 47.6461 119.847 47.3395 119.58C47.0461 119.3 46.6861 119.08 46.2595 118.92C45.8328 118.76 45.3195 118.674 44.7195 118.66C43.6661 118.66 42.8195 118.887 42.1795 119.34C41.5395 119.78 41.2195 120.427 41.2195 121.28C41.2195 121.734 41.3395 122.154 41.5795 122.54C41.8195 122.914 42.2128 123.24 42.7595 123.52C43.3195 123.787 44.0661 123.987 44.9995 124.12C46.6661 124.36 47.8995 124.874 48.6995 125.66C49.5128 126.434 49.9195 127.447 49.9195 128.7C49.9195 129.42 49.7861 130.06 49.5195 130.62C49.2661 131.18 48.8995 131.654 48.4195 132.04C47.9528 132.414 47.3995 132.7 46.7595 132.9C46.1328 133.1 45.4595 133.2 44.7395 133.2ZM57.2616 133C56.555 133 55.9216 132.834 55.3616 132.5C54.815 132.167 54.3816 131.714 54.0616 131.14C53.7416 130.554 53.5816 129.887 53.5816 129.14V119.36C53.5816 119.134 53.6483 118.947 53.7816 118.8C53.9283 118.654 54.115 118.58 54.3416 118.58C54.5683 118.58 54.755 118.654 54.9016 118.8C55.0483 118.947 55.1216 119.134 55.1216 119.36V129.14C55.1216 129.82 55.3216 130.38 55.7216 130.82C56.1216 131.247 56.635 131.46 57.2616 131.46H57.8016C58.015 131.46 58.1883 131.534 58.3216 131.68C58.455 131.827 58.5216 132.014 58.5216 132.24C58.5216 132.467 58.4416 132.654 58.2816 132.8C58.1216 132.934 57.9216 133 57.6816 133H57.2616ZM52.2816 123.8C52.0816 123.8 51.915 123.74 51.7816 123.62C51.6483 123.487 51.5816 123.327 51.5816 123.14C51.5816 122.94 51.6483 122.78 51.7816 122.66C51.915 122.527 52.0816 122.46 52.2816 122.46H57.3816C57.5816 122.46 57.7483 122.527 57.8816 122.66C58.015 122.78 58.0816 122.94 58.0816 123.14C58.0816 123.327 58.015 123.487 57.8816 123.62C57.7483 123.74 57.5816 123.8 57.3816 123.8H52.2816ZM65.8485 133.1C64.8218 133.1 63.9018 132.86 63.0885 132.38C62.2752 131.887 61.6285 131.22 61.1485 130.38C60.6818 129.54 60.4485 128.594 60.4485 127.54C60.4485 126.474 60.6885 125.52 61.1685 124.68C61.6618 123.84 62.3285 123.18 63.1685 122.7C64.0085 122.207 64.9552 121.96 66.0085 121.96C67.0618 121.96 68.0018 122.207 68.8285 122.7C69.6685 123.18 70.3285 123.84 70.8085 124.68C71.3019 125.52 71.5552 126.474 71.5685 127.54L70.9485 128.02C70.9485 128.98 70.7218 129.847 70.2685 130.62C69.8285 131.38 69.2218 131.987 68.4485 132.44C67.6885 132.88 66.8218 133.1 65.8485 133.1ZM66.0085 131.7C66.7818 131.7 67.4685 131.52 68.0685 131.16C68.6818 130.8 69.1618 130.307 69.5085 129.68C69.8685 129.04 70.0485 128.327 70.0485 127.54C70.0485 126.74 69.8685 126.027 69.5085 125.4C69.1618 124.774 68.6818 124.28 68.0685 123.92C67.4685 123.547 66.7818 123.36 66.0085 123.36C65.2485 123.36 64.5618 123.547 63.9485 123.92C63.3352 124.28 62.8485 124.774 62.4885 125.4C62.1285 126.027 61.9485 126.74 61.9485 127.54C61.9485 128.327 62.1285 129.04 62.4885 129.68C62.8485 130.307 63.3352 130.8 63.9485 131.16C64.5618 131.52 65.2485 131.7 66.0085 131.7ZM70.7885 133C70.5618 133 70.3752 132.934 70.2285 132.8C70.0818 132.654 70.0085 132.467 70.0085 132.24V128.82L70.3885 127.24L71.5685 127.54V132.24C71.5685 132.467 71.4952 132.654 71.3485 132.8C71.2018 132.934 71.0152 133 70.7885 133ZM75.2037 126.26C75.2437 125.434 75.457 124.694 75.8437 124.04C76.2437 123.387 76.757 122.874 77.3837 122.5C78.0237 122.127 78.7303 121.94 79.5037 121.94C80.117 121.94 80.5903 122.027 80.9237 122.2C81.257 122.374 81.3837 122.627 81.3037 122.96C81.2503 123.16 81.157 123.294 81.0237 123.36C80.9037 123.427 80.7503 123.454 80.5637 123.44C80.3903 123.427 80.1903 123.414 79.9637 123.4C79.217 123.334 78.5503 123.414 77.9637 123.64C77.3903 123.854 76.9303 124.187 76.5837 124.64C76.2503 125.094 76.0837 125.634 76.0837 126.26H75.2037ZM75.3237 133C75.0837 133 74.897 132.934 74.7637 132.8C74.6303 132.667 74.5637 132.48 74.5637 132.24V122.82C74.5637 122.58 74.6303 122.394 74.7637 122.26C74.897 122.127 75.0837 122.06 75.3237 122.06C75.5637 122.06 75.7503 122.127 75.8837 122.26C76.017 122.394 76.0837 122.58 76.0837 122.82V132.24C76.0837 132.48 76.017 132.667 75.8837 132.8C75.7503 132.934 75.5637 133 75.3237 133ZM88.0038 133C87.2972 133 86.6638 132.834 86.1038 132.5C85.5572 132.167 85.1238 131.714 84.8038 131.14C84.4838 130.554 84.3238 129.887 84.3238 129.14V119.36C84.3238 119.134 84.3905 118.947 84.5238 118.8C84.6705 118.654 84.8572 118.58 85.0838 118.58C85.3105 118.58 85.4972 118.654 85.6438 118.8C85.7905 118.947 85.8638 119.134 85.8638 119.36V129.14C85.8638 129.82 86.0638 130.38 86.4638 130.82C86.8638 131.247 87.3772 131.46 88.0038 131.46H88.5438C88.7572 131.46 88.9305 131.534 89.0638 131.68C89.1972 131.827 89.2638 132.014 89.2638 132.24C89.2638 132.467 89.1838 132.654 89.0238 132.8C88.8638 132.934 88.6638 133 88.4238 133H88.0038ZM83.0238 123.8C82.8238 123.8 82.6572 123.74 82.5238 123.62C82.3905 123.487 82.3238 123.327 82.3238 123.14C82.3238 122.94 82.3905 122.78 82.5238 122.66C82.6572 122.527 82.8238 122.46 83.0238 122.46H88.1238C88.3238 122.46 88.4905 122.527 88.6238 122.66C88.7572 122.78 88.8238 122.94 88.8238 123.14C88.8238 123.327 88.7572 123.487 88.6238 123.62C88.4905 123.74 88.3238 123.8 88.1238 123.8H83.0238Z" fill="white"/>
<path d="M96.5307 133.12C95.584 133.12 94.7374 132.927 93.9907 132.54C93.244 132.14 92.6507 131.56 92.2107 130.8C91.784 130.04 91.5707 129.114 91.5707 128.02V122.82C91.5707 122.607 91.644 122.427 91.7907 122.28C91.9374 122.134 92.1174 122.06 92.3307 122.06C92.5574 122.06 92.744 122.134 92.8907 122.28C93.0374 122.427 93.1107 122.607 93.1107 122.82V128.02C93.1107 128.847 93.264 129.527 93.5707 130.06C93.8907 130.594 94.3174 130.994 94.8507 131.26C95.3974 131.527 96.0107 131.66 96.6907 131.66C97.344 131.66 97.9307 131.534 98.4507 131.28C98.984 131.027 99.404 130.68 99.7107 130.24C100.017 129.8 100.171 129.3 100.171 128.74H101.271C101.231 129.58 100.997 130.334 100.571 131C100.157 131.654 99.5974 132.174 98.8907 132.56C98.184 132.934 97.3974 133.12 96.5307 133.12ZM100.931 133C100.704 133 100.517 132.934 100.371 132.8C100.237 132.654 100.171 132.46 100.171 132.22V122.82C100.171 122.594 100.237 122.414 100.371 122.28C100.517 122.134 100.704 122.06 100.931 122.06C101.157 122.06 101.344 122.134 101.491 122.28C101.637 122.414 101.711 122.594 101.711 122.82V132.22C101.711 132.46 101.637 132.654 101.491 132.8C101.344 132.934 101.157 133 100.931 133ZM106.086 137.68C105.846 137.68 105.653 137.607 105.506 137.46C105.373 137.327 105.306 137.14 105.306 136.9V127.46C105.319 126.42 105.566 125.487 106.046 124.66C106.539 123.82 107.199 123.16 108.026 122.68C108.866 122.2 109.806 121.96 110.846 121.96C111.913 121.96 112.866 122.207 113.706 122.7C114.546 123.18 115.206 123.84 115.686 124.68C116.179 125.52 116.426 126.474 116.426 127.54C116.426 128.594 116.186 129.54 115.706 130.38C115.239 131.22 114.599 131.887 113.786 132.38C112.973 132.86 112.053 133.1 111.026 133.1C110.133 133.1 109.319 132.914 108.586 132.54C107.866 132.154 107.286 131.647 106.846 131.02V136.9C106.846 137.14 106.773 137.327 106.626 137.46C106.493 137.607 106.313 137.68 106.086 137.68ZM110.846 131.7C111.619 131.7 112.313 131.52 112.926 131.16C113.539 130.8 114.019 130.307 114.366 129.68C114.726 129.04 114.906 128.327 114.906 127.54C114.906 126.74 114.726 126.027 114.366 125.4C114.019 124.774 113.539 124.28 112.926 123.92C112.313 123.547 111.619 123.36 110.846 123.36C110.086 123.36 109.399 123.547 108.786 123.92C108.173 124.28 107.693 124.774 107.346 125.4C106.999 126.027 106.826 126.74 106.826 127.54C106.826 128.327 106.999 129.04 107.346 129.68C107.693 130.307 108.173 130.8 108.786 131.16C109.399 131.52 110.086 131.7 110.846 131.7Z" fill="#367BF5"/>
</g>
</g>
</svg>
