<svg width="125" height="100" viewBox="0 0 125 100" fill="none" xmlns="http://www.w3.org/2000/svg">
<g id="logo-white">
<g id="Path">
<path id="leg-1" d="M34.0677 21.2026L0.930825 87.7343C-1.05946 91.731 0.246739 96.7603 3.84967 98.9681C7.45261 101.175 11.9876 99.7269 13.9778 95.7289L35.7779 51.9602L43.7391 35.9772L34.0677 21.2026Z" fill="white"/>
<path id="body-1" d="M90.363 9.15527e-05L58.0077 57.7732L43.7394 35.9754L35.7783 51.9583L51.9967 76.7367C55.3276 81.8233 62.2419 81.547 65.2331 76.2071L87.9009 35.7322L97.5091 18.5779L90.363 9.15527e-05Z" fill="#F4F4F4"/>
<path id="shadow-2" d="M97.5084 18.5776L87.9001 35.7332L90.7295 43.0874L100.338 25.9318L97.5084 18.5776Z" fill="#2C65C9"/>
<path id="path152" d="M43.7394 35.9804L35.7783 51.9634L39.7807 58.0762L47.7694 42.1365L43.7394 35.9804Z" fill="#E9E9E9"/>
<path id="leg-2" d="M124.397 88.4853L97.5088 18.5796L87.9006 35.7339L110.687 94.975C111.894 98.1161 114.649 100 117.545 100C118.52 100 119.513 99.7866 120.467 99.3346C124.253 97.5419 126.013 92.6858 124.397 88.4853Z" fill="white"/>
</g>
</g>
</svg>
