<svg width="125" height="138" viewBox="0 0 125 138" fill="none" xmlns="http://www.w3.org/2000/svg">
<g id="logo-bottom-text">
<g id="MyStartup">
<path d="M10.1335 133.001C9.92018 133.001 9.73352 132.928 9.57352 132.781C9.42685 132.621 9.35352 132.434 9.35352 132.221V118.161C9.35352 117.934 9.42685 117.748 9.57352 117.601C9.73352 117.454 9.92018 117.381 10.1335 117.381C10.4535 117.381 10.6868 117.514 10.8335 117.781L17.5735 131.181H16.8935L23.5135 117.781C23.6735 117.514 23.9069 117.381 24.2135 117.381C24.4268 117.381 24.6068 117.454 24.7535 117.601C24.9002 117.748 24.9735 117.934 24.9735 118.161V132.221C24.9735 132.434 24.9002 132.621 24.7535 132.781C24.6068 132.928 24.4268 133.001 24.2135 133.001C23.9868 133.001 23.7935 132.928 23.6335 132.781C23.4868 132.621 23.4135 132.434 23.4135 132.221V120.181L23.7535 120.201L17.8535 132.261C17.7068 132.514 17.4802 132.641 17.1735 132.641C16.8402 132.641 16.6002 132.481 16.4535 132.161L10.5135 120.281L10.9135 120.181V132.221C10.9135 132.434 10.8335 132.621 10.6735 132.781C10.5268 132.928 10.3468 133.001 10.1335 133.001ZM30.6624 137.761C30.5558 137.761 30.4358 137.734 30.3024 137.681C29.8491 137.481 29.7224 137.161 29.9224 136.721L36.3824 122.481C36.5824 122.054 36.9024 121.934 37.3424 122.121C37.7958 122.308 37.9224 122.621 37.7224 123.061L31.2424 137.301C31.1091 137.608 30.9158 137.761 30.6624 137.761ZM32.8824 132.661C32.6824 132.754 32.4958 132.774 32.3224 132.721C32.1491 132.654 32.0091 132.521 31.9024 132.321L27.4424 123.081C27.3491 122.881 27.3358 122.694 27.4024 122.521C27.4691 122.348 27.6024 122.214 27.8024 122.121C28.0024 122.028 28.1891 122.014 28.3624 122.081C28.5358 122.134 28.6691 122.261 28.7624 122.461L33.1424 131.701C33.2491 131.901 33.2824 132.088 33.2424 132.261C33.2024 132.434 33.0824 132.568 32.8824 132.661ZM44.7395 133.201C43.8861 133.201 43.0928 133.081 42.3595 132.841C41.6395 132.588 41.0128 132.234 40.4795 131.781C39.9461 131.328 39.5395 130.801 39.2595 130.201C39.1528 129.988 39.1461 129.794 39.2395 129.621C39.3461 129.434 39.5195 129.308 39.7595 129.241C39.9461 129.188 40.1261 129.208 40.2995 129.301C40.4861 129.394 40.6261 129.534 40.7195 129.721C40.9195 130.108 41.2128 130.454 41.5995 130.761C41.9861 131.068 42.4461 131.308 42.9795 131.481C43.5128 131.641 44.0995 131.721 44.7395 131.721C45.4461 131.721 46.0728 131.608 46.6195 131.381C47.1661 131.141 47.5928 130.801 47.8995 130.361C48.2195 129.908 48.3795 129.361 48.3795 128.721C48.3795 127.908 48.0795 127.208 47.4795 126.621C46.8795 126.034 45.9395 125.661 44.6595 125.501C43.0995 125.314 41.8795 124.834 40.9995 124.061C40.1195 123.274 39.6795 122.314 39.6795 121.181C39.6795 120.368 39.8928 119.661 40.3195 119.061C40.7595 118.461 41.3595 118.001 42.1195 117.681C42.8795 117.348 43.7528 117.181 44.7395 117.181C45.4728 117.181 46.1395 117.301 46.7395 117.541C47.3395 117.768 47.8595 118.074 48.2995 118.461C48.7528 118.834 49.1195 119.248 49.3995 119.701C49.5328 119.914 49.5728 120.121 49.5195 120.321C49.4795 120.521 49.3661 120.674 49.1795 120.781C48.9795 120.874 48.7728 120.888 48.5595 120.821C48.3595 120.754 48.2061 120.628 48.0995 120.441C47.8995 120.134 47.6461 119.848 47.3395 119.581C47.0461 119.301 46.6861 119.081 46.2595 118.921C45.8328 118.761 45.3195 118.674 44.7195 118.661C43.6661 118.661 42.8195 118.888 42.1795 119.341C41.5395 119.781 41.2195 120.428 41.2195 121.281C41.2195 121.734 41.3395 122.154 41.5795 122.541C41.8195 122.914 42.2128 123.241 42.7595 123.521C43.3195 123.788 44.0661 123.988 44.9995 124.121C46.6661 124.361 47.8995 124.874 48.6995 125.661C49.5128 126.434 49.9195 127.448 49.9195 128.701C49.9195 129.421 49.7861 130.061 49.5195 130.621C49.2661 131.181 48.8995 131.654 48.4195 132.041C47.9528 132.414 47.3995 132.701 46.7595 132.901C46.1328 133.101 45.4595 133.201 44.7395 133.201ZM57.2616 133.001C56.555 133.001 55.9216 132.834 55.3616 132.501C54.815 132.168 54.3816 131.714 54.0616 131.141C53.7416 130.554 53.5816 129.888 53.5816 129.141V119.361C53.5816 119.134 53.6483 118.948 53.7816 118.801C53.9283 118.654 54.115 118.581 54.3416 118.581C54.5683 118.581 54.755 118.654 54.9016 118.801C55.0483 118.948 55.1216 119.134 55.1216 119.361V129.141C55.1216 129.821 55.3216 130.381 55.7216 130.821C56.1216 131.248 56.635 131.461 57.2616 131.461H57.8016C58.015 131.461 58.1883 131.534 58.3216 131.681C58.455 131.828 58.5216 132.014 58.5216 132.241C58.5216 132.468 58.4416 132.654 58.2816 132.801C58.1216 132.934 57.9216 133.001 57.6816 133.001H57.2616ZM52.2816 123.801C52.0816 123.801 51.915 123.741 51.7816 123.621C51.6483 123.488 51.5816 123.328 51.5816 123.141C51.5816 122.941 51.6483 122.781 51.7816 122.661C51.915 122.528 52.0816 122.461 52.2816 122.461H57.3816C57.5816 122.461 57.7483 122.528 57.8816 122.661C58.015 122.781 58.0816 122.941 58.0816 123.141C58.0816 123.328 58.015 123.488 57.8816 123.621C57.7483 123.741 57.5816 123.801 57.3816 123.801H52.2816ZM65.8485 133.101C64.8218 133.101 63.9018 132.861 63.0885 132.381C62.2752 131.888 61.6285 131.221 61.1485 130.381C60.6818 129.541 60.4485 128.594 60.4485 127.541C60.4485 126.474 60.6885 125.521 61.1685 124.681C61.6618 123.841 62.3285 123.181 63.1685 122.701C64.0085 122.208 64.9552 121.961 66.0085 121.961C67.0618 121.961 68.0018 122.208 68.8285 122.701C69.6685 123.181 70.3285 123.841 70.8085 124.681C71.3019 125.521 71.5552 126.474 71.5685 127.541L70.9485 128.021C70.9485 128.981 70.7218 129.848 70.2685 130.621C69.8285 131.381 69.2218 131.988 68.4485 132.441C67.6885 132.881 66.8218 133.101 65.8485 133.101ZM66.0085 131.701C66.7818 131.701 67.4685 131.521 68.0685 131.161C68.6818 130.801 69.1618 130.308 69.5085 129.681C69.8685 129.041 70.0485 128.328 70.0485 127.541C70.0485 126.741 69.8685 126.028 69.5085 125.401C69.1618 124.774 68.6818 124.281 68.0685 123.921C67.4685 123.548 66.7818 123.361 66.0085 123.361C65.2485 123.361 64.5618 123.548 63.9485 123.921C63.3352 124.281 62.8485 124.774 62.4885 125.401C62.1285 126.028 61.9485 126.741 61.9485 127.541C61.9485 128.328 62.1285 129.041 62.4885 129.681C62.8485 130.308 63.3352 130.801 63.9485 131.161C64.5618 131.521 65.2485 131.701 66.0085 131.701ZM70.7885 133.001C70.5618 133.001 70.3752 132.934 70.2285 132.801C70.0818 132.654 70.0085 132.468 70.0085 132.241V128.821L70.3885 127.241L71.5685 127.541V132.241C71.5685 132.468 71.4952 132.654 71.3485 132.801C71.2018 132.934 71.0152 133.001 70.7885 133.001ZM75.2037 126.261C75.2437 125.434 75.457 124.694 75.8437 124.041C76.2437 123.388 76.757 122.874 77.3837 122.501C78.0237 122.128 78.7303 121.941 79.5037 121.941C80.117 121.941 80.5903 122.028 80.9237 122.201C81.257 122.374 81.3837 122.628 81.3037 122.961C81.2503 123.161 81.157 123.294 81.0237 123.361C80.9037 123.428 80.7503 123.454 80.5637 123.441C80.3903 123.428 80.1903 123.414 79.9637 123.401C79.217 123.334 78.5503 123.414 77.9637 123.641C77.3903 123.854 76.9303 124.188 76.5837 124.641C76.2503 125.094 76.0837 125.634 76.0837 126.261H75.2037ZM75.3237 133.001C75.0837 133.001 74.897 132.934 74.7637 132.801C74.6303 132.668 74.5637 132.481 74.5637 132.241V122.821C74.5637 122.581 74.6303 122.394 74.7637 122.261C74.897 122.128 75.0837 122.061 75.3237 122.061C75.5637 122.061 75.7503 122.128 75.8837 122.261C76.017 122.394 76.0837 122.581 76.0837 122.821V132.241C76.0837 132.481 76.017 132.668 75.8837 132.801C75.7503 132.934 75.5637 133.001 75.3237 133.001ZM88.0038 133.001C87.2972 133.001 86.6638 132.834 86.1038 132.501C85.5572 132.168 85.1238 131.714 84.8038 131.141C84.4838 130.554 84.3238 129.888 84.3238 129.141V119.361C84.3238 119.134 84.3905 118.948 84.5238 118.801C84.6705 118.654 84.8572 118.581 85.0838 118.581C85.3105 118.581 85.4972 118.654 85.6438 118.801C85.7905 118.948 85.8638 119.134 85.8638 119.361V129.141C85.8638 129.821 86.0638 130.381 86.4638 130.821C86.8638 131.248 87.3772 131.461 88.0038 131.461H88.5438C88.7572 131.461 88.9305 131.534 89.0638 131.681C89.1972 131.828 89.2638 132.014 89.2638 132.241C89.2638 132.468 89.1838 132.654 89.0238 132.801C88.8638 132.934 88.6638 133.001 88.4238 133.001H88.0038ZM83.0238 123.801C82.8238 123.801 82.6572 123.741 82.5238 123.621C82.3905 123.488 82.3238 123.328 82.3238 123.141C82.3238 122.941 82.3905 122.781 82.5238 122.661C82.6572 122.528 82.8238 122.461 83.0238 122.461H88.1238C88.3238 122.461 88.4905 122.528 88.6238 122.661C88.7572 122.781 88.8238 122.941 88.8238 123.141C88.8238 123.328 88.7572 123.488 88.6238 123.621C88.4905 123.741 88.3238 123.801 88.1238 123.801H83.0238Z" fill="#367BF5"/>
<path d="M96.5307 133.121C95.584 133.121 94.7374 132.928 93.9907 132.541C93.244 132.141 92.6507 131.561 92.2107 130.801C91.784 130.041 91.5707 129.114 91.5707 128.021V122.821C91.5707 122.608 91.644 122.428 91.7907 122.281C91.9374 122.134 92.1174 122.061 92.3307 122.061C92.5574 122.061 92.744 122.134 92.8907 122.281C93.0374 122.428 93.1107 122.608 93.1107 122.821V128.021C93.1107 128.848 93.264 129.528 93.5707 130.061C93.8907 130.594 94.3174 130.994 94.8507 131.261C95.3974 131.528 96.0107 131.661 96.6907 131.661C97.344 131.661 97.9307 131.534 98.4507 131.281C98.984 131.028 99.404 130.681 99.7107 130.241C100.017 129.801 100.171 129.301 100.171 128.741H101.271C101.231 129.581 100.997 130.334 100.571 131.001C100.157 131.654 99.5974 132.174 98.8907 132.561C98.184 132.934 97.3974 133.121 96.5307 133.121ZM100.931 133.001C100.704 133.001 100.517 132.934 100.371 132.801C100.237 132.654 100.171 132.461 100.171 132.221V122.821C100.171 122.594 100.237 122.414 100.371 122.281C100.517 122.134 100.704 122.061 100.931 122.061C101.157 122.061 101.344 122.134 101.491 122.281C101.637 122.414 101.711 122.594 101.711 122.821V132.221C101.711 132.461 101.637 132.654 101.491 132.801C101.344 132.934 101.157 133.001 100.931 133.001ZM106.086 137.681C105.846 137.681 105.653 137.608 105.506 137.461C105.373 137.328 105.306 137.141 105.306 136.901V127.461C105.319 126.421 105.566 125.488 106.046 124.661C106.539 123.821 107.199 123.161 108.026 122.681C108.866 122.201 109.806 121.961 110.846 121.961C111.913 121.961 112.866 122.208 113.706 122.701C114.546 123.181 115.206 123.841 115.686 124.681C116.179 125.521 116.426 126.474 116.426 127.541C116.426 128.594 116.186 129.541 115.706 130.381C115.239 131.221 114.599 131.888 113.786 132.381C112.973 132.861 112.053 133.101 111.026 133.101C110.133 133.101 109.319 132.914 108.586 132.541C107.866 132.154 107.286 131.648 106.846 131.021V136.901C106.846 137.141 106.773 137.328 106.626 137.461C106.493 137.608 106.313 137.681 106.086 137.681ZM110.846 131.701C111.619 131.701 112.313 131.521 112.926 131.161C113.539 130.801 114.019 130.308 114.366 129.681C114.726 129.041 114.906 128.328 114.906 127.541C114.906 126.741 114.726 126.028 114.366 125.401C114.019 124.774 113.539 124.281 112.926 123.921C112.313 123.548 111.619 123.361 110.846 123.361C110.086 123.361 109.399 123.548 108.786 123.921C108.173 124.281 107.693 124.774 107.346 125.401C106.999 126.028 106.826 126.741 106.826 127.541C106.826 128.328 106.999 129.041 107.346 129.681C107.693 130.308 108.173 130.801 108.786 131.161C109.399 131.521 110.086 131.701 110.846 131.701Z" fill="#FF6666"/>
</g>
<g id="Path">
<path id="leg-1" d="M34.0677 21.2031L0.930825 87.7348C-1.05946 91.7315 0.246739 96.7607 3.84967 98.9685C7.45261 101.175 11.9876 99.7274 13.9778 95.7294L35.7779 51.9607L43.7391 35.9777L34.0677 21.2031Z" fill="#367BF5"/>
<path id="body-1" d="M90.363 0.000579834L58.0077 57.7737L43.7394 35.9759L35.7783 51.9588L51.9967 76.7372C55.3276 81.8238 62.2419 81.5475 65.2331 76.2076L87.9009 35.7327L97.5091 18.5784L90.363 0.000579834Z" fill="#FA5D50"/>
<path id="shadow-2" d="M97.5084 18.5781L87.9001 35.7337L90.7295 43.0879L100.338 25.9323L97.5084 18.5781Z" fill="#2C65C9"/>
<path id="path152" d="M43.7394 35.9809L35.7783 51.9639L39.7807 58.0767L47.7694 42.137L43.7394 35.9809Z" fill="#C8493E"/>
<path id="leg-2" d="M124.397 88.4858L97.5088 18.5801L87.9006 35.7344L110.687 94.9755C111.894 98.1166 114.649 100.001 117.545 100.001C118.52 100.001 119.513 99.7871 120.467 99.3351C124.253 97.5424 126.013 92.6862 124.397 88.4858Z" fill="#367BF5"/>
</g>
</g>
</svg>
