<?xml version="1.0" encoding="UTF-8" standalone="no"?>
<!DOCTYPE svg PUBLIC "-//W3C//DTD SVG 1.1//EN" "http://www.w3.org/Graphics/SVG/1.1/DTD/svg11.dtd">
<svg version="1.1" xmlns="http://www.w3.org/2000/svg" xmlns:xlink="http://www.w3.org/1999/xlink" preserveAspectRatio="xMidYMid meet" viewBox="1 3 24 20" width="24" height="19.2"><defs><path d="M4 4C2.9 4 2.01 4.9 2.01 6C2.01 7.2 2 16.8 2 18C2 19.1 2.9 20 4 20C5.6 20 18.4 20 20 20C21.1 20 22 19.1 22 18C22 17 22 9 22 8C22 6.9 21.1 6 20 6C19.47 6 16.8 6 12 6L10 4C6.4 4 4.4 4 4 4Z" id="gz2Z35cMe"></path></defs><g><g><use xlink:href="#gz2Z35cMe" opacity="1" fill="#1f30da" fill-opacity="1"></use><g><use xlink:href="#gz2Z35cMe" opacity="1" fill-opacity="0" stroke="#000000" stroke-width="1" stroke-opacity="0"></use></g></g></g></svg>