<svg width="1080" height="1080" viewBox="0 0 1080 1080" fill="none" xmlns="http://www.w3.org/2000/svg">
<g id="hero">
<path id="Vector" d="M713 887C851.071 887 963 775.071 963 637C963 498.929 851.071 387 713 387C574.929 387 463 498.929 463 637C463 775.071 574.929 887 713 887Z" fill="#F2F2F2"/>
<g id="man">
<path id="Vector_2" d="M909.84 824.863C910.066 848.568 760.686 850.741 757.841 824.864C757.614 801.161 906.995 798.988 909.84 824.863Z" fill="#E6E6E6"/>
<path id="Vector_3" d="M792.966 742.569L781.864 748.624L788.929 771.837L800.03 772.846L806.086 759.726L792.966 742.569Z" fill="#A0616A"/>
<path id="Vector_4" d="M827.28 788.994V800.095L844.437 799.086L844.198 789.943L827.28 788.994Z" fill="#A0616A"/>
<path id="Vector_5" d="M788.929 609.348L794.984 685.042L814.16 796.058L844.437 792.021L834.345 704.217L838.382 623.478L788.929 609.348Z" fill="#2F2E41"/>
<path id="Vector_6" d="M869.668 552.831L797.003 553.84L788.929 609.349L838.382 632.561L850.493 676.968L788.929 742.569L813.151 772.846C813.151 772.846 847.465 726.421 872.696 700.181C897.927 673.94 885.816 594.21 885.816 594.21L869.668 552.831Z" fill="#2F2E41"/>
<path id="Vector_7" d="M826.271 409.518C838.533 409.518 848.474 399.577 848.474 387.315C848.474 375.052 838.533 365.111 826.271 365.111C814.008 365.111 804.067 375.052 804.067 387.315C804.067 399.577 814.008 409.518 826.271 409.518Z" fill="#A0616A"/>
<path id="Vector_8" d="M818.197 402.454V424.657L833.335 448.879C833.335 448.879 856.548 431.722 851.502 427.685C846.456 423.648 845.446 392.361 845.446 392.361L818.197 402.454Z" fill="#A0616A"/>
<path id="Vector_9" d="M818.197 420.62L803.058 438.786L809.114 564.941L856.548 563.932L864.622 453.925L854.53 425.666L847.607 416.247L835.354 434.749L818.197 420.62Z" fill="#D0CDE1"/>
<path id="Vector_10" d="M793.975 486.221L782.873 528.609L793.975 570.997L775.809 595.219L759.661 518.517C759.661 518.517 771.772 455.943 772.781 448.879C773.79 441.814 775.809 440.805 775.809 440.805L783.883 441.814L793.975 486.221Z" fill="#2F2E41"/>
<path id="Vector_11" d="M874.714 502.368L881.779 515.489L883.798 537.692L879.761 562.923L893.89 586.136L908.019 522.553L892.881 440.804H886.825L874.714 502.368Z" fill="#2F2E41"/>
<path id="Vector_12" d="M788.929 741.56C788.929 741.56 774.799 745.597 769.753 746.606C764.707 747.615 772.781 766.791 772.781 766.791C772.781 766.791 777.827 793.031 778.836 798.077C779.845 803.123 786.91 820.281 795.993 822.299C805.077 824.318 799.021 786.976 799.021 786.976C799.021 786.976 803.058 774.865 803.058 770.828C803.058 766.791 797.003 768.809 797.003 768.809C780.855 766.791 788.929 741.56 788.929 741.56Z" fill="#2F2E41"/>
<path id="Vector_13" d="M822.234 819.271C823.243 825.327 821.225 825.327 837.373 827.345C853.521 829.364 849.484 816.243 849.484 816.243C848.809 810.058 847.455 803.966 845.447 798.077C842.419 790.003 826.271 800.096 826.271 800.096C826.271 800.096 821.225 813.216 822.234 819.271Z" fill="#2F2E41"/>
<path id="Vector_14" d="M845.473 393.066L845.999 402.042C845.999 402.042 852.511 387.315 853.52 372.176C854.529 357.038 837.372 354.01 827.28 353.001C817.187 351.991 800.03 359.056 800.03 367.13C800.03 375.204 818.197 373.186 825.261 371.167C832.326 369.149 835.354 386.306 835.354 386.306L839.391 387.315L845.473 393.066Z" fill="#2F2E41"/>
<path id="Vector_15" d="M812.24 427.767L818.197 420.62L835.354 434.749L818.197 446.86L812.24 427.767Z" fill="#D0CDE1"/>
<path id="Vector_16" d="M854.53 425.666L847.465 416.583L835.354 434.749L850.493 445.851L854.53 425.666Z" fill="#D0CDE1"/>
<path id="Vector_17" d="M790.947 500.351L794.984 538.702L786.91 561.915L781.864 584.118C781.864 584.118 781.864 605.312 802.049 606.321C822.234 607.331 839.391 542.739 839.391 542.739C839.391 542.739 842.419 556.868 844.437 564.942C846.456 573.016 880.77 605.312 880.77 605.312C880.77 605.312 888.844 604.303 895.909 588.155C902.973 572.007 881.779 556.868 881.779 556.868L875.724 535.674L877.742 509.434L891.872 440.805L849.988 419.107L854.53 477.138L839.391 522.554L816.683 422.134L809.114 427.685L776.818 440.805L790.947 500.351Z" fill="#2F2E41"/>
</g>
<path id="circle" d="M392.084 653C390.089 652.985 388.07 652.971 386.088 652.91L386.149 650.911C388.111 650.971 390.118 650.998 392.085 651C394.061 651 396.075 650.968 398.072 650.904L398.137 652.902C396.117 652.967 394.082 653 392.084 653ZM374.065 652.156C370.084 651.779 366.063 651.268 362.115 650.638L362.43 648.664C366.337 649.287 370.315 649.792 374.254 650.165L374.065 652.156ZM410.158 652.134L409.967 650.144C413.905 649.767 417.883 649.256 421.789 648.627L422.107 650.602C418.159 651.238 414.138 651.753 410.158 652.134H410.158ZM350.285 648.356C346.387 647.472 342.464 646.449 338.627 645.315L339.194 643.397C342.99 644.519 346.871 645.531 350.728 646.405L350.285 648.356ZM433.934 648.306L433.489 646.357C437.355 645.475 441.234 644.458 445.019 643.334L445.588 645.252C441.763 646.388 437.841 647.415 433.934 648.306H433.934ZM327.189 641.53C323.427 640.148 319.663 638.626 316.002 637.006L316.812 635.178C320.433 636.78 324.156 638.286 327.878 639.653L327.189 641.53ZM457.022 641.452L456.33 639.575C460.029 638.212 463.739 636.707 467.358 635.102L468.17 636.93C464.511 638.553 460.76 640.075 457.022 641.452H457.022ZM305.134 631.772C301.594 629.924 298.059 627.932 294.628 625.852L295.665 624.141C299.06 626.201 302.557 628.17 306.06 629.998L305.134 631.772ZM479.007 631.699L478.081 629.926C481.575 628.099 485.065 626.129 488.45 624.072L489.489 625.781C486.066 627.861 482.54 629.851 479.007 631.699H479.007ZM284.525 619.272C281.247 616.984 277.997 614.557 274.866 612.061L276.113 610.497C279.211 612.967 282.426 615.368 285.67 617.631L284.525 619.272ZM499.575 619.201L498.429 617.562C501.672 615.295 504.883 612.895 507.973 610.427L509.221 611.99C506.098 614.484 502.853 616.91 499.575 619.201V619.201ZM265.688 604.248C262.724 601.557 259.81 598.738 257.028 595.87L258.464 594.477C261.216 597.315 264.1 600.104 267.033 602.767L265.688 604.248ZM518.39 604.178L517.044 602.698C519.97 600.04 522.851 597.249 525.607 594.405L527.043 595.795C524.258 598.671 521.346 601.492 518.39 604.178V604.178ZM248.921 586.959C246.326 583.916 243.795 580.751 241.399 577.552L243 576.353C245.371 579.519 247.874 582.651 250.442 585.661L248.921 586.959ZM535.148 586.876L533.627 585.58C536.194 582.567 538.698 579.431 541.068 576.261L542.67 577.458C540.274 580.663 537.744 583.831 535.148 586.876V586.876ZM234.495 567.685C232.307 564.334 230.201 560.874 228.236 557.401L229.978 556.416C231.921 559.853 234.004 563.277 236.169 566.591L234.495 567.685ZM549.577 567.577L547.901 566.485C550.067 563.163 552.15 559.734 554.095 556.29L555.837 557.272C553.872 560.754 551.766 564.221 549.577 567.577V567.577ZM222.651 546.739C220.911 543.139 219.267 539.44 217.765 535.743L219.618 534.991C221.104 538.647 222.73 542.307 224.452 545.868L222.651 546.739ZM561.424 546.582L559.623 545.713C561.344 542.147 562.971 538.477 564.459 534.803L566.313 535.553C564.809 539.267 563.164 542.978 561.424 546.582V546.582ZM213.59 524.441C212.325 520.642 211.169 516.756 210.155 512.891L212.089 512.383C213.093 516.206 214.236 520.051 215.488 523.808L213.59 524.441ZM570.48 524.229L568.581 523.6C569.825 519.847 570.965 516.001 571.966 512.17L573.901 512.676C572.889 516.549 571.737 520.436 570.48 524.229V524.229ZM207.472 501.147C206.708 497.223 206.061 493.222 205.55 489.254L207.533 488.998C208.039 492.924 208.679 496.882 209.435 500.764L207.472 501.147ZM576.57 500.927L574.607 500.548C575.357 496.667 575.993 492.707 576.494 488.779L578.479 489.033C577.972 493.003 577.329 497.005 576.57 500.927V500.927ZM204.394 477.264C204.137 473.278 204.005 469.226 204 465.221L206 465.219C206.005 469.182 206.136 473.191 206.39 477.135L204.394 477.264ZM579.621 477.04L577.625 476.914C577.874 472.973 578 468.964 578 465L577.999 464.562H579.999L580 464.994C580 469.006 579.872 473.057 579.621 477.04ZM206.362 453.305L204.366 453.182C204.614 449.188 204.993 445.153 205.494 441.188L207.478 441.438C206.982 445.362 206.607 449.354 206.362 453.305ZM577.598 452.649C577.338 448.696 576.948 444.705 576.439 440.787L578.422 440.529C578.937 444.489 579.331 448.522 579.594 452.518L577.598 452.649ZM209.351 429.668L207.387 429.29C208.142 425.365 209.035 421.412 210.042 417.539L211.978 418.042C210.981 421.873 210.098 425.785 209.351 429.668ZM574.523 429.023C573.761 425.138 572.862 421.229 571.855 417.407L573.788 416.897C574.808 420.761 575.715 424.711 576.485 428.639L574.523 429.023ZM215.35 406.61L213.45 405.983C214.706 402.183 216.103 398.371 217.604 394.652L219.459 395.401C217.974 399.08 216.591 402.851 215.35 406.61ZM568.444 405.986C567.189 402.232 565.795 398.472 564.302 394.81L566.153 394.055C567.663 397.757 569.072 401.558 570.341 405.352L568.444 405.986ZM224.283 384.483L222.48 383.616C224.215 380.01 226.091 376.411 228.056 372.921L229.799 373.902C227.855 377.355 226 380.915 224.283 384.483ZM559.455 383.938C557.732 380.387 555.87 376.84 553.917 373.396L555.657 372.41C557.631 375.89 559.514 379.475 561.254 383.066L559.455 383.938ZM235.98 363.699L234.304 362.608C236.485 359.255 238.805 355.928 241.198 352.718L242.802 353.914C240.434 357.089 238.138 360.381 235.98 363.699ZM547.713 363.228C545.549 359.923 543.247 356.641 540.87 353.474L542.47 352.274C544.872 355.475 547.199 358.792 549.387 362.132L547.713 363.228ZM250.232 344.587L248.709 343.292C251.299 340.245 254.022 337.241 256.803 334.364L258.241 335.754C255.49 338.6 252.796 341.572 250.232 344.587ZM533.417 344.175C530.846 341.168 528.143 338.205 525.385 335.367L526.818 333.974C529.606 336.841 532.338 339.836 534.937 342.875L533.417 344.175ZM266.794 327.45L265.448 325.971C268.407 323.275 271.489 320.643 274.607 318.148L275.857 319.709C272.772 322.178 269.723 324.783 266.794 327.45V327.45ZM516.806 327.087C513.873 324.432 510.815 321.835 507.716 319.37L508.962 317.804C512.094 320.297 515.185 322.921 518.147 325.604L516.806 327.087ZM285.393 312.563L284.246 310.926C287.518 308.632 290.909 306.415 294.323 304.335L295.364 306.043C291.986 308.101 288.631 310.295 285.393 312.563ZM498.151 312.245C494.896 309.979 491.53 307.792 488.149 305.746L489.184 304.035C492.602 306.103 496.004 308.313 499.294 310.603L498.151 312.245ZM305.727 300.176L304.798 298.404C308.334 296.55 311.979 294.785 315.629 293.16L316.443 294.987C312.831 296.595 309.226 298.341 305.727 300.176ZM477.747 299.901C474.235 298.073 470.616 296.335 466.989 294.736L467.797 292.906C471.462 294.522 475.121 296.279 478.671 298.127L477.747 299.901ZM327.466 290.5L326.771 288.624C330.521 287.237 334.367 285.954 338.201 284.811L338.772 286.728C334.979 287.858 331.175 289.128 327.466 290.5H327.466ZM455.918 290.273C452.2 288.914 448.392 287.658 444.598 286.541L445.162 284.622C448.997 285.751 452.847 287.02 456.605 288.395L455.918 290.273ZM350.298 283.693L349.852 281.744C353.743 280.852 357.721 280.076 361.675 279.434L361.996 281.408C358.083 282.043 354.147 282.811 350.298 283.693ZM433.061 283.548C429.204 282.679 425.266 281.924 421.355 281.304L421.668 279.328C425.621 279.955 429.602 280.718 433.5 281.597L433.061 283.548ZM373.816 279.877L373.623 277.887C377.593 277.502 381.638 277.239 385.643 277.105L385.709 279.104C381.746 279.236 377.745 279.497 373.816 279.877V279.877ZM409.529 279.815C405.594 279.448 401.591 279.202 397.633 279.084L397.692 277.085C401.693 277.204 405.738 277.453 409.715 277.824L409.529 279.815Z" fill="#D0CDE1"/>
<g id="circle_file">
<path id="Vector_18" d="M385 329C410.957 329 432 307.957 432 282C432 256.043 410.957 235 385 235C359.043 235 338 256.043 338 282C338 307.957 359.043 329 385 329Z" fill="#367BF5"/>
<path id="Vector_19" d="M405.141 278.253H388.747C387.256 278.253 385.827 277.66 384.773 276.606C383.719 275.552 383.126 274.122 383.126 272.632V256.238C383.126 256.176 383.114 256.115 383.091 256.059C383.067 256.002 383.033 255.95 382.989 255.907C382.946 255.863 382.894 255.829 382.837 255.805C382.78 255.782 382.72 255.77 382.658 255.77H371.885C369.897 255.77 367.991 256.559 366.586 257.965C365.18 259.37 364.391 261.276 364.391 263.264V300.735C364.391 302.723 365.18 304.629 366.586 306.035C367.991 307.44 369.897 308.23 371.885 308.23H398.115C400.103 308.23 402.009 307.44 403.414 306.035C404.82 304.629 405.609 302.723 405.609 300.735V278.721C405.609 278.659 405.597 278.598 405.574 278.542C405.55 278.485 405.516 278.433 405.472 278.39C405.429 278.346 405.377 278.312 405.32 278.288C405.263 278.265 405.203 278.252 405.141 278.253V278.253ZM394.368 296.988H375.632C375.135 296.988 374.659 296.791 374.307 296.44C373.956 296.088 373.759 295.612 373.759 295.115C373.759 294.618 373.956 294.141 374.307 293.79C374.659 293.439 375.135 293.241 375.632 293.241H394.368C394.865 293.241 395.341 293.439 395.693 293.79C396.044 294.141 396.241 294.618 396.241 295.115C396.241 295.612 396.044 296.088 395.693 296.44C395.341 296.791 394.865 296.988 394.368 296.988ZM394.368 287.62H375.632C375.135 287.62 374.659 287.423 374.307 287.072C373.956 286.72 373.759 286.244 373.759 285.747C373.759 285.25 373.956 284.773 374.307 284.422C374.659 284.071 375.135 283.873 375.632 283.873H394.368C394.865 283.873 395.341 284.071 395.693 284.422C396.044 284.773 396.241 285.25 396.241 285.747C396.241 286.244 396.044 286.72 395.693 287.072C395.341 287.423 394.865 287.62 394.368 287.62Z" fill="white"/>
<path id="Vector_20" d="M404.113 274.106L387.273 257.266C387.24 257.234 387.198 257.212 387.153 257.203C387.108 257.194 387.061 257.198 387.018 257.216C386.976 257.234 386.939 257.264 386.913 257.302C386.888 257.34 386.874 257.385 386.873 257.431V272.632C386.873 273.129 387.071 273.606 387.422 273.957C387.774 274.308 388.25 274.506 388.747 274.506H403.948C403.994 274.505 404.039 274.492 404.077 274.466C404.116 274.44 404.145 274.404 404.163 274.361C404.181 274.318 404.185 274.271 404.176 274.226C404.167 274.181 404.145 274.139 404.113 274.106L404.113 274.106Z" fill="white"/>
</g>
<g id="circle_hammer">
    <path id="Vector_30" d="M567 457C592.957 457 614 435.957 614 410C614 384.043 592.957 363 567 363C541.043 363 520 384.043 520 410C520 435.957 541.043 457 567 457Z" fill="#367BF5"/>
    <path id="Vector_31" d="M569.251 408.769L566.819 406.335C566.261 405.778 565.506 405.464 564.718 405.462C563.93 405.46 563.173 405.77 562.612 406.324L545.698 421.935C545.077 422.484 544.697 423.256 544.64 424.083C544.622 424.494 544.689 424.904 544.837 425.288C544.984 425.672 545.21 426.021 545.498 426.314L549.132 429.988L549.139 429.995C549.7 430.554 550.46 430.87 551.253 430.872H551.363C551.774 430.849 552.176 430.745 552.546 430.567C552.917 430.388 553.248 430.138 553.522 429.832L569.241 412.994C569.803 412.437 570.12 411.68 570.124 410.889C570.127 410.099 569.816 409.339 569.259 408.777L569.251 408.769Z" fill="white"/>
    <path id="Vector_32" d="M588.804 403.85L588.775 403.821L585.582 400.66C585.395 400.474 585.173 400.326 584.928 400.226C584.684 400.126 584.422 400.075 584.158 400.077C583.73 400.077 583.313 400.212 582.966 400.463C582.966 400.423 582.972 400.384 582.975 400.349C583.104 399.533 582.931 398.698 582.49 397.999C581.787 397.051 581.014 396.156 580.179 395.321L580.172 395.314C577.838 393.074 575.094 391.304 572.092 390.101C570.522 389.457 568.842 389.126 567.146 389.127C564.95 389.108 562.816 389.855 561.112 391.241C560.627 391.704 560.185 392.21 559.791 392.752C559.603 393.012 559.503 393.326 559.507 393.647C559.512 393.968 559.62 394.279 559.815 394.534C560.01 394.788 560.282 394.973 560.591 395.061C560.9 395.149 561.229 395.134 561.529 395.02C561.79 394.922 562.057 394.841 562.328 394.775C562.893 394.656 563.472 394.62 564.047 394.668C565.24 394.792 566.383 395.212 567.373 395.888C567.928 396.355 568.37 396.943 568.664 397.606C568.959 398.269 569.099 398.991 569.074 399.716C568.661 400.895 568.028 401.985 567.211 402.929C566.993 403.216 566.886 403.573 566.911 403.933C566.936 404.293 567.09 404.631 567.346 404.886L570.552 408.092C570.822 408.362 571.184 408.519 571.566 408.53C571.947 408.54 572.318 408.404 572.602 408.15C573.509 407.34 574.89 406.12 575.372 405.82C575.785 405.544 576.252 405.36 576.742 405.28C577.107 405.244 577.474 405.322 577.794 405.502C577.796 405.518 577.794 405.534 577.789 405.549C577.784 405.564 577.776 405.578 577.765 405.59L577.596 405.752L577.568 405.778C577.191 406.153 576.979 406.663 576.978 407.194C576.977 407.726 577.187 408.237 577.562 408.613L577.572 408.623L580.765 411.783C580.952 411.969 581.174 412.117 581.418 412.217C581.663 412.317 581.924 412.367 582.188 412.365C582.718 412.366 583.228 412.159 583.607 411.788L588.778 406.68C588.796 406.662 588.813 406.643 588.83 406.625C589.177 406.244 589.367 405.747 589.362 405.232C589.358 404.717 589.158 404.224 588.804 403.85Z" fill="white"/>
</g>
<g id="circle_rocket">
<path id="Vector_21" d="M510 653C535.957 653 557 631.957 557 606C557 580.043 535.957 559 510 559C484.043 559 463 580.043 463 606C463 631.957 484.043 653 510 653Z" fill="#367BF5"/>
<path id="Vector_22" d="M516.798 596.741C516.222 596.742 515.663 596.942 515.218 597.307C514.773 597.673 514.468 598.182 514.356 598.747C514.244 599.313 514.331 599.899 514.603 600.407C514.875 600.915 515.315 601.313 515.847 601.534C516.38 601.754 516.972 601.783 517.523 601.615C518.075 601.448 518.551 601.094 518.871 600.615C519.191 600.136 519.335 599.56 519.278 598.987C519.221 598.413 518.968 597.877 518.56 597.47C518.328 597.239 518.054 597.055 517.752 596.93C517.449 596.805 517.125 596.741 516.798 596.741Z" fill="white"/>
<path id="Vector_23" d="M530.665 586.781V586.773C530.586 586.427 530.412 586.11 530.163 585.857C529.913 585.605 529.598 585.428 529.253 585.345C526.472 584.666 522.097 585.39 517.249 587.331C512.587 589.143 508.321 591.844 504.69 595.284C503.698 596.27 502.776 597.325 501.932 598.441C500.067 598.312 498.197 598.612 496.466 599.319C491.077 601.69 489.538 607.759 489.129 610.251C489.069 610.605 489.093 610.968 489.197 611.311C489.3 611.655 489.482 611.97 489.728 612.232C489.973 612.494 490.276 612.695 490.612 612.821C490.948 612.947 491.309 612.994 491.666 612.957H491.678L497.681 612.302C497.688 612.379 497.697 612.449 497.703 612.513C497.78 613.244 498.107 613.927 498.627 614.447L501.557 617.378C502.075 617.899 502.758 618.226 503.489 618.303L503.69 618.324L503.037 624.319V624.332C503.005 624.636 503.034 624.944 503.122 625.238C503.209 625.532 503.354 625.805 503.547 626.043C503.74 626.281 503.978 626.478 504.248 626.624C504.517 626.769 504.813 626.861 505.117 626.892C505.189 626.9 505.261 626.904 505.333 626.904C505.463 626.905 505.593 626.894 505.721 626.873C508.226 626.47 514.292 624.949 516.657 619.532C517.358 617.807 517.66 615.945 517.539 614.087C518.66 613.245 519.719 612.323 520.708 611.33C524.145 607.732 526.849 603.5 528.669 598.869C530.6 594.076 531.327 589.668 530.665 586.781ZM520.674 603.101C519.907 603.869 518.93 604.392 517.867 604.604C516.803 604.816 515.7 604.708 514.697 604.293C513.695 603.879 512.838 603.176 512.235 602.275C511.632 601.373 511.31 600.313 511.309 599.228C511.309 598.143 511.63 597.083 512.232 596.18C512.834 595.278 513.69 594.575 514.692 594.159C515.694 593.744 516.797 593.634 517.861 593.845C518.925 594.056 519.902 594.578 520.67 595.345L520.674 595.349C521.702 596.362 522.286 597.741 522.297 599.184C522.307 600.627 521.745 602.015 520.732 603.043L520.674 603.101Z" fill="white"/>
<path id="Vector_24" d="M501.221 618.173C500.86 618.128 500.495 618.217 500.194 618.422C499.598 618.83 498.999 619.233 498.394 619.626C498.131 619.795 497.82 619.871 497.509 619.841C497.198 619.812 496.906 619.679 496.68 619.463C496.454 619.248 496.307 618.963 496.262 618.654C496.218 618.345 496.278 618.03 496.434 617.76L497.568 615.8C497.73 615.563 497.82 615.284 497.828 614.997C497.836 614.709 497.76 614.426 497.611 614.181C497.462 613.936 497.245 613.738 496.986 613.613C496.728 613.488 496.438 613.44 496.153 613.475C494.895 613.634 493.725 614.207 492.828 615.105C492.487 615.447 491.448 616.487 490.889 620.448C490.73 621.586 490.63 622.731 490.588 623.88C490.583 624.076 490.617 624.271 490.687 624.454C490.758 624.637 490.864 624.804 490.999 624.946C491.134 625.089 491.295 625.203 491.475 625.282C491.654 625.362 491.847 625.406 492.043 625.411C492.056 625.411 492.069 625.411 492.082 625.411H492.119C493.268 625.37 494.414 625.271 495.553 625.113C499.517 624.553 500.556 623.513 500.898 623.171C501.799 622.274 502.371 621.099 502.521 619.836C502.569 619.443 502.459 619.047 502.215 618.735C501.971 618.424 501.614 618.221 501.221 618.173V618.173Z" fill="white"/>
</g>
<g id="circle_stats">
<path id="Vector_25" d="M284 661C309.957 661 331 639.957 331 614C331 588.043 309.957 567 284 567C258.043 567 237 588.043 237 614C237 639.957 258.043 661 284 661Z" fill="#367BF5"/>
<path id="Vector_26" d="M267.825 639.54H264.419C263.742 639.54 263.092 639.271 262.613 638.792C262.134 638.313 261.865 637.664 261.865 636.986V621.662C261.865 620.985 262.134 620.335 262.613 619.856C263.092 619.377 263.742 619.108 264.419 619.108H267.825C268.502 619.108 269.152 619.377 269.63 619.856C270.109 620.335 270.379 620.985 270.379 621.662V636.986C270.379 637.664 270.109 638.313 269.63 638.792C269.152 639.271 268.502 639.54 267.825 639.54V639.54Z" fill="white"/>
<path id="Vector_27" d="M291.662 639.539H288.257C287.579 639.539 286.93 639.27 286.451 638.791C285.972 638.312 285.703 637.663 285.703 636.985V611.446C285.703 610.768 285.972 610.119 286.451 609.64C286.93 609.161 287.579 608.892 288.257 608.892H291.662C292.339 608.892 292.989 609.161 293.468 609.64C293.947 610.119 294.216 610.768 294.216 611.446V636.985C294.216 637.663 293.947 638.312 293.468 638.791C292.989 639.27 292.339 639.539 291.662 639.539V639.539Z" fill="white"/>
<path id="Vector_28" d="M303.58 639.54H300.175C299.498 639.54 298.848 639.271 298.369 638.792C297.89 638.313 297.621 637.663 297.621 636.986V599.528C297.621 598.85 297.89 598.201 298.369 597.722C298.848 597.243 299.498 596.974 300.175 596.974H303.58C304.258 596.974 304.907 597.243 305.386 597.722C305.865 598.201 306.134 598.85 306.134 599.528V636.986C306.134 637.663 305.865 638.313 305.386 638.792C304.907 639.271 304.258 639.54 303.58 639.54V639.54Z" fill="white"/>
<path id="Vector_29" d="M279.743 639.54H276.338C275.661 639.54 275.011 639.27 274.532 638.792C274.053 638.313 273.784 637.663 273.784 636.986V591.014C273.784 590.336 274.053 589.687 274.532 589.208C275.011 588.729 275.661 588.46 276.338 588.46H279.743C280.421 588.46 281.07 588.729 281.549 589.208C282.028 589.687 282.297 590.336 282.297 591.014V636.986C282.297 637.321 282.231 637.653 282.103 637.963C281.975 638.273 281.787 638.554 281.549 638.792C281.312 639.029 281.031 639.217 280.721 639.345C280.411 639.474 280.079 639.54 279.743 639.54V639.54Z" fill="white"/>
</g>
<g id="circle_reverse">
<path id="Vector_33" d="M216 457C241.957 457 263 435.957 263 410C263 384.043 241.957 363 216 363C190.043 363 169 384.043 169 410C169 435.957 190.043 457 216 457Z" fill="#367BF5"/>
<path id="Vector_34" d="M193.613 412.799C193.368 412.799 193.126 412.751 192.899 412.657C192.673 412.563 192.467 412.426 192.294 412.252C192.121 412.079 191.983 411.874 191.89 411.647C191.796 411.421 191.748 411.178 191.748 410.933V409.068C191.762 406.104 192.945 403.267 195.04 401.171C197.135 399.075 199.972 397.89 202.936 397.874H227.194C227.689 397.874 228.163 398.071 228.513 398.421C228.863 398.77 229.059 399.245 229.059 399.74C229.059 400.234 228.863 400.709 228.513 401.059C228.163 401.409 227.689 401.605 227.194 401.605H202.941C200.965 401.617 199.073 402.408 197.675 403.806C196.278 405.204 195.489 407.097 195.479 409.073V410.933C195.479 411.178 195.431 411.421 195.337 411.647C195.243 411.873 195.106 412.079 194.932 412.252C194.759 412.426 194.553 412.563 194.327 412.657C194.101 412.751 193.858 412.799 193.613 412.799V412.799Z" fill="white"/>
<path id="Vector_35" d="M208.538 427.723C208.293 427.724 208.05 427.676 207.823 427.582C207.597 427.488 207.391 427.35 207.218 427.177L201.622 421.58C201.448 421.407 201.311 421.201 201.217 420.975C201.123 420.749 201.075 420.506 201.075 420.261C201.075 420.016 201.123 419.773 201.217 419.547C201.311 419.321 201.448 419.115 201.622 418.942L207.218 413.345C207.568 412.996 208.043 412.8 208.537 412.8C209.032 412.8 209.506 412.997 209.855 413.346C210.205 413.696 210.402 414.17 210.402 414.665C210.402 415.159 210.206 415.633 209.857 415.983L205.579 420.261L209.857 424.539C210.118 424.8 210.295 425.132 210.367 425.494C210.439 425.856 210.402 426.231 210.261 426.572C210.12 426.913 209.881 427.204 209.574 427.409C209.267 427.614 208.907 427.723 208.538 427.723Z" fill="white"/>
<path id="Vector_36" d="M223.462 407.202C223.093 407.202 222.733 407.093 222.426 406.888C222.119 406.683 221.88 406.391 221.739 406.05C221.598 405.71 221.561 405.335 221.633 404.973C221.705 404.611 221.882 404.278 222.143 404.017L226.421 399.74L222.143 395.462C221.793 395.112 221.597 394.638 221.597 394.143C221.597 393.648 221.793 393.174 222.143 392.824C222.493 392.474 222.967 392.277 223.462 392.277C223.957 392.277 224.432 392.474 224.781 392.824L230.378 398.421C230.551 398.594 230.689 398.8 230.783 399.026C230.876 399.252 230.925 399.495 230.925 399.74C230.925 399.985 230.876 400.227 230.783 400.454C230.689 400.68 230.551 400.886 230.378 401.059L224.781 406.656C224.608 406.829 224.403 406.967 224.176 407.061C223.95 407.154 223.707 407.202 223.462 407.202Z" fill="white"/>
<path id="Vector_37" d="M204.806 422.126C204.312 422.126 203.837 421.929 203.487 421.58C203.137 421.23 202.941 420.755 202.941 420.26C202.941 419.766 203.137 419.291 203.487 418.941C203.837 418.591 204.312 418.395 204.806 418.395H229.059C231.036 418.383 232.928 417.592 234.325 416.194C235.722 414.796 236.511 412.903 236.521 410.927V409.067C236.521 408.572 236.718 408.098 237.068 407.748C237.418 407.398 237.892 407.201 238.387 407.201C238.882 407.201 239.356 407.398 239.706 407.748C240.056 408.098 240.253 408.572 240.253 409.067V410.932C240.238 413.896 239.055 416.733 236.96 418.829C234.865 420.925 232.028 422.11 229.065 422.126L204.806 422.126Z" fill="white"/>
</g>
</g>
</svg>
