<svg width="828" height="680" viewBox="0 0 828 680" fill="none" xmlns="http://www.w3.org/2000/svg">
<g id="hero">
<g id="man">
<path id="Vector" d="M783.84 624.863C784.066 648.568 634.686 650.741 631.841 624.864C631.614 601.16 780.995 598.988 783.84 624.863Z" fill="#E6E6E6"/>
<path id="Vector_2" d="M666.966 542.569L655.864 548.624L662.929 571.837L674.03 572.846L680.086 559.726L666.966 542.569Z" fill="#9F616A"/>
<path id="Vector_3" d="M701.28 588.994V600.095L718.437 599.086L718.198 589.943L701.28 588.994Z" fill="#9F616A"/>
<path id="Vector_4" d="M662.929 409.348L668.984 485.042L688.16 596.058L718.437 592.021L708.345 504.217L712.382 423.478L662.929 409.348Z" fill="#2F2E41"/>
<path id="Vector_5" d="M743.668 352.831L671.003 353.84L662.929 409.349L712.382 432.561L724.493 476.968L662.929 542.569L687.151 572.846C687.151 572.846 721.465 526.421 746.696 500.181C771.927 473.94 759.816 394.21 759.816 394.21L743.668 352.831Z" fill="#2F2E41"/>
<path id="Vector_6" d="M700.271 209.518C712.533 209.518 722.474 199.577 722.474 187.315C722.474 175.052 712.533 165.111 700.271 165.111C688.008 165.111 678.067 175.052 678.067 187.315C678.067 199.577 688.008 209.518 700.271 209.518Z" fill="#9F616A"/>
<path id="Vector_7" d="M692.197 202.454V224.657L707.335 248.879C707.335 248.879 730.548 231.722 725.502 227.685C720.456 223.648 719.446 192.361 719.446 192.361L692.197 202.454Z" fill="#9F616A"/>
<path id="Vector_8" d="M692.197 220.62L677.058 238.786L683.114 364.941L730.548 363.932L738.622 253.925L728.53 225.666L721.607 216.247L709.354 234.749L692.197 220.62Z" fill="#D0CDE1"/>
<path id="Vector_9" d="M667.975 286.221L656.873 328.609L667.975 370.997L649.809 395.219L633.661 318.517C633.661 318.517 645.772 255.943 646.781 248.879C647.79 241.814 649.809 240.805 649.809 240.805L657.883 241.814L667.975 286.221Z" fill="#2F2E41"/>
<path id="Vector_10" d="M748.714 302.368L755.779 315.489L757.798 337.692L753.761 362.923L767.89 386.136L782.019 322.553L766.881 240.804H760.825L748.714 302.368Z" fill="#2F2E41"/>
<path id="Vector_11" d="M662.929 541.56C662.929 541.56 648.799 545.597 643.753 546.606C638.707 547.615 646.781 566.791 646.781 566.791C646.781 566.791 651.827 593.031 652.836 598.077C653.845 603.123 660.91 620.281 669.993 622.299C679.077 624.318 673.021 586.976 673.021 586.976C673.021 586.976 677.058 574.865 677.058 570.828C677.058 566.791 671.003 568.809 671.003 568.809C654.855 566.791 662.929 541.56 662.929 541.56Z" fill="#2F2E41"/>
<path id="Vector_12" d="M696.234 619.271C697.243 625.326 695.225 625.327 711.373 627.345C727.521 629.364 723.484 616.243 723.484 616.243C722.809 610.058 721.455 603.966 719.447 598.077C716.419 590.003 700.271 600.096 700.271 600.096C700.271 600.096 695.225 613.216 696.234 619.271Z" fill="#2F2E41"/>
<path id="Vector_13" d="M719.473 193.066L719.999 202.042C719.999 202.042 726.511 187.315 727.52 172.176C728.529 157.038 711.372 154.01 701.28 153.001C691.187 151.991 674.03 159.056 674.03 167.13C674.03 175.204 692.197 173.186 699.261 171.167C706.326 169.149 709.354 186.306 709.354 186.306L713.391 187.315L719.473 193.066Z" fill="#2F2E41"/>
<path id="Vector_14" d="M686.24 227.767L692.197 220.62L709.354 234.749L692.197 246.86L686.24 227.767Z" fill="#D0CDE1"/>
<path id="Vector_15" d="M728.53 225.666L721.465 216.583L709.354 234.749L724.493 245.851L728.53 225.666Z" fill="#D0CDE1"/>
<path id="Vector_16" d="M664.947 300.351L668.984 338.702L660.91 361.915L655.864 384.118C655.864 384.118 655.864 405.312 676.049 406.321C696.234 407.33 713.391 342.739 713.391 342.739C713.391 342.739 716.419 356.868 718.437 364.942C720.456 373.016 754.77 405.312 754.77 405.312C754.77 405.312 762.844 404.303 769.909 388.155C776.973 372.007 755.779 356.868 755.779 356.868L749.724 335.674L751.742 309.434L765.872 240.805L723.988 219.106L728.53 277.138L713.391 322.554L690.683 222.134L683.114 227.685L650.818 240.805L664.947 300.351Z" fill="#2F2E41"/>
</g>
<path id="circle" d="M266.084 453C264.089 452.985 262.07 452.971 260.088 452.91L260.149 450.911C262.111 450.971 264.118 450.998 266.085 451C268.061 451 270.075 450.968 272.072 450.904L272.137 452.902C270.117 452.967 268.082 453 266.084 453ZM248.065 452.156C244.084 451.779 240.063 451.268 236.115 450.638L236.43 448.664C240.337 449.287 244.315 449.792 248.254 450.165L248.065 452.156ZM284.158 452.134L283.967 450.144C287.905 449.767 291.883 449.256 295.789 448.627L296.107 450.602C292.159 451.238 288.138 451.753 284.158 452.134H284.158ZM224.285 448.356C220.387 447.472 216.464 446.449 212.627 445.315L213.194 443.397C216.99 444.519 220.871 445.531 224.728 446.405L224.285 448.356ZM307.934 448.306L307.489 446.357C311.355 445.475 315.234 444.458 319.019 443.334L319.588 445.252C315.763 446.388 311.841 447.415 307.934 448.306H307.934ZM201.189 441.53C197.427 440.148 193.663 438.626 190.002 437.006L190.812 435.178C194.433 436.78 198.156 438.286 201.878 439.653L201.189 441.53ZM331.022 441.452L330.33 439.575C334.029 438.212 337.739 436.707 341.358 435.102L342.17 436.93C338.511 438.553 334.76 440.075 331.022 441.452H331.022ZM179.134 431.772C175.594 429.924 172.059 427.932 168.628 425.852L169.665 424.141C173.06 426.201 176.557 428.17 180.06 429.998L179.134 431.772ZM353.007 431.699L352.081 429.926C355.575 428.099 359.065 426.129 362.45 424.072L363.489 425.781C360.066 427.861 356.54 429.851 353.007 431.699H353.007ZM158.525 419.272C155.247 416.984 151.997 414.557 148.866 412.061L150.113 410.497C153.211 412.967 156.426 415.368 159.67 417.631L158.525 419.272ZM373.575 419.201L372.429 417.562C375.672 415.295 378.883 412.895 381.973 410.427L383.221 411.99C380.098 414.484 376.853 416.91 373.575 419.201V419.201ZM139.688 404.248C136.724 401.557 133.81 398.738 131.028 395.87L132.464 394.477C135.216 397.315 138.1 400.104 141.033 402.767L139.688 404.248ZM392.39 404.178L391.044 402.698C393.97 400.04 396.851 397.249 399.607 394.405L401.043 395.795C398.258 398.671 395.346 401.492 392.39 404.178V404.178ZM122.921 386.959C120.326 383.916 117.795 380.751 115.399 377.552L117 376.353C119.371 379.519 121.874 382.651 124.442 385.661L122.921 386.959ZM409.148 386.876L407.627 385.58C410.194 382.567 412.698 379.431 415.068 376.261L416.67 377.458C414.274 380.663 411.744 383.831 409.148 386.876V386.876ZM108.495 367.685C106.307 364.334 104.201 360.874 102.236 357.401L103.978 356.416C105.921 359.853 108.004 363.277 110.169 366.591L108.495 367.685ZM423.577 367.577L421.901 366.485C424.067 363.163 426.15 359.734 428.095 356.29L429.837 357.272C427.872 360.754 425.766 364.221 423.577 367.577V367.577ZM96.6514 346.739C94.9111 343.139 93.2671 339.44 91.7651 335.743L93.6177 334.991C95.104 338.647 96.7305 342.307 98.4522 345.868L96.6514 346.739ZM435.424 346.582L433.623 345.713C435.344 342.147 436.971 338.477 438.459 334.803L440.313 335.553C438.809 339.267 437.164 342.978 435.424 346.582V346.582ZM87.5903 324.441C86.3252 320.642 85.1694 316.756 84.1548 312.891L86.0894 312.383C87.0928 316.206 88.2364 320.051 89.4878 323.808L87.5903 324.441ZM444.48 324.229L442.581 323.6C443.825 319.847 444.965 316.001 445.966 312.17L447.901 312.676C446.889 316.549 445.737 320.436 444.48 324.229V324.229ZM81.4717 301.147C80.7075 297.223 80.061 293.222 79.5498 289.254L81.5332 288.998C82.0391 292.924 82.6787 296.882 83.4346 300.764L81.4717 301.147ZM450.57 300.927L448.607 300.548C449.357 296.667 449.993 292.707 450.494 288.779L452.479 289.033C451.972 293.003 451.329 297.005 450.57 300.927V300.927ZM78.3936 277.264C78.1372 273.278 78.0049 269.226 78.0005 265.221L80.0005 265.219C80.0049 269.182 80.1357 273.191 80.3896 277.135L78.3936 277.264ZM453.621 277.04L451.625 276.914C451.874 272.973 452 268.964 452 265L451.999 264.562H453.999L454 264.994C454 269.006 453.872 273.057 453.621 277.04ZM80.3618 253.305L78.3657 253.182C78.6137 249.188 78.9932 245.153 79.4937 241.188L81.478 241.438C80.9824 245.362 80.6069 249.354 80.3618 253.305ZM451.598 252.649C451.338 248.696 450.948 244.705 450.439 240.787L452.422 240.529C452.937 244.489 453.331 248.522 453.594 252.518L451.598 252.649ZM83.3511 229.668L81.3872 229.29C82.1416 225.365 83.0352 221.412 84.042 217.539L85.9776 218.042C84.9815 221.873 84.0977 225.785 83.3511 229.668ZM448.523 229.023C447.761 225.138 446.862 221.229 445.855 217.407L447.788 216.897C448.808 220.761 449.715 224.711 450.485 228.639L448.523 229.023ZM89.3496 206.61L87.4502 205.983C88.7056 202.183 90.103 198.371 91.6045 194.652L93.459 195.401C91.9736 199.08 90.5913 202.851 89.3496 206.61ZM442.444 205.986C441.189 202.232 439.795 198.472 438.302 194.81L440.153 194.055C441.663 197.757 443.072 201.558 444.341 205.352L442.444 205.986ZM98.2832 184.483L96.4805 183.616C98.2153 180.01 100.091 176.411 102.056 172.921L103.799 173.902C101.855 177.355 99.9995 180.915 98.2832 184.483ZM433.455 183.938C431.732 180.387 429.87 176.84 427.917 173.396L429.657 172.41C431.631 175.89 433.514 179.475 435.254 183.066L433.455 183.938ZM109.98 163.699L108.304 162.608C110.485 159.255 112.805 155.928 115.198 152.718L116.802 153.914C114.434 157.089 112.138 160.381 109.98 163.699ZM421.713 163.228C419.549 159.923 417.247 156.641 414.87 153.474L416.47 152.274C418.872 155.475 421.199 158.792 423.387 162.132L421.713 163.228ZM124.232 144.587L122.709 143.292C125.299 140.245 128.022 137.241 130.803 134.364L132.241 135.754C129.49 138.6 126.796 141.572 124.232 144.587ZM407.417 144.175C404.846 141.168 402.143 138.205 399.385 135.367L400.818 133.974C403.606 136.841 406.338 139.836 408.937 142.875L407.417 144.175ZM140.794 127.45L139.448 125.971C142.407 123.275 145.489 120.643 148.607 118.148L149.857 119.709C146.772 122.178 143.723 124.783 140.794 127.45V127.45ZM390.806 127.087C387.873 124.432 384.815 121.835 381.716 119.37L382.962 117.804C386.094 120.297 389.185 122.921 392.147 125.604L390.806 127.087ZM159.393 112.563L158.246 110.926C161.518 108.632 164.909 106.415 168.323 104.335L169.364 106.043C165.986 108.101 162.631 110.295 159.393 112.563ZM372.151 112.245C368.896 109.979 365.53 107.792 362.149 105.746L363.184 104.035C366.602 106.103 370.004 108.313 373.294 110.603L372.151 112.245ZM179.727 100.176L178.798 98.4042C182.334 96.5498 185.979 94.7851 189.629 93.1596L190.443 94.9868C186.831 96.5947 183.226 98.3408 179.727 100.176ZM351.747 99.9013C348.235 98.0732 344.616 96.3354 340.989 94.7358L341.797 92.9057C345.462 94.5224 349.121 96.2792 352.671 98.1269L351.747 99.9013ZM201.466 90.5004L200.771 88.6244C204.521 87.2372 208.367 85.954 212.201 84.811L212.772 86.728C208.979 87.8583 205.175 89.1279 201.466 90.5004H201.466ZM329.918 90.2734C326.2 88.9135 322.392 87.6577 318.598 86.5415L319.162 84.6225C322.997 85.7509 326.847 87.0205 330.605 88.3955L329.918 90.2734ZM224.298 83.6933L223.852 81.7441C227.743 80.8525 231.721 80.0756 235.675 79.4335L235.996 81.4082C232.083 82.0429 228.147 82.8115 224.298 83.6933ZM307.061 83.5478C303.204 82.6787 299.266 81.9238 295.355 81.3037L295.668 79.3281C299.621 79.955 303.602 80.7182 307.5 81.5966L307.061 83.5478ZM247.816 79.8774L247.623 77.8872C251.593 77.5019 255.638 77.2387 259.643 77.1054L259.709 79.1044C255.746 79.2363 251.745 79.4965 247.816 79.8774V79.8774ZM283.529 79.8154C279.594 79.4477 275.591 79.2016 271.633 79.084L271.692 77.085C275.693 77.2041 279.738 77.4526 283.715 77.8242L283.529 79.8154Z" fill="#D0CDE1"/>
<g id="circle_file">
<path id="Vector_17" d="M259 129C284.957 129 306 107.957 306 82C306 56.0426 284.957 35 259 35C233.043 35 212 56.0426 212 82C212 107.957 233.043 129 259 129Z" fill="#367BF5"/>
<path id="Vector_18" d="M279.141 78.2525H262.747C261.256 78.2525 259.827 77.6603 258.773 76.6062C257.719 75.5521 257.126 74.1225 257.126 72.6318V56.2379C257.126 56.1764 257.114 56.1155 257.091 56.0587C257.067 56.0018 257.033 55.9502 256.989 55.9067C256.946 55.8632 256.894 55.8287 256.837 55.8052C256.78 55.7816 256.72 55.7695 256.658 55.7695H245.885C243.897 55.7695 241.991 56.5591 240.586 57.9646C239.18 59.37 238.391 61.2762 238.391 63.2638V100.735C238.391 102.723 239.18 104.629 240.586 106.035C241.991 107.44 243.897 108.23 245.885 108.23H272.115C274.103 108.23 276.009 107.44 277.414 106.035C278.82 104.629 279.609 102.723 279.609 100.735V78.7209C279.609 78.6594 279.597 78.5984 279.574 78.5416C279.55 78.4848 279.516 78.4332 279.472 78.3897C279.429 78.3462 279.377 78.3117 279.32 78.2881C279.263 78.2646 279.203 78.2525 279.141 78.2525V78.2525ZM268.368 96.9883H249.632C249.135 96.9883 248.659 96.7909 248.307 96.4395C247.956 96.0881 247.759 95.6116 247.759 95.1147C247.759 94.6178 247.956 94.1412 248.307 93.7899C248.659 93.4385 249.135 93.2411 249.632 93.2411H268.368C268.865 93.2411 269.341 93.4385 269.693 93.7899C270.044 94.1412 270.241 94.6178 270.241 95.1147C270.241 95.6116 270.044 96.0881 269.693 96.4395C269.341 96.7909 268.865 96.9883 268.368 96.9883ZM268.368 87.6204H249.632C249.135 87.6204 248.659 87.423 248.307 87.0716C247.956 86.7202 247.759 86.2437 247.759 85.7468C247.759 85.2499 247.956 84.7733 248.307 84.422C248.659 84.0706 249.135 83.8732 249.632 83.8732H268.368C268.865 83.8732 269.341 84.0706 269.693 84.422C270.044 84.7733 270.241 85.2499 270.241 85.7468C270.241 86.2437 270.044 86.7202 269.693 87.0716C269.341 87.423 268.865 87.6204 268.368 87.6204Z" fill="white"/>
<path id="Vector_19" d="M278.113 74.1063L261.273 57.2663C261.24 57.2338 261.198 57.2116 261.153 57.2027C261.108 57.1937 261.061 57.1984 261.018 57.216C260.976 57.2337 260.939 57.2635 260.913 57.3019C260.888 57.3402 260.874 57.3853 260.874 57.4315V72.632C260.874 73.1289 261.071 73.6055 261.422 73.9568C261.774 74.3082 262.25 74.5056 262.747 74.5056H277.948C277.994 74.5054 278.039 74.4916 278.077 74.4658C278.116 74.4401 278.146 74.4036 278.163 74.3609C278.181 74.3182 278.185 74.2713 278.176 74.226C278.168 74.1807 278.145 74.1391 278.113 74.1063L278.113 74.1063Z" fill="white"/>
</g>
<g id="circle_hammer">
<path id="Vector_29" d="M441 257C466.957 257 488 235.957 488 210C488 184.043 466.957 163 441 163C415.043 163 394 184.043 394 210C394 235.957 415.043 257 441 257Z" fill="#367BF5"/>
<path id="Vector_30" d="M443.252 208.769L440.819 206.335C440.261 205.778 439.506 205.464 438.718 205.462C437.93 205.46 437.173 205.77 436.612 206.324L419.698 221.935C419.077 222.484 418.697 223.256 418.64 224.083C418.622 224.494 418.689 224.904 418.837 225.288C418.984 225.672 419.21 226.021 419.498 226.314L423.132 229.988L423.139 229.995C423.7 230.554 424.46 230.87 425.253 230.872H425.363C425.774 230.849 426.176 230.745 426.546 230.567C426.917 230.388 427.248 230.138 427.522 229.832L443.241 212.994C443.803 212.437 444.12 211.68 444.124 210.889C444.127 210.099 443.816 209.339 443.259 208.777L443.252 208.769Z" fill="white"/>
<path id="Vector_31" d="M462.804 203.85L462.775 203.821L459.582 200.66C459.395 200.474 459.173 200.326 458.928 200.226C458.684 200.126 458.422 200.075 458.158 200.077C457.73 200.077 457.313 200.212 456.966 200.463C456.966 200.423 456.972 200.383 456.975 200.349C457.104 199.533 456.931 198.698 456.49 197.999C455.787 197.051 455.014 196.156 454.179 195.321L454.172 195.313C451.838 193.074 449.094 191.304 446.092 190.101C444.522 189.457 442.842 189.126 441.146 189.127C438.95 189.107 436.816 189.855 435.112 191.241C434.627 191.704 434.185 192.21 433.791 192.752C433.603 193.012 433.503 193.326 433.507 193.647C433.512 193.968 433.62 194.279 433.815 194.533C434.01 194.788 434.282 194.973 434.591 195.061C434.9 195.149 435.229 195.134 435.529 195.02C435.79 194.922 436.057 194.84 436.328 194.775C436.893 194.656 437.472 194.619 438.047 194.668C439.24 194.792 440.383 195.211 441.373 195.887C441.928 196.355 442.37 196.943 442.664 197.606C442.959 198.269 443.099 198.991 443.074 199.716C442.661 200.895 442.028 201.985 441.211 202.929C440.993 203.216 440.886 203.573 440.911 203.933C440.936 204.293 441.09 204.631 441.346 204.886L444.552 208.092C444.822 208.362 445.184 208.519 445.566 208.529C445.947 208.54 446.318 208.404 446.602 208.15C447.509 207.34 448.89 206.119 449.372 205.82C449.785 205.544 450.252 205.36 450.742 205.28C451.107 205.244 451.474 205.322 451.794 205.502C451.796 205.518 451.794 205.534 451.789 205.549C451.784 205.564 451.776 205.578 451.765 205.59L451.596 205.751L451.568 205.777C451.191 206.153 450.979 206.662 450.978 207.194C450.977 207.726 451.187 208.237 451.562 208.613L451.572 208.623L454.765 211.783C454.952 211.969 455.174 212.117 455.418 212.217C455.663 212.316 455.924 212.367 456.188 212.365C456.718 212.366 457.228 212.159 457.607 211.788L462.778 206.679C462.796 206.662 462.813 206.643 462.83 206.624C463.177 206.244 463.367 205.747 463.362 205.232C463.358 204.717 463.158 204.223 462.804 203.85Z" fill="white"/>
</g>
<g id="circle_rocket">
<path id="Vector_20" d="M384 453C409.957 453 431 431.957 431 406C431 380.043 409.957 359 384 359C358.043 359 337 380.043 337 406C337 431.957 358.043 453 384 453Z" fill="#367BF5"/>
<path id="Vector_21" d="M390.798 396.741C390.222 396.742 389.663 396.942 389.218 397.307C388.773 397.673 388.468 398.182 388.356 398.747C388.244 399.313 388.331 399.899 388.603 400.407C388.875 400.915 389.315 401.313 389.847 401.534C390.38 401.754 390.972 401.783 391.523 401.615C392.075 401.448 392.551 401.094 392.871 400.615C393.191 400.136 393.335 399.56 393.278 398.987C393.221 398.413 392.968 397.877 392.56 397.47C392.328 397.239 392.054 397.055 391.752 396.93C391.449 396.805 391.125 396.741 390.798 396.741Z" fill="white"/>
<path id="Vector_22" d="M404.665 386.781V386.773C404.586 386.427 404.412 386.11 404.163 385.857C403.913 385.605 403.598 385.427 403.253 385.345C400.472 384.666 396.097 385.389 391.249 387.331C386.587 389.143 382.321 391.844 378.69 395.284C377.698 396.27 376.776 397.325 375.932 398.441C374.067 398.312 372.197 398.612 370.466 399.319C365.077 401.69 363.538 407.759 363.129 410.251C363.069 410.605 363.093 410.968 363.197 411.311C363.3 411.655 363.482 411.97 363.728 412.232C363.973 412.494 364.276 412.695 364.612 412.821C364.948 412.947 365.309 412.994 365.666 412.957H365.678L371.681 412.302C371.688 412.379 371.697 412.449 371.703 412.513C371.78 413.244 372.107 413.927 372.627 414.447L375.557 417.378C376.075 417.899 376.758 418.226 377.489 418.303L377.69 418.324L377.037 424.319V424.331C377.005 424.636 377.034 424.944 377.122 425.238C377.209 425.531 377.354 425.805 377.547 426.043C377.74 426.28 377.978 426.478 378.248 426.624C378.517 426.769 378.813 426.861 379.117 426.892C379.189 426.899 379.261 426.904 379.333 426.904C379.463 426.904 379.593 426.894 379.721 426.873C382.226 426.469 388.292 424.949 390.657 419.532C391.358 417.807 391.66 415.945 391.539 414.087C392.66 413.245 393.719 412.323 394.708 411.33C398.145 407.732 400.849 403.5 402.669 398.869C404.6 394.076 405.327 389.668 404.665 386.781ZM394.674 403.101C393.907 403.869 392.93 404.392 391.867 404.604C390.803 404.816 389.7 404.708 388.697 404.293C387.695 403.879 386.838 403.176 386.235 402.275C385.632 401.373 385.31 400.313 385.309 399.228C385.309 398.143 385.63 397.083 386.232 396.18C386.834 395.278 387.69 394.575 388.692 394.159C389.694 393.743 390.797 393.634 391.861 393.845C392.925 394.056 393.902 394.578 394.67 395.345L394.674 395.349C395.702 396.361 396.286 397.741 396.297 399.184C396.307 400.627 395.745 402.015 394.732 403.043L394.674 403.101Z" fill="white"/>
<path id="Vector_23" d="M375.221 418.173C374.86 418.128 374.494 418.217 374.194 418.422C373.598 418.83 372.999 419.233 372.394 419.626C372.131 419.795 371.82 419.871 371.509 419.841C371.198 419.812 370.906 419.678 370.68 419.463C370.454 419.248 370.307 418.963 370.262 418.654C370.218 418.345 370.278 418.03 370.434 417.759L371.568 415.8C371.73 415.563 371.82 415.284 371.828 414.997C371.836 414.709 371.76 414.426 371.611 414.181C371.462 413.935 371.245 413.738 370.986 413.613C370.727 413.488 370.438 413.44 370.153 413.475C368.895 413.634 367.725 414.207 366.828 415.104C366.487 415.447 365.448 416.487 364.889 420.448C364.73 421.586 364.629 422.731 364.588 423.88C364.583 424.076 364.617 424.271 364.687 424.454C364.758 424.637 364.863 424.804 364.998 424.946C365.134 425.088 365.295 425.203 365.474 425.282C365.654 425.362 365.847 425.406 366.043 425.411C366.056 425.411 366.069 425.411 366.082 425.411H366.119C367.268 425.37 368.414 425.271 369.553 425.112C373.517 424.552 374.556 423.513 374.898 423.171C375.799 422.274 376.371 421.099 376.521 419.836C376.569 419.443 376.459 419.047 376.215 418.735C375.971 418.423 375.614 418.221 375.221 418.173V418.173Z" fill="white"/>
</g>
<g id="circle_stats">
<path id="Vector_24" d="M158 461C183.957 461 205 439.957 205 414C205 388.043 183.957 367 158 367C132.043 367 111 388.043 111 414C111 439.957 132.043 461 158 461Z" fill="#367BF5"/>
<path id="Vector_25" d="M141.825 439.54H138.419C137.742 439.54 137.092 439.271 136.613 438.792C136.134 438.313 135.865 437.664 135.865 436.986V421.662C135.865 420.985 136.134 420.335 136.613 419.856C137.092 419.377 137.742 419.108 138.419 419.108H141.825C142.502 419.108 143.152 419.377 143.63 419.856C144.109 420.335 144.379 420.985 144.379 421.662V436.986C144.379 437.664 144.109 438.313 143.63 438.792C143.152 439.271 142.502 439.54 141.825 439.54V439.54Z" fill="white"/>
<path id="Vector_26" d="M165.662 439.539H162.257C161.579 439.539 160.93 439.27 160.451 438.791C159.972 438.312 159.703 437.663 159.703 436.985V411.446C159.703 410.768 159.972 410.119 160.451 409.64C160.93 409.161 161.579 408.892 162.257 408.892H165.662C166.339 408.892 166.989 409.161 167.468 409.64C167.947 410.119 168.216 410.768 168.216 411.446V436.985C168.216 437.663 167.947 438.312 167.468 438.791C166.989 439.27 166.339 439.539 165.662 439.539V439.539Z" fill="white"/>
<path id="Vector_27" d="M177.58 439.54H174.175C173.498 439.54 172.848 439.271 172.369 438.792C171.89 438.313 171.621 437.663 171.621 436.986V399.528C171.621 398.85 171.89 398.201 172.369 397.722C172.848 397.243 173.498 396.974 174.175 396.974H177.58C178.258 396.974 178.907 397.243 179.386 397.722C179.865 398.201 180.134 398.85 180.134 399.528V436.986C180.134 437.663 179.865 438.313 179.386 438.792C178.907 439.271 178.258 439.54 177.58 439.54V439.54Z" fill="white"/>
<path id="Vector_28" d="M153.743 439.54H150.338C149.661 439.54 149.011 439.271 148.532 438.792C148.053 438.313 147.784 437.663 147.784 436.986V391.014C147.784 390.337 148.053 389.687 148.532 389.208C149.011 388.729 149.661 388.46 150.338 388.46H153.743C154.421 388.46 155.07 388.729 155.549 389.208C156.028 389.687 156.297 390.337 156.297 391.014V436.986C156.297 437.321 156.231 437.653 156.103 437.963C155.975 438.273 155.787 438.554 155.549 438.792C155.312 439.029 155.031 439.217 154.721 439.345C154.411 439.474 154.079 439.54 153.743 439.54V439.54Z" fill="white"/>
</g>
<g id="circle_reverse">
<path id="Vector_32" d="M90 257C115.957 257 137 235.957 137 210C137 184.043 115.957 163 90 163C64.0426 163 43 184.043 43 210C43 235.957 64.0426 257 90 257Z" fill="#367BF5"/>
<path id="Vector_33" d="M67.6132 212.799C67.3682 212.799 67.1256 212.751 66.8992 212.657C66.6729 212.563 66.4672 212.426 66.294 212.252C66.1207 212.079 65.9833 211.873 65.8896 211.647C65.7958 211.421 65.7476 211.178 65.7476 210.933V209.068C65.7622 206.104 66.9454 203.267 69.0403 201.171C71.1351 199.075 73.9723 197.89 76.9356 197.874H101.194C101.689 197.874 102.163 198.071 102.513 198.42C102.863 198.77 103.059 199.245 103.059 199.74C103.059 200.234 102.863 200.709 102.513 201.059C102.163 201.409 101.689 201.605 101.194 201.605H76.9411C74.9646 201.617 73.0725 202.408 71.6754 203.806C70.2783 205.204 69.489 207.097 69.4787 209.073V210.933C69.4788 211.178 69.4305 211.421 69.3367 211.647C69.243 211.873 69.1056 212.079 68.9323 212.252C68.7591 212.426 68.5535 212.563 68.3271 212.657C68.1008 212.751 67.8582 212.799 67.6132 212.799V212.799Z" fill="white"/>
<path id="Vector_34" d="M82.5376 227.723C82.2926 227.724 82.0499 227.675 81.8235 227.582C81.5971 227.488 81.3915 227.35 81.2184 227.177L75.6217 221.58C75.4484 221.407 75.311 221.201 75.2172 220.975C75.1235 220.749 75.0752 220.506 75.0752 220.261C75.0752 220.016 75.1235 219.773 75.2172 219.547C75.311 219.321 75.4484 219.115 75.6217 218.942L81.2184 213.345C81.5684 212.996 82.0428 212.8 82.5372 212.8C83.0317 212.8 83.5059 212.997 83.8555 213.346C84.2052 213.696 84.4017 214.17 84.4019 214.664C84.4021 215.159 84.2061 215.633 83.8567 215.983L79.5792 220.261L83.8567 224.539C84.1176 224.799 84.2953 225.132 84.3673 225.494C84.4393 225.856 84.4023 226.231 84.2611 226.572C84.1199 226.912 83.8808 227.204 83.574 227.409C83.2673 227.614 82.9066 227.723 82.5376 227.723Z" fill="white"/>
<path id="Vector_35" d="M97.4622 207.202C97.0932 207.202 96.7326 207.093 96.4258 206.888C96.119 206.683 95.8799 206.391 95.7387 206.05C95.5975 205.709 95.5606 205.334 95.6325 204.973C95.7045 204.611 95.8822 204.278 96.1431 204.017L100.421 199.74L96.1431 195.462C95.7932 195.112 95.5967 194.638 95.5967 194.143C95.5967 193.648 95.7932 193.174 96.1431 192.824C96.4929 192.474 96.9674 192.277 97.4622 192.277C97.957 192.277 98.4315 192.474 98.7814 192.824L104.378 198.421C104.551 198.594 104.689 198.799 104.783 199.026C104.876 199.252 104.925 199.495 104.925 199.74C104.925 199.985 104.876 200.227 104.783 200.454C104.689 200.68 104.551 200.886 104.378 201.059L98.7814 206.656C98.6083 206.829 98.4027 206.967 98.1763 207.06C97.9499 207.154 97.7073 207.202 97.4622 207.202Z" fill="white"/>
<path id="Vector_36" d="M78.8065 222.126C78.3117 222.126 77.8372 221.929 77.4873 221.579C77.1375 221.23 76.9409 220.755 76.9409 220.26C76.9409 219.766 77.1375 219.291 77.4873 218.941C77.8372 218.591 78.3117 218.395 78.8065 218.395H103.059C105.036 218.383 106.928 217.592 108.325 216.194C109.722 214.796 110.511 212.903 110.521 210.927V209.067C110.521 208.572 110.718 208.097 111.068 207.748C111.418 207.398 111.892 207.201 112.387 207.201C112.882 207.201 113.356 207.398 113.706 207.748C114.056 208.097 114.253 208.572 114.253 209.067V210.932C114.238 213.896 113.055 216.733 110.96 218.829C108.865 220.925 106.028 222.11 103.065 222.126L78.8065 222.126Z" fill="white"/>
</g>
</g>
</svg>
