<svg width="1080" height="1080" viewBox="0 0 1080 1080" fill="none" xmlns="http://www.w3.org/2000/svg">
<g id="undraw_business_decisions_gjwy 1">
<rect width="1080" height="1080" fill="white"/>
<path id="Vector" d="M307 832C445.071 832 557 720.071 557 582C557 443.929 445.071 332 307 332C168.929 332 57 443.929 57 582C57 720.071 168.929 832 307 832Z" fill="#F2F2F2"/>
<path id="Vector_2" d="M381.033 754H57V756.241H381.033V754Z" fill="#3F3D56"/>
<path id="Vector_3" d="M252.531 432.324C253.468 435.333 254.299 438.203 254.998 440.67L254.562 440.826C254.019 438.54 253.328 435.58 252.531 432.324ZM226.513 359.055L226.381 359.129L226.504 359.014L226.513 359.055Z" fill="url(#paint0_linear)"/>
<path id="Vector_4" d="M194.623 782.416C189.73 783.987 186.055 814.067 186.055 814.067L216.48 821.583C216.48 821.583 237.819 824.732 247.959 821.583C258.098 818.434 257.752 809.692 243.238 808.294C228.725 806.897 218.405 788.189 218.405 788.189C218.405 788.189 199.516 780.846 194.623 782.416Z" fill="#2F2E41"/>
<path id="Vector_5" d="M158.918 788.534C158.992 790.944 158.59 793.344 157.734 795.598C155.282 802.971 154.244 810.741 154.675 818.499C154.741 819.426 154.815 820.396 154.897 821.41C155.95 833.474 185.134 825.966 187.074 824.56C189.015 823.154 181.318 788.534 181.318 788.534C181.318 788.534 158.433 783.641 158.918 788.534Z" fill="#2F2E41"/>
<path id="Vector_6" d="M190.865 350.231C190.873 350.241 190.878 350.252 190.882 350.264C191.498 351.777 214.416 407.974 210.272 389.595C210.148 389.049 210.066 388.493 210.025 387.934C209.671 383.42 211.801 378.453 215.23 373.519C217.416 370.436 219.844 367.532 222.491 364.836C223.815 363.462 225.189 362.122 226.578 360.823C230.394 357.246 234.366 353.973 237.885 351.243C244.209 346.309 249.093 343.176 249.093 343.176C249.093 343.176 204.77 291.501 207.912 313.794C208.775 319.904 212.377 325.998 209.935 331.655C208.332 335.24 206.06 338.486 203.241 341.219C201.015 343.42 198.59 345.41 195.996 347.164C194.886 347.912 193.883 348.537 193.069 349.014C191.712 349.812 190.865 350.231 190.865 350.231Z" fill="#FFB8B8"/>
<path id="Vector_7" d="M342.846 416.872C342.846 416.872 344.589 415.902 347.22 414.743C354.958 411.371 370.41 406.437 372.358 420.022C374.982 438.244 357.606 436.148 357.606 436.148C354.171 434.844 350.652 433.775 347.072 432.949C345.312 432.474 343.475 432.359 341.67 432.612L342.846 416.872Z" fill="#FFB8B8"/>
<path id="Vector_8" d="M340.198 434.125H345.428C348.47 430.013 346.143 414.389 346.143 414.389L341.596 415.211L340.198 434.125Z" fill="#E6E6E6"/>
<path id="Vector_9" d="M246.733 460.504L247.605 506.488L253.361 528.173C253.361 528.173 256.19 549.158 259.66 547.407C263.13 545.655 277.932 550.638 277.932 550.638L278.631 542.859L273.648 497.139L269.799 474.319C269.799 474.319 267.612 456.393 265.951 445.9C264.29 435.407 250.393 443.721 250.393 443.721L246.733 460.504Z" fill="#2F2E41"/>
<path id="Vector_10" d="M263.369 437.693C272.817 435.046 285.012 437.693 285.012 437.693L340.107 438.91C349.942 425.926 343.125 413.731 343.125 413.731C343.125 413.731 316.104 412.67 294.206 409.398C272.307 406.125 257.884 389.859 257.884 389.859L263.369 437.693Z" fill="#2F2E41"/>
<path id="Vector_11" opacity="0.1" d="M207.912 313.795C204.771 291.502 249.093 343.177 249.093 343.177C249.093 343.177 244.209 346.31 237.885 351.243C237.301 351.285 236.718 351.285 236.117 351.285C222.557 351.285 213.208 342.798 207.83 331.286C209.992 326.163 208.882 320.62 207.912 313.795Z" fill="#3F3D56"/>
<path id="Vector_12" d="M204.178 320.676C204.193 312.646 207.394 304.951 213.079 299.28C218.763 293.61 226.466 290.427 234.496 290.432C242.525 290.437 250.224 293.629 255.902 299.306C261.579 304.984 264.771 312.683 264.776 320.712C264.781 328.742 261.598 336.445 255.928 342.129C250.257 347.814 242.562 351.015 234.533 351.03C226.503 351.044 218.796 347.871 213.105 342.207C207.413 336.544 204.203 328.852 204.179 320.823C204.178 320.774 204.178 320.725 204.178 320.676Z" fill="#FFB8B8"/>
<path id="Vector_13" d="M189.237 450.892L190.882 350.232L208.455 359.434L223.034 362.888L226.726 360.733L226.99 360.577L227.59 360.231C227.59 360.231 227.787 360.659 228.166 361.44C231.356 368.191 246.881 401.207 246.553 404.036C246.207 407.177 257.629 446.779 257.629 446.779L252.12 484.286C252.12 484.286 262.571 510.337 259.808 519.958C257.045 529.579 181.688 522.926 181.688 522.926L189.237 450.892Z" fill="#E6E6E6"/>
<path id="Vector_14" d="M218.668 365.996L224.523 373.512L225.468 375.707C228.775 383.45 230.674 391.72 231.076 400.13V409.883L232.302 488.044L239.036 500.058L240.262 485.19L237.556 401.52L233.88 382.607L231.874 370.625C230.797 368.533 229.86 366.371 229.07 364.154C227.064 358.998 221.899 360.396 221.899 360.396L218.668 365.996Z" fill="#2F2E41"/>
<path id="Vector_15" d="M192.896 348.595L193.069 349.014L194.294 352.024L195.676 355.387C197.296 356.419 198.806 357.615 200.182 358.956C204.853 363.15 211.629 369.893 215.23 373.519C216.752 375.049 217.705 376.019 217.705 376.019C219.49 374.432 221.282 369.128 222.491 364.835C222.689 364.153 222.861 363.495 223.026 362.887C223.634 360.559 224.004 358.882 224.004 358.882C219.424 357.246 208.734 346.794 203.241 341.219C201.015 343.42 198.59 345.41 195.996 347.164C195.684 346.292 192.896 348.595 192.896 348.595Z" fill="#E6E6E6"/>
<path id="Vector_16" d="M231.142 362.69C234.571 364.787 240.147 367.517 246.33 367.83C246.33 367.83 259.726 374.918 262.209 399.176C264.693 423.435 275.185 496.349 275.185 496.349C275.185 496.349 284.527 545.515 277.948 550.622L270.605 490.437C270.605 490.437 257.752 455.678 256.823 449.247C256.001 443.392 245.78 411.379 243.987 405.771C243.806 405.245 243.715 404.949 243.715 404.949L233.494 376.044L227.59 360.223C228.717 361.124 229.904 361.949 231.142 362.69Z" fill="#2F2E41"/>
<path id="Vector_17" d="M157.734 693.072C157.734 693.072 168.046 621.892 165.25 612.287C162.454 602.683 167.174 531.701 167.174 531.701L168.729 518.387L169.6 510.88L169.97 507.738L171.771 508.289C189.151 513.352 207.003 516.626 225.049 518.058C229.049 518.33 233.067 518.009 236.972 517.104C244.11 515.476 257.909 513.478 260.318 511.768C260.318 511.768 261.14 513.98 262.168 517.598C264.536 525.961 268.105 541.947 265.359 555.564L261.157 583.104C261.157 583.104 259.504 611.169 254.077 627.961L249.274 650.862L242.975 697.545C239.866 709.985 237.615 722.623 236.241 735.372C233.946 756.538 220.847 791.651 220.847 791.651C220.847 791.651 193.003 795.499 192.181 786.059L201.802 712.437L210.716 607C210.716 607 201.054 672.785 195.503 686.954C195.503 686.954 187.806 767.713 185.183 780.155C182.56 792.596 180.817 795.886 180.817 795.886C180.817 795.886 164.551 801.839 157.208 790.82C157.208 790.82 155.111 758.133 153.54 746.415C151.962 734.681 157.734 693.072 157.734 693.072Z" fill="#2F2E41"/>
<path id="Vector_18" d="M170.521 533.765L182.034 539.365L168.309 565.243C163.153 560.432 163.762 541.289 163.762 541.289L170.521 533.765Z" fill="#FFB8B8"/>
<path id="Vector_19" d="M175.472 533.765L180.718 537.876L173.728 548.459L164.198 551.954L163.408 544.956L175.472 533.765Z" fill="#E6E6E6"/>
<g id="Group" opacity="0.1">
<path id="Vector_20" opacity="0.1" d="M260.326 511.866C260.299 511.83 260.282 511.788 260.277 511.743C260.129 511.84 259.975 511.928 259.816 512.006L260.326 511.866Z" fill="#3F3D56"/>
</g>
<path id="Vector_21" d="M130.68 548.278C136.971 555.621 164.395 556.937 164.395 556.937L185.767 523.255L191.531 514.176C191.531 514.176 197.954 509.719 210.025 489.647C222.097 469.574 221.686 454.114 221.019 442.569C220.353 431.024 212.796 397.843 212.796 397.843C212.056 394.492 211.131 391.184 210.025 387.934C207.402 379.662 203.43 368.166 200.182 358.956C199.598 357.295 199.039 355.708 198.504 354.228C197.518 351.415 202.534 340.701 202.534 340.701C200.766 344.245 189.632 350.075 185.759 352.517C175.315 359.096 160.736 361.793 160.736 361.793C137.258 365.206 141.592 389.464 141.592 389.464C141.592 389.464 141.329 483.759 142.776 495.041C144.224 506.323 130.68 548.278 130.68 548.278Z" fill="#2F2E41"/>
<path id="Vector_22" opacity="0.1" d="M142.612 389.456C142.612 389.456 132.645 432.743 129.891 459.493C127.136 486.243 137.497 503.29 137.497 503.29L159.658 552.472C167.265 550.515 182.741 534.381 182.741 534.381L160.538 472.872C160.538 472.872 168.77 441.813 173.917 413.205C179.065 384.597 165.423 371.76 165.423 371.76C142.604 363.109 142.612 389.456 142.612 389.456Z" fill="#3F3D56"/>
<path id="Vector_23" d="M141.559 389.456C141.559 389.456 131.593 432.743 128.838 459.493C126.083 486.243 136.444 503.29 136.444 503.29L158.647 552.472C166.253 550.515 181.729 534.381 181.729 534.381L159.527 472.872C159.527 472.872 167.766 441.813 172.898 413.205C178.029 384.597 164.378 371.76 164.378 371.76C141.559 363.109 141.559 389.456 141.559 389.456Z" fill="#2F2E41"/>
<path id="Vector_24" d="M185.356 542.16L179.238 559.651L172.421 569.001C172.421 569.001 167.314 572.413 166.04 566.032C164.765 559.651 182.034 535.689 182.034 535.689C184.764 534.611 185.356 542.16 185.356 542.16Z" fill="#2F2E41"/>
<path id="Vector_25" d="M206.444 337.077C206.444 337.077 174.786 293.695 214.651 284.315C214.651 284.315 225.976 267.327 239.891 275.683C246.721 279.69 254.513 281.762 262.43 281.677C269.172 281.677 275.621 284.315 274.449 294.867C272.104 315.972 259.206 312.455 259.206 312.455C259.206 312.455 224.229 296.784 223.057 314.372C221.884 331.959 206.444 337.077 206.444 337.077Z" fill="#2F2E41"/>
<path id="Vector_26" d="M579.305 265.627C583.068 265.627 586.118 262.576 586.118 258.813C586.118 255.05 583.068 252 579.305 252C575.542 252 572.491 255.05 572.491 258.813C572.491 262.576 575.542 265.627 579.305 265.627Z" fill="#E6E6E6"/>
<path id="Vector_27" d="M613.794 265.627C617.557 265.627 620.607 262.576 620.607 258.813C620.607 255.05 617.557 252 613.794 252C610.031 252 606.981 255.05 606.981 258.813C606.981 262.576 610.031 265.627 613.794 265.627Z" fill="#E6E6E6"/>
<path id="Vector_28" d="M648.283 265.627C652.046 265.627 655.096 262.576 655.096 258.813C655.096 255.05 652.046 252 648.283 252C644.52 252 641.47 255.05 641.47 258.813C641.47 262.576 644.52 265.627 648.283 265.627Z" fill="#E6E6E6"/>
<path id="Vector_29" d="M682.772 265.627C686.535 265.627 689.585 262.576 689.585 258.813C689.585 255.05 686.535 252 682.772 252C679.009 252 675.959 255.05 675.959 258.813C675.959 262.576 679.009 265.627 682.772 265.627Z" fill="#E6E6E6"/>
<path id="Vector_30" d="M717.261 265.627C721.024 265.627 724.074 262.576 724.074 258.813C724.074 255.05 721.024 252 717.261 252C713.498 252 710.448 255.05 710.448 258.813C710.448 262.576 713.498 265.627 717.261 265.627Z" fill="#E6E6E6"/>
<path id="Vector_31" d="M579.305 300.549C583.068 300.549 586.118 297.498 586.118 293.735C586.118 289.972 583.068 286.922 579.305 286.922C575.542 286.922 572.491 289.972 572.491 293.735C572.491 297.498 575.542 300.549 579.305 300.549Z" fill="#E6E6E6"/>
<path id="Vector_32" d="M613.794 300.549C617.557 300.549 620.607 297.498 620.607 293.735C620.607 289.972 617.557 286.922 613.794 286.922C610.031 286.922 606.981 289.972 606.981 293.735C606.981 297.498 610.031 300.549 613.794 300.549Z" fill="#E6E6E6"/>
<path id="Vector_33" d="M648.283 300.549C652.046 300.549 655.096 297.498 655.096 293.735C655.096 289.972 652.046 286.922 648.283 286.922C644.52 286.922 641.47 289.972 641.47 293.735C641.47 297.498 644.52 300.549 648.283 300.549Z" fill="#E6E6E6"/>
<path id="Vector_34" d="M682.772 300.549C686.535 300.549 689.585 297.498 689.585 293.735C689.585 289.972 686.535 286.922 682.772 286.922C679.009 286.922 675.959 289.972 675.959 293.735C675.959 297.498 679.009 300.549 682.772 300.549Z" fill="#367BF5"/>
<path id="Vector_35" d="M717.261 300.549C721.024 300.549 724.074 297.498 724.074 293.735C724.074 289.972 721.024 286.922 717.261 286.922C713.498 286.922 710.448 289.972 710.448 293.735C710.448 297.498 713.498 300.549 717.261 300.549Z" fill="#E6E6E6"/>
<path id="Vector_36" d="M786.239 300.549C790.002 300.549 793.052 297.498 793.052 293.735C793.052 289.972 790.002 286.922 786.239 286.922C782.476 286.922 779.426 289.972 779.426 293.735C779.426 297.498 782.476 300.549 786.239 300.549Z" fill="#E6E6E6"/>
<path id="Vector_37" d="M579.305 335.471C583.068 335.471 586.118 332.42 586.118 328.657C586.118 324.894 583.068 321.844 579.305 321.844C575.542 321.844 572.491 324.894 572.491 328.657C572.491 332.42 575.542 335.471 579.305 335.471Z" fill="#E6E6E6"/>
<path id="Vector_38" d="M613.794 335.471C617.557 335.471 620.607 332.42 620.607 328.657C620.607 324.894 617.557 321.844 613.794 321.844C610.031 321.844 606.981 324.894 606.981 328.657C606.981 332.42 610.031 335.471 613.794 335.471Z" fill="#E6E6E6"/>
<path id="Vector_39" d="M648.283 335.471C652.046 335.471 655.096 332.42 655.096 328.657C655.096 324.894 652.046 321.844 648.283 321.844C644.52 321.844 641.47 324.894 641.47 328.657C641.47 332.42 644.52 335.471 648.283 335.471Z" fill="#E6E6E6"/>
<path id="Vector_40" d="M682.772 335.471C686.535 335.471 689.585 332.42 689.585 328.657C689.585 324.894 686.535 321.844 682.772 321.844C679.009 321.844 675.959 324.894 675.959 328.657C675.959 332.42 679.009 335.471 682.772 335.471Z" fill="#E6E6E6"/>
<path id="Vector_41" d="M717.261 335.471C721.024 335.471 724.074 332.42 724.074 328.657C724.074 324.894 721.024 321.844 717.261 321.844C713.498 321.844 710.448 324.894 710.448 328.657C710.448 332.42 713.498 335.471 717.261 335.471Z" fill="#E6E6E6"/>
<path id="Vector_42" d="M579.305 370.393C583.068 370.393 586.118 367.342 586.118 363.579C586.118 359.816 583.068 356.766 579.305 356.766C575.542 356.766 572.491 359.816 572.491 363.579C572.491 367.342 575.542 370.393 579.305 370.393Z" fill="#E6E6E6"/>
<path id="Vector_43" d="M613.794 370.393C617.557 370.393 620.607 367.342 620.607 363.579C620.607 359.816 617.557 356.766 613.794 356.766C610.031 356.766 606.981 359.816 606.981 363.579C606.981 367.342 610.031 370.393 613.794 370.393Z" fill="#E6E6E6"/>
<path id="Vector_44" d="M648.283 370.393C652.046 370.393 655.096 367.342 655.096 363.579C655.096 359.816 652.046 356.766 648.283 356.766C644.52 356.766 641.47 359.816 641.47 363.579C641.47 367.342 644.52 370.393 648.283 370.393Z" fill="#E6E6E6"/>
<path id="Vector_45" d="M682.772 370.393C686.535 370.393 689.585 367.342 689.585 363.579C689.585 359.816 686.535 356.766 682.772 356.766C679.009 356.766 675.959 359.816 675.959 363.579C675.959 367.342 679.009 370.393 682.772 370.393Z" fill="#E6E6E6"/>
<path id="Vector_46" d="M717.261 370.393C721.024 370.393 724.074 367.342 724.074 363.579C724.074 359.816 721.024 356.766 717.261 356.766C713.498 356.766 710.448 359.816 710.448 363.579C710.448 367.342 713.498 370.393 717.261 370.393Z" fill="#E6E6E6"/>
<path id="Vector_47" d="M751.75 370.393C755.513 370.393 758.563 367.342 758.563 363.579C758.563 359.816 755.513 356.766 751.75 356.766C747.987 356.766 744.937 359.816 744.937 363.579C744.937 367.342 747.987 370.393 751.75 370.393Z" fill="#E6E6E6"/>
<path id="Vector_48" d="M786.239 370.393C790.002 370.393 793.052 367.342 793.052 363.579C793.052 359.816 790.002 356.766 786.239 356.766C782.476 356.766 779.426 359.816 779.426 363.579C779.426 367.342 782.476 370.393 786.239 370.393Z" fill="#E6E6E6"/>
<path id="Vector_49" d="M820.728 370.393C824.491 370.393 827.541 367.342 827.541 363.579C827.541 359.816 824.491 356.766 820.728 356.766C816.965 356.766 813.915 359.816 813.915 363.579C813.915 367.342 816.965 370.393 820.728 370.393Z" fill="#E6E6E6"/>
<path id="Vector_50" d="M855.217 370.393C858.98 370.393 862.031 367.342 862.031 363.579C862.031 359.816 858.98 356.766 855.217 356.766C851.454 356.766 848.404 359.816 848.404 363.579C848.404 367.342 851.454 370.393 855.217 370.393Z" fill="#E6E6E6"/>
<path id="Vector_51" d="M889.706 370.393C893.469 370.393 896.52 367.342 896.52 363.579C896.52 359.816 893.469 356.766 889.706 356.766C885.943 356.766 882.893 359.816 882.893 363.579C882.893 367.342 885.943 370.393 889.706 370.393Z" fill="#E6E6E6"/>
<path id="Vector_52" d="M717.261 405.314C721.024 405.314 724.074 402.264 724.074 398.501C724.074 394.738 721.024 391.688 717.261 391.688C713.498 391.688 710.448 394.738 710.448 398.501C710.448 402.264 713.498 405.314 717.261 405.314Z" fill="#E6E6E6"/>
<path id="Vector_53" d="M751.75 405.314C755.513 405.314 758.563 402.264 758.563 398.501C758.563 394.738 755.513 391.688 751.75 391.688C747.987 391.688 744.937 394.738 744.937 398.501C744.937 402.264 747.987 405.314 751.75 405.314Z" fill="#367BF5"/>
<path id="Vector_54" d="M786.239 405.314C790.002 405.314 793.052 402.264 793.052 398.501C793.052 394.738 790.002 391.688 786.239 391.688C782.476 391.688 779.426 394.738 779.426 398.501C779.426 402.264 782.476 405.314 786.239 405.314Z" fill="#E6E6E6"/>
<path id="Vector_55" d="M820.728 405.314C824.491 405.314 827.541 402.264 827.541 398.501C827.541 394.738 824.491 391.688 820.728 391.688C816.965 391.688 813.915 394.738 813.915 398.501C813.915 402.264 816.965 405.314 820.728 405.314Z" fill="#E6E6E6"/>
<path id="Vector_56" d="M855.217 405.314C858.98 405.314 862.031 402.264 862.031 398.501C862.031 394.738 858.98 391.688 855.217 391.688C851.454 391.688 848.404 394.738 848.404 398.501C848.404 402.264 851.454 405.314 855.217 405.314Z" fill="#E6E6E6"/>
<path id="Vector_57" d="M889.706 405.314C893.469 405.314 896.52 402.264 896.52 398.501C896.52 394.738 893.469 391.688 889.706 391.688C885.943 391.688 882.893 394.738 882.893 398.501C882.893 402.264 885.943 405.314 889.706 405.314Z" fill="#E6E6E6"/>
<path id="Vector_58" d="M717.261 440.236C721.024 440.236 724.074 437.186 724.074 433.423C724.074 429.66 721.024 426.61 717.261 426.61C713.498 426.61 710.448 429.66 710.448 433.423C710.448 437.186 713.498 440.236 717.261 440.236Z" fill="#E6E6E6"/>
<path id="Vector_59" d="M751.75 440.236C755.513 440.236 758.563 437.186 758.563 433.423C758.563 429.66 755.513 426.61 751.75 426.61C747.987 426.61 744.937 429.66 744.937 433.423C744.937 437.186 747.987 440.236 751.75 440.236Z" fill="#E6E6E6"/>
<path id="Vector_60" d="M786.239 440.236C790.002 440.236 793.052 437.186 793.052 433.423C793.052 429.66 790.002 426.61 786.239 426.61C782.476 426.61 779.426 429.66 779.426 433.423C779.426 437.186 782.476 440.236 786.239 440.236Z" fill="#E6E6E6"/>
<path id="Vector_61" d="M820.728 440.236C824.491 440.236 827.541 437.186 827.541 433.423C827.541 429.66 824.491 426.61 820.728 426.61C816.965 426.61 813.915 429.66 813.915 433.423C813.915 437.186 816.965 440.236 820.728 440.236Z" fill="#E6E6E6"/>
<path id="Vector_62" d="M855.217 440.236C858.98 440.236 862.031 437.186 862.031 433.423C862.031 429.66 858.98 426.61 855.217 426.61C851.454 426.61 848.404 429.66 848.404 433.423C848.404 437.186 851.454 440.236 855.217 440.236Z" fill="#367BF5"/>
<path id="Vector_63" d="M889.706 440.236C893.469 440.236 896.52 437.186 896.52 433.423C896.52 429.66 893.469 426.61 889.706 426.61C885.943 426.61 882.893 429.66 882.893 433.423C882.893 437.186 885.943 440.236 889.706 440.236Z" fill="#E6E6E6"/>
<path id="Vector_64" d="M717.261 475.158C721.024 475.158 724.074 472.108 724.074 468.345C724.074 464.582 721.024 461.532 717.261 461.532C713.498 461.532 710.448 464.582 710.448 468.345C710.448 472.108 713.498 475.158 717.261 475.158Z" fill="#E6E6E6"/>
<path id="Vector_65" d="M751.75 475.158C755.513 475.158 758.563 472.108 758.563 468.345C758.563 464.582 755.513 461.532 751.75 461.532C747.987 461.532 744.937 464.582 744.937 468.345C744.937 472.108 747.987 475.158 751.75 475.158Z" fill="#E6E6E6"/>
<path id="Vector_66" d="M889.706 475.158C893.469 475.158 896.52 472.108 896.52 468.345C896.52 464.582 893.469 461.532 889.706 461.532C885.943 461.532 882.893 464.582 882.893 468.345C882.893 472.108 885.943 475.158 889.706 475.158Z" fill="#E6E6E6"/>
<path id="Vector_67" d="M786.239 475.158C790.002 475.158 793.052 472.108 793.052 468.345C793.052 464.582 790.002 461.532 786.239 461.532C782.476 461.532 779.426 464.582 779.426 468.345C779.426 472.108 782.476 475.158 786.239 475.158Z" fill="#E6E6E6"/>
<path id="Vector_68" d="M820.728 475.158C824.491 475.158 827.541 472.108 827.541 468.345C827.541 464.582 824.491 461.532 820.728 461.532C816.965 461.532 813.915 464.582 813.915 468.345C813.915 472.108 816.965 475.158 820.728 475.158Z" fill="#E6E6E6"/>
<path id="Vector_69" d="M855.217 475.158C858.98 475.158 862.031 472.108 862.031 468.345C862.031 464.582 858.98 461.532 855.217 461.532C851.454 461.532 848.404 464.582 848.404 468.345C848.404 472.108 851.454 475.158 855.217 475.158Z" fill="#E6E6E6"/>
<path id="Vector_70" d="M579.305 510.08C583.068 510.08 586.118 507.03 586.118 503.267C586.118 499.504 583.068 496.454 579.305 496.454C575.542 496.454 572.491 499.504 572.491 503.267C572.491 507.03 575.542 510.08 579.305 510.08Z" fill="#E6E6E6"/>
<path id="Vector_71" d="M613.794 510.08C617.557 510.08 620.607 507.03 620.607 503.267C620.607 499.504 617.557 496.454 613.794 496.454C610.031 496.454 606.981 499.504 606.981 503.267C606.981 507.03 610.031 510.08 613.794 510.08Z" fill="#E6E6E6"/>
<path id="Vector_72" d="M648.283 510.08C652.046 510.08 655.096 507.03 655.096 503.267C655.096 499.504 652.046 496.454 648.283 496.454C644.52 496.454 641.47 499.504 641.47 503.267C641.47 507.03 644.52 510.08 648.283 510.08Z" fill="#E6E6E6"/>
<path id="Vector_73" d="M682.772 510.08C686.535 510.08 689.585 507.03 689.585 503.267C689.585 499.504 686.535 496.454 682.772 496.454C679.009 496.454 675.959 499.504 675.959 503.267C675.959 507.03 679.009 510.08 682.772 510.08Z" fill="#E6E6E6"/>
<path id="Vector_74" d="M717.261 510.08C721.024 510.08 724.074 507.03 724.074 503.267C724.074 499.504 721.024 496.454 717.261 496.454C713.498 496.454 710.448 499.504 710.448 503.267C710.448 507.03 713.498 510.08 717.261 510.08Z" fill="#E6E6E6"/>
<path id="Vector_75" d="M751.75 510.08C755.513 510.08 758.563 507.03 758.563 503.267C758.563 499.504 755.513 496.454 751.75 496.454C747.987 496.454 744.937 499.504 744.937 503.267C744.937 507.03 747.987 510.08 751.75 510.08Z" fill="#E6E6E6"/>
<path id="Vector_76" d="M786.239 510.08C790.002 510.08 793.052 507.03 793.052 503.267C793.052 499.504 790.002 496.454 786.239 496.454C782.476 496.454 779.426 499.504 779.426 503.267C779.426 507.03 782.476 510.08 786.239 510.08Z" fill="#E6E6E6"/>
<path id="Vector_77" d="M820.728 510.08C824.491 510.08 827.541 507.03 827.541 503.267C827.541 499.504 824.491 496.454 820.728 496.454C816.965 496.454 813.915 499.504 813.915 503.267C813.915 507.03 816.965 510.08 820.728 510.08Z" fill="#E6E6E6"/>
<path id="Vector_78" d="M855.217 510.08C858.98 510.08 862.031 507.03 862.031 503.267C862.031 499.504 858.98 496.454 855.217 496.454C851.454 496.454 848.404 499.504 848.404 503.267C848.404 507.03 851.454 510.08 855.217 510.08Z" fill="#E6E6E6"/>
<path id="Vector_79" d="M889.706 510.08C893.469 510.08 896.52 507.03 896.52 503.267C896.52 499.504 893.469 496.454 889.706 496.454C885.943 496.454 882.893 499.504 882.893 503.267C882.893 507.03 885.943 510.08 889.706 510.08Z" fill="#E6E6E6"/>
<path id="Vector_80" d="M586.114 538.215C586.129 534.453 583.091 531.39 579.329 531.375C575.566 531.359 572.503 534.397 572.488 538.16C572.472 541.923 575.51 544.986 579.273 545.001C583.036 545.016 586.099 541.978 586.114 538.215Z" fill="#E6E6E6"/>
<path id="Vector_81" d="M613.794 545.002C617.557 545.002 620.607 541.952 620.607 538.189C620.607 534.426 617.557 531.376 613.794 531.376C610.031 531.376 606.981 534.426 606.981 538.189C606.981 541.952 610.031 545.002 613.794 545.002Z" fill="#E6E6E6"/>
<path id="Vector_82" d="M586.114 573.137C586.129 569.374 583.091 566.312 579.328 566.296C575.566 566.281 572.503 569.319 572.488 573.082C572.472 576.845 575.51 579.908 579.273 579.923C583.036 579.938 586.099 576.9 586.114 573.137Z" fill="#E6E6E6"/>
<path id="Vector_83" d="M613.794 579.924C617.557 579.924 620.607 576.874 620.607 573.111C620.607 569.348 617.557 566.297 613.794 566.297C610.031 566.297 606.981 569.348 606.981 573.111C606.981 576.874 610.031 579.924 613.794 579.924Z" fill="#E6E6E6"/>
<path id="Vector_84" d="M682.772 579.924C686.535 579.924 689.585 576.874 689.585 573.111C689.585 569.348 686.535 566.297 682.772 566.297C679.009 566.297 675.959 569.348 675.959 573.111C675.959 576.874 679.009 579.924 682.772 579.924Z" fill="#E6E6E6"/>
<path id="Vector_85" d="M1026.55 332.384H756.548C755.222 332.382 753.951 331.855 753.014 330.918C752.077 329.98 751.549 328.71 751.548 327.384V260.408C751.549 259.083 752.077 257.812 753.014 256.874C753.951 255.937 755.222 255.41 756.548 255.408H1026.55C1027.87 255.41 1029.14 255.937 1030.08 256.874C1031.02 257.812 1031.55 259.083 1031.55 260.408V327.384C1031.55 328.71 1031.02 329.98 1030.08 330.918C1029.14 331.855 1027.87 332.382 1026.55 332.384V332.384ZM756.548 257.408C755.752 257.409 754.99 257.726 754.427 258.288C753.865 258.85 753.549 259.613 753.548 260.408V327.384C753.549 328.179 753.865 328.942 754.427 329.504C754.99 330.067 755.752 330.383 756.548 330.384H1026.55C1027.34 330.383 1028.11 330.067 1028.67 329.504C1029.23 328.942 1029.55 328.179 1029.55 327.384V260.408C1029.55 259.613 1029.23 258.85 1028.67 258.288C1028.11 257.726 1027.34 257.409 1026.55 257.408H756.548Z" fill="#E6E6E6"/>
<path id="Vector_86" d="M791.548 314.896C803.146 314.896 812.548 305.494 812.548 293.896C812.548 282.298 803.146 272.896 791.548 272.896C779.95 272.896 770.548 282.298 770.548 293.896C770.548 305.494 779.95 314.896 791.548 314.896Z" fill="#367BF5"/>
<path id="Vector_87" d="M840.048 279.896C839.119 279.896 838.229 280.265 837.573 280.921C836.916 281.577 836.548 282.468 836.548 283.396C836.548 284.324 836.916 285.214 837.573 285.871C838.229 286.527 839.119 286.896 840.048 286.896H933.048C933.976 286.896 934.866 286.527 935.523 285.871C936.179 285.214 936.548 284.324 936.548 283.396C936.548 282.468 936.179 281.577 935.523 280.921C934.866 280.265 933.976 279.896 933.048 279.896H840.048Z" fill="#E6E6E6"/>
<path id="Vector_88" d="M840.048 300.896C839.119 300.896 838.229 301.265 837.573 301.921C836.916 302.577 836.548 303.468 836.548 304.396C836.548 305.324 836.916 306.214 837.573 306.871C838.229 307.527 839.119 307.896 840.048 307.896H1005.05C1005.98 307.896 1006.87 307.527 1007.52 306.871C1008.18 306.214 1008.55 305.324 1008.55 304.396C1008.55 303.468 1008.18 302.577 1007.52 301.921C1006.87 301.265 1005.98 300.896 1005.05 300.896H840.048Z" fill="#E6E6E6"/>
<path id="Vector_89" d="M679.548 468.384H409.548C408.222 468.382 406.951 467.855 406.014 466.918C405.077 465.98 404.549 464.71 404.548 463.384V396.408C404.549 395.083 405.077 393.812 406.014 392.875C406.951 391.937 408.222 391.41 409.548 391.408H679.548C680.874 391.41 682.145 391.937 683.082 392.875C684.019 393.812 684.547 395.083 684.548 396.408V463.384C684.547 464.71 684.019 465.98 683.082 466.918C682.145 467.855 680.874 468.382 679.548 468.384ZM409.548 393.408C408.752 393.409 407.99 393.726 407.427 394.288C406.865 394.85 406.549 395.613 406.548 396.408V463.384C406.549 464.179 406.865 464.942 407.427 465.504C407.99 466.067 408.752 466.383 409.548 466.384H679.548C680.344 466.383 681.106 466.067 681.669 465.504C682.231 464.942 682.547 464.179 682.548 463.384V396.408C682.547 395.613 682.231 394.85 681.669 394.288C681.106 393.726 680.344 393.409 679.548 393.408H409.548Z" fill="#3F3D56"/>
<path id="Vector_90" d="M444.548 450.896C456.146 450.896 465.548 441.494 465.548 429.896C465.548 418.298 456.146 408.896 444.548 408.896C432.95 408.896 423.548 418.298 423.548 429.896C423.548 441.494 432.95 450.896 444.548 450.896Z" fill="#367BF5"/>
<path id="Vector_91" d="M493.048 415.896C492.119 415.896 491.229 416.265 490.573 416.921C489.916 417.577 489.548 418.468 489.548 419.396C489.548 420.324 489.916 421.214 490.573 421.871C491.229 422.527 492.119 422.896 493.048 422.896H590.048C590.976 422.896 591.866 422.527 592.523 421.871C593.179 421.214 593.548 420.324 593.548 419.396C593.548 418.468 593.179 417.577 592.523 416.921C591.866 416.265 590.976 415.896 590.048 415.896H493.048Z" fill="#E6E6E6"/>
<path id="Vector_92" d="M493.048 436.896C492.119 436.896 491.229 437.265 490.573 437.921C489.916 438.577 489.548 439.468 489.548 440.396C489.548 441.324 489.916 442.214 490.573 442.871C491.229 443.527 492.119 443.896 493.048 443.896H658.048C658.976 443.896 659.866 443.527 660.523 442.871C661.179 442.214 661.548 441.324 661.548 440.396C661.548 439.468 661.179 438.577 660.523 437.921C659.866 437.265 658.976 436.896 658.048 436.896H493.048Z" fill="#E6E6E6"/>
<path id="Vector_93" d="M923.548 615.384H653.548C652.222 615.382 650.951 614.855 650.014 613.918C649.077 612.98 648.549 611.71 648.548 610.384V543.408C648.549 542.083 649.077 540.812 650.014 539.875C650.951 538.937 652.222 538.41 653.548 538.408H923.548C924.874 538.41 926.145 538.937 927.082 539.875C928.019 540.812 928.547 542.083 928.548 543.408V610.384C928.547 611.71 928.019 612.98 927.082 613.918C926.145 614.855 924.874 615.382 923.548 615.384ZM653.548 540.408C652.752 540.409 651.99 540.726 651.427 541.288C650.865 541.85 650.549 542.613 650.548 543.408V610.384C650.549 611.179 650.865 611.942 651.427 612.504C651.99 613.067 652.752 613.383 653.548 613.384H923.548C924.344 613.383 925.106 613.067 925.669 612.504C926.231 611.942 926.547 611.179 926.548 610.384V543.408C926.547 542.613 926.231 541.85 925.669 541.288C925.106 540.726 924.344 540.409 923.548 540.408H653.548Z" fill="#E6E6E6"/>
<path id="Vector_94" d="M688.548 597.896C700.146 597.896 709.548 588.494 709.548 576.896C709.548 565.298 700.146 555.896 688.548 555.896C676.95 555.896 667.548 565.298 667.548 576.896C667.548 588.494 676.95 597.896 688.548 597.896Z" fill="#367BF5"/>
<path id="Vector_95" d="M737.048 562.896C736.119 562.896 735.229 563.265 734.573 563.921C733.916 564.577 733.548 565.468 733.548 566.396C733.548 567.324 733.916 568.214 734.573 568.871C735.229 569.527 736.119 569.896 737.048 569.896H826.048C826.976 569.896 827.866 569.527 828.523 568.871C829.179 568.214 829.548 567.324 829.548 566.396C829.548 565.468 829.179 564.577 828.523 563.921C827.866 563.265 826.976 562.896 826.048 562.896H737.048Z" fill="#E6E6E6"/>
<path id="Vector_96" d="M737.048 583.896C736.119 583.896 735.229 584.265 734.573 584.921C733.916 585.577 733.548 586.468 733.548 587.396C733.548 588.324 733.916 589.214 734.573 589.871C735.229 590.527 736.119 590.896 737.048 590.896H902.048C902.976 590.896 903.866 590.527 904.523 589.871C905.179 589.214 905.548 588.324 905.548 587.396C905.548 586.468 905.179 585.577 904.523 584.921C903.866 584.265 902.976 583.896 902.048 583.896H737.048Z" fill="#E6E6E6"/>
</g>
<defs>
<linearGradient id="paint0_linear" x1="240.689" y1="440.826" x2="240.689" y2="359.014" gradientUnits="userSpaceOnUse">
<stop stop-color="#808080" stop-opacity="0.25"/>
<stop offset="0.54" stop-color="#808080" stop-opacity="0.12"/>
<stop offset="1" stop-color="#808080" stop-opacity="0.1"/>
</linearGradient>
</defs>
</svg>
