<svg width="64" height="64" viewBox="0 0 64 64" fill="none" xmlns="http://www.w3.org/2000/svg">
<g clip-path="url(#clip0)">
<path d="M31.6291 50.8427C31.2878 50.8427 30.9465 50.712 30.6851 50.4533L13.5465 33.3147C13.0451 32.8133 13.0238 32.0107 13.4931 31.4827L26.3385 17.0933C35.3171 6.58933 49.9385 -0.208008 62.6878 0.00799222C63.3998 0.0239922 63.9731 0.597326 63.9891 1.30933C64.2851 14.0667 57.4105 28.68 46.8798 37.6773L32.5145 50.504C32.2638 50.7307 31.9438 50.8427 31.6291 50.8427ZM16.3225 32.32L31.6798 47.6773L45.1278 35.672C54.7438 27.4533 61.1305 14.3547 61.3278 2.67199C49.6451 2.86666 36.5491 9.25333 28.3465 18.848L16.3225 32.32Z" fill="#6C63FF"/>
<path d="M36.7361 60.6027C36.6081 60.6027 36.4774 60.584 36.3547 60.544C35.8747 60.384 35.4801 60.016 35.4107 59.5147L33.5814 46.7493C33.4774 46.0213 33.9841 45.3467 34.7121 45.24C35.4401 45.1253 36.1147 45.64 36.2214 46.3707L37.6507 56.344C42.3228 50.7573 44.9201 43.6747 44.9201 36.4533C44.9201 35.7173 45.5174 35.12 46.2534 35.12C46.9894 35.12 47.5868 35.7173 47.5868 36.4533C47.5868 45.288 44.0081 53.936 37.7681 60.1733C37.5014 60.44 37.1121 60.6027 36.7361 60.6027Z" fill="#6C63FF"/>
<path d="M17.4427 30.432C17.3814 30.432 17.3174 30.4293 17.2534 30.4187L4.48804 28.5893C3.98671 28.5173 3.56804 28.168 3.41071 27.6853C3.25338 27.2053 3.38138 26.6747 3.74138 26.32C10.0694 19.992 18.7147 16.4133 27.5494 16.4133C28.2854 16.4133 28.8827 17.0107 28.8827 17.7467C28.8827 18.4827 28.2854 19.08 27.5494 19.08C20.2934 19.08 13.1734 21.7013 7.64538 26.3467L17.632 27.7787C18.36 27.8853 18.8667 28.5573 18.7627 29.288C18.664 29.952 18.0934 30.432 17.4427 30.432Z" fill="#6C63FF"/>
<path d="M45.688 24.976C43.9787 24.976 42.2721 24.3253 40.9734 23.0267C38.3761 20.4267 38.3761 16.1973 40.9734 13.5973C43.5734 10.9973 47.8027 10.9973 50.4027 13.5973C53 16.1973 53 20.4267 50.4027 23.0267C49.1014 24.328 47.3947 24.976 45.688 24.976ZM45.688 14.3147C44.6641 14.3147 43.6374 14.704 42.8587 15.4827C41.3014 17.0427 41.3014 19.5813 42.8587 21.1413C44.4187 22.6987 46.9574 22.696 48.5174 21.1413C50.0747 19.5813 50.0747 17.0427 48.5174 15.4827C47.736 14.7067 46.712 14.3147 45.688 14.3147ZM49.4587 22.0853H49.4854H49.4587Z" fill="#6C63FF"/>
<path d="M1.33342 64C0.984086 64 0.64542 63.864 0.38942 63.6107C0.042753 63.264 -0.085247 62.7547 0.0560863 62.2853C0.49342 60.8267 4.41075 47.936 7.26409 45.0827C10.4774 41.8693 15.7068 41.8667 18.9201 45.0827C22.1334 48.296 22.1334 53.5253 18.9201 56.7387C16.0668 59.592 3.17609 63.5093 1.71742 63.9467C1.58942 63.9813 1.46142 64 1.33342 64ZM13.0934 45.336C11.6641 45.336 10.2374 45.88 9.14942 46.9653C7.61075 48.5067 5.05075 55.3893 3.36009 60.64C8.60809 58.9493 15.4934 56.3893 17.0321 54.8507C19.2054 52.6773 19.2054 49.1387 17.0321 46.9653C15.9468 45.88 14.5201 45.336 13.0934 45.336Z" fill="#6C63FF"/>
</g>
<defs>
<clipPath id="clip0">
<rect width="64" height="64" fill="white"/>
</clipPath>
</defs>
</svg>
