<svg width="1080" height="1080" viewBox="0 0 1080 1080" fill="none" xmlns="http://www.w3.org/2000/svg">
<g id="undraw_subscriber_vabu 1">
<rect width="1080" height="1080" fill="white"/>
<path id="Vector" d="M569 888C775.002 888 942 721.002 942 515C942 308.998 775.002 142 569 142C362.998 142 196 308.998 196 515C196 721.002 362.998 888 569 888Z" fill="#F2F2F2"/>
<path id="Vector_2" d="M940 889.001C940 904.465 735.842 937.001 484 937.001C232.158 937.001 28 904.465 28 889.001C28 873.537 232.158 881.001 484 881.001C735.842 881.001 940 873.537 940 889.001Z" fill="#3F3D56"/>
<path id="Vector_3" opacity="0.1" d="M940 889.001C940 904.465 735.842 937.001 484 937.001C232.158 937.001 28 904.465 28 889.001C28 873.537 232.158 881.001 484 881.001C735.842 881.001 940 873.537 940 889.001Z" fill="#3F3D56"/>
<path id="Vector_4" d="M484 917.001C735.842 917.001 940 904.465 940 889.001C940 873.537 735.842 861.001 484 861.001C232.158 861.001 28 873.537 28 889.001C28 904.465 232.158 917.001 484 917.001Z" fill="#3F3D56"/>
<path id="Vector_5" opacity="0.1" d="M487 896.001C588.62 896.001 671 888.39 671 879.001C671 869.612 588.62 862.001 487 862.001C385.38 862.001 303 869.612 303 879.001C303 888.39 385.38 896.001 487 896.001Z" fill="#3F3D56"/>
<path id="Vector_6" d="M767 756.913C767 820.117 806.651 871.261 855.652 871.261Z" fill="#3F3D56"/>
<path id="Vector_7" d="M855.652 871.261C855.652 807.347 899.9 755.628 954.582 755.628Z" fill="#367BF5"/>
<path id="Vector_8" d="M799.12 762.642C799.12 822.68 824.405 871.261 855.652 871.261Z" fill="#367BF5"/>
<path id="Vector_9" d="M855.652 871.261C855.652 789.593 906.796 723.508 970 723.508Z" fill="#3F3D56"/>
<path id="Vector_10" d="M837.002 872.067C837.002 872.067 849.574 871.68 853.363 868.982C857.152 866.284 872.702 863.062 873.642 867.389C874.582 871.716 892.536 888.91 878.342 889.025C864.148 889.139 845.361 886.814 841.58 884.51C837.798 882.207 837.002 872.067 837.002 872.067Z" fill="#E6E6E6"/>
<path id="Vector_11" opacity="0.2" d="M878.595 887.519C864.401 887.633 845.615 885.308 841.833 883.004C838.953 881.25 837.805 874.955 837.421 872.051C837.156 872.062 837.002 872.067 837.002 872.067C837.002 872.067 837.798 882.207 841.58 884.51C845.361 886.814 864.148 889.139 878.342 889.025C882.439 888.992 883.855 887.534 883.777 885.375C883.208 886.68 881.645 887.494 878.595 887.519Z" fill="#3F3D56"/>
<path id="Vector_12" d="M609 754.001H383V886.001H609V754.001Z" fill="#3F3D56"/>
<path id="Vector_13" d="M655.918 755.127H489.298C483.834 755.127 478.594 752.956 474.73 749.093C470.867 745.229 468.696 739.989 468.696 734.525V658.188C468.696 657.079 468.922 655.982 469.36 654.964C469.798 653.945 470.438 653.027 471.243 652.264L559.535 568.571C563.065 565.224 567.744 563.359 572.608 563.359C577.472 563.359 582.151 565.224 585.681 568.571L669.863 648.368C671.966 650.362 673.641 652.762 674.786 655.424C675.93 658.086 676.52 660.954 676.52 663.851V734.525C676.52 739.989 674.35 745.229 670.486 749.093C666.623 752.956 661.382 755.127 655.918 755.127V755.127Z" fill="#2F2E41"/>
<path id="Vector_14" opacity="0.1" d="M468.696 659.441H674.789V726.395C674.789 734.015 671.761 741.323 666.373 746.712C660.985 752.1 653.677 755.127 646.056 755.127H497.428C493.655 755.127 489.919 754.384 486.433 752.94C482.947 751.496 479.78 749.38 477.112 746.712C474.443 744.044 472.327 740.876 470.883 737.39C469.439 733.904 468.696 730.168 468.696 726.395V659.441Z" fill="#3F3D56"/>
<path id="Vector_15" d="M637.691 593.847H507.092C500.832 593.847 495.756 598.922 495.756 605.182V735.782C495.756 742.042 500.832 747.117 507.092 747.117H637.691C643.952 747.117 649.027 742.042 649.027 735.782V605.182C649.027 598.922 643.952 593.847 637.691 593.847Z" fill="#367BF5"/>
<path id="Vector_16" opacity="0.1" d="M649.027 662.883V747.117H495.757V662.883L572.392 699.924L649.027 662.883Z" fill="#3F3D56"/>
<path id="Vector_17" d="M572.392 704.686L474.197 657.226C473.59 656.932 472.918 656.798 472.244 656.835C471.571 656.872 470.918 657.079 470.346 657.438C469.775 657.796 469.304 658.294 468.977 658.884C468.651 659.475 468.479 660.138 468.479 660.813V742.47C468.479 744.104 468.801 745.722 469.426 747.231C470.052 748.74 470.968 750.112 472.123 751.267C473.278 752.422 474.65 753.338 476.159 753.964C477.668 754.589 479.286 754.911 480.92 754.911H663.864C667.163 754.911 670.327 753.6 672.66 751.267C674.993 748.934 676.304 745.77 676.304 742.47V662.212C676.304 661.388 676.095 660.579 675.696 659.858C675.298 659.138 674.723 658.531 674.026 658.093C673.329 657.656 672.532 657.403 671.71 657.357C670.888 657.312 670.068 657.476 669.327 657.834L572.392 704.686Z" fill="#2F2E41"/>
<path id="Vector_18" d="M551.826 607.918H508.962V613.98H551.826V607.918Z" fill="#F2F2F2"/>
<path id="Vector_19" d="M632.791 630H505.498V633.463H632.791V630Z" fill="#F2F2F2"/>
<path id="Vector_20" d="M632.791 641.689H505.498V645.153H632.791V641.689Z" fill="#F2F2F2"/>
<path id="Vector_21" d="M632.791 653.38H505.498V656.843H632.791V653.38Z" fill="#F2F2F2"/>
<path id="Vector_22" d="M502.035 614.044C511.838 614.044 519.786 606.082 519.786 596.26C519.786 586.438 511.838 578.476 502.035 578.476C492.231 578.476 484.283 586.438 484.283 596.26C484.283 606.082 492.231 614.044 502.035 614.044Z" fill="white"/>
<path id="Vector_23" d="M502.034 575.446C497.838 575.446 493.737 576.69 490.248 579.021C486.759 581.352 484.04 584.666 482.434 588.542C480.828 592.419 480.408 596.685 481.227 600.8C482.045 604.915 484.066 608.696 487.033 611.663C490 614.63 493.78 616.65 497.896 617.469C502.011 618.287 506.277 617.867 510.153 616.261C514.03 614.656 517.343 611.936 519.675 608.448C522.006 604.959 523.25 600.857 523.25 596.661C523.233 591.039 520.993 585.653 517.018 581.678C513.043 577.702 507.656 575.462 502.034 575.446V575.446ZM497.679 607.972L486.806 597.1L489.856 594.05L497.689 601.883L514.223 585.349L517.273 588.399L497.679 607.972V607.972Z" fill="#2FA84F"/>
<path id="Vector_24" d="M1051.62 253.008H591.623V445.008H1051.62V253.008Z" fill="#3F3D56"/>
<path id="Vector_25" d="M777.453 401.008H725.453C721.905 380.494 721.905 359.523 725.453 339.008H777.453C771.595 359.26 771.595 380.757 777.453 401.008V401.008Z" fill="#FF6584"/>
<path id="Vector_26" d="M922.784 401.008H870.784C867.236 380.494 867.236 359.523 870.784 339.008H922.784C916.926 359.26 916.926 380.757 922.784 401.008V401.008Z" fill="#FF6584"/>
<path id="Vector_27" d="M703.623 359.008H651.623C648.074 338.494 648.074 317.523 651.623 297.008H703.623C697.764 317.26 697.764 338.757 703.623 359.008V359.008Z" fill="#367BF5"/>
<path id="Vector_28" d="M796.623 359.008H848.623C852.171 338.494 852.171 317.523 848.623 297.008H796.623C802.481 317.26 802.481 338.757 796.623 359.008Z" fill="#367BF5"/>
<path id="Vector_29" d="M939.623 359.008H991.623C995.171 338.494 995.171 317.523 991.623 297.008H939.623C945.481 317.26 945.481 338.757 939.623 359.008V359.008Z" fill="#367BF5"/>
<path id="Vector_30" d="M281.879 303.93C280.378 303.807 278.875 304.143 277.57 304.893C276.331 305.949 275.336 307.262 274.654 308.741C271.5 314.279 267.23 319.103 262.115 322.905C258.389 325.634 253.652 329.038 254.29 334.07C254.626 335.732 255.24 337.325 256.106 338.783C259.543 345.722 268.923 351.084 268 359.001C271.415 353.284 266.847 350.457 270.262 344.74C271.888 342.018 274.714 338.944 277.169 340.654C277.991 341.227 278.531 342.253 279.387 342.756C281.429 343.954 283.602 341.663 285.41 340.04C291.645 334.443 300.511 335.909 308.269 337.653C311.932 338.476 315.955 339.557 318.12 343.057C320.967 347.66 315.415 352.631 314.013 357.834C313.898 358.278 313.893 358.742 313.997 359.188C314.101 359.634 314.312 360.048 314.611 360.395C314.91 360.742 315.289 361.011 315.714 361.18C316.14 361.348 316.6 361.411 317.056 361.363C319.384 361.133 322.141 360.945 322.279 359.924C325.208 360.028 328.797 359.696 330.052 356.647C330.435 355.44 330.638 354.183 330.653 352.917C331.114 347.794 333.288 343.12 334.729 338.245C336.169 333.369 336.795 327.655 334.365 323.332C333.497 321.893 332.424 320.589 331.18 319.461C317.386 306.112 299.249 303.91 281.879 303.93Z" fill="#2F2E41"/>
<path id="Vector_31" d="M271 369.001C271 369.001 274 394.001 263 396.001C252 398.001 273 432.001 273 432.001L323 438.001L311 398.001C311 398.001 303 395.001 308 375.001C313 355.001 271 369.001 271 369.001Z" fill="#A0616A"/>
<path id="Vector_32" d="M240.5 798.501L244.5 853.501H265.5L259.5 798.501H240.5Z" fill="#A0616A"/>
<path id="Vector_33" d="M394.5 694.501L397.5 740.501L420.5 730.501L411.5 692.501L394.5 694.501Z" fill="#A0616A"/>
<path id="Vector_34" d="M225.5 588.501C225.5 588.501 226.5 646.501 232.5 665.501C238.5 684.501 237.5 685.501 236.5 688.501C235.5 691.501 234.5 689.501 234.5 694.501C234.5 699.501 232.5 778.501 234.5 785.501C236.5 792.501 228.5 804.501 234.5 805.501C240.5 806.501 268.5 805.501 269.5 799.501C270.5 793.501 261.5 791.501 265.5 787.501C269.5 783.501 275.5 701.501 275.5 701.501L289.5 644.501L315.5 614.501H370.5L387.5 680.501C387.5 680.501 380.5 699.501 385.5 699.501C390.5 699.501 420.5 705.501 420.5 683.501C420.5 661.501 410.5 596.501 408.5 594.501C406.5 592.501 409.5 585.501 406.5 582.501C403.5 579.501 368.5 558.501 355.5 554.501C342.5 550.501 324.263 545.74 324.263 545.74L225.5 588.501Z" fill="#2F2E41"/>
<path id="Vector_35" d="M420.5 722.501C420.5 722.501 405.5 717.501 398.5 732.501C391.5 747.501 394.5 751.501 394.5 751.501C394.5 751.501 417.5 759.501 421.5 755.501C423.24 753.76 428.767 753.156 434.455 753.028C443.118 752.834 445.423 740.577 437.241 737.723C436.997 737.637 436.75 737.563 436.5 737.501C428.5 735.501 420.5 722.501 420.5 722.501Z" fill="#2F2E41"/>
<path id="Vector_36" d="M293.5 385.501C310.069 385.501 323.5 372.069 323.5 355.501C323.5 338.932 310.069 325.501 293.5 325.501C276.931 325.501 263.5 338.932 263.5 355.501C263.5 372.069 276.931 385.501 293.5 385.501Z" fill="#A0616A"/>
<path id="Vector_37" d="M254.5 408.501C254.5 408.501 303.5 418.501 315.5 402.501C327.5 386.501 332.5 447.501 332.5 447.501L338.5 511.501L329.5 546.501C329.5 546.501 282.5 584.501 267.5 587.501C252.5 590.501 229.5 592.501 229.5 592.501C229.5 592.501 236.5 481.501 236.5 479.501C236.5 477.501 254.5 408.501 254.5 408.501Z" fill="#367BF5"/>
<path id="Vector_38" d="M269.402 389.746C269.402 389.746 258.5 383.501 255.5 389.501C252.5 395.501 224.5 410.501 221.5 410.501C218.5 410.501 227.5 493.501 223.5 503.501C219.5 513.501 200.5 586.501 211.5 592.501C222.5 598.501 214.5 586.501 225.5 601.501C236.5 616.501 290.5 616.501 293.5 610.501C296.5 604.501 269.5 559.501 274.5 517.501C279.5 475.501 287.5 417.501 280.5 409.501C273.5 401.501 269.402 389.746 269.402 389.746Z" fill="#3F3D56"/>
<path id="Vector_39" d="M305.5 396.501L306.893 391.707C306.893 391.707 348.5 405.501 350.5 414.501C352.5 423.501 351.5 486.501 344.5 491.501C337.5 496.501 327.5 504.501 334.5 516.501C341.5 528.501 349.5 541.501 355.5 542.501C361.5 543.501 372.5 550.501 369.5 557.501C366.5 564.501 330.5 551.501 330.5 551.501C330.5 551.501 306.5 533.501 307.5 505.501C308.5 477.501 305.5 396.501 305.5 396.501Z" fill="#3F3D56"/>
<path id="Vector_40" d="M340.5 514.501L316.5 559.501C316.5 559.501 281.5 595.501 301.5 599.501C321.5 603.501 332.5 566.501 332.5 566.501L358.5 529.501L340.5 514.501Z" fill="#A0616A"/>
<path id="Vector_41" d="M283.341 311.78C282.132 311.69 280.921 311.925 279.832 312.46C278.849 313.179 278.038 314.108 277.459 315.18C274.792 319.192 271.315 322.602 267.252 325.191C264.219 327.12 260.363 329.525 260.882 333.082C261.164 334.275 261.665 335.405 262.36 336.414C265.168 341.367 266.286 347.1 265.544 352.746L273.884 340.624C275.208 338.7 277.508 336.527 279.506 337.736C280.176 338.14 280.615 338.866 281.312 339.221C282.974 340.068 284.743 338.449 286.215 337.302C291.29 333.346 298.508 334.382 304.823 335.615C307.805 336.197 311.08 336.96 312.842 339.434C315.771 343.546 312.713 349.487 314.422 354.237C314.901 353.902 315.307 353.474 315.617 352.979C315.928 352.484 316.135 351.932 316.228 351.355C318.612 351.429 321.534 351.195 322.555 349.039C322.866 348.194 323.032 347.303 323.045 346.403C323.42 342.782 325.19 339.479 326.362 336.033C327.535 332.587 328.045 328.548 326.066 325.492C325.342 324.457 324.468 323.535 323.474 322.757C312.244 313.322 297.481 311.766 283.341 311.78Z" fill="#2F2E41"/>
<path id="Vector_42" d="M340.5 410.501L349.817 412.974C349.817 412.974 371.5 468.501 366.5 506.501C361.5 544.501 358.5 536.501 358.5 536.501C358.5 536.501 350.5 518.501 332.5 522.501L340.5 410.501Z" fill="#3F3D56"/>
<path id="Vector_43" d="M241.886 846.232C239.474 849.509 239.958 854.193 237.821 857.656C235.97 860.658 232.48 862.232 230.164 864.891C229.425 865.775 228.767 866.723 228.196 867.723C226.047 871.322 224.301 875.934 226.417 879.552C228.119 882.462 231.697 883.6 234.978 884.375C239.125 885.355 243.434 886.139 247.629 885.39C251.825 884.642 255.925 882.073 257.42 878.082C257.714 877.079 258.064 876.093 258.467 875.128C260.741 870.652 267.873 870.603 270.2 866.155C271.829 863.041 270.332 859.278 268.835 856.098L264.265 846.389C262.748 843.167 256.6 845.02 253.395 844.248C249.214 843.241 244.893 842.131 241.886 846.232Z" fill="#2F2E41"/>
<path id="Vector_44" d="M262.202 621.085L279.934 645.23L349.083 609.503L353.072 607.451L266.676 601.871L262.202 621.085Z" fill="#367BF5"/>
<path id="Vector_45" opacity="0.2" d="M263.165 622.395L279.934 645.23L349.083 609.503L263.165 622.395Z" fill="#3F3D56"/>
<path id="Vector_46" d="M256.704 649.245L259.911 628.306L353.42 607.471L256.704 649.245Z" fill="#367BF5"/>
<path id="Vector_47" d="M208.5 534.501L250.5 599.501C250.5 599.501 276.5 632.501 284.5 617.501C292.5 602.501 256.5 577.501 256.5 577.501L229.5 527.501L208.5 534.501Z" fill="#A0616A"/>
<path id="Vector_48" d="M229.5 412.501L221.5 410.501C221.5 410.501 205.5 415.501 201.5 436.501C197.5 457.501 200.5 541.501 205.5 542.501C210.5 543.501 230.195 527.875 233.348 531.188C236.5 534.501 226.5 517.501 229.5 508.501C232.5 499.501 229.5 412.501 229.5 412.501Z" fill="#3F3D56"/>
</g>
</svg>
