<svg width="1080" height="1080" viewBox="0 0 1080 1080" fill="none" xmlns="http://www.w3.org/2000/svg">
<g id="undraw_mobile_wireframe_euf4 1">
<rect width="1080" height="1080" fill="none"/>
<path id="Vector" d="M768 881C875.696 881 963 793.696 963 686C963 578.304 875.696 491 768 491C660.304 491 573 578.304 573 686C573 793.696 660.304 881 768 881Z" fill="#F2F2F2"/>
<path id="Vector_2" d="M1017.51 759.562H54V761.803H1017.51V759.562Z" fill="#3F3D56"/>
<path id="Vector_3" d="M178.678 354.694C170.405 335.174 149.345 331.487 149.345 331.487C149.345 331.487 129.068 326.078 112.134 351.84C96.3498 375.853 75.9953 398.351 101.809 407.936L108.627 393.616L109.445 410.096C113.199 410.878 116.993 411.454 120.809 411.821C149.441 414.729 176.432 419.566 176.932 409.218C177.596 395.463 186.638 373.477 178.678 354.694Z" fill="#2F2E41"/>
<path id="Vector_4" d="M91.3241 511.016L89.4817 557.997C89.4817 557.997 70.1366 595.766 85.797 594.845C101.457 593.924 99.6149 557.997 99.6149 557.997L105.142 513.78L91.3241 511.016Z" fill="#FFB8B8"/>
<path id="Vector_5" d="M197.262 502.726L202.789 549.707C202.789 549.707 219.37 574.579 206.474 582.87C193.577 591.16 193.577 553.391 193.577 553.391L179.759 505.489L197.262 502.726Z" fill="#FFB8B8"/>
<path id="Vector_6" d="M177.917 590.239L161.335 654.723C161.335 654.723 153.965 680.516 143.832 693.413L140.147 700.783L125.408 698.94L135.541 657.487L141.99 581.027L177.917 590.239Z" fill="#FFB8B8"/>
<path id="Vector_7" opacity="0.1" d="M177.917 590.239L161.335 654.723C161.335 654.723 153.965 680.516 143.832 693.413L140.147 700.783L125.408 698.94L135.541 657.487L141.99 581.027L177.917 590.239Z" fill="#3F3D56"/>
<path id="Vector_8" d="M121.762 688.656L146.955 694.489L136.572 718.965C136.572 718.965 140.792 733.618 136.772 741.378C132.752 749.138 133.332 763.217 133.332 763.217L127.872 762.357C127.872 762.357 114.616 787.313 98.9531 780.184C83.2901 773.054 99.9496 756.094 99.9496 756.094C99.9496 756.094 113.492 729.318 115.212 718.398C116.932 707.479 121.762 688.656 121.762 688.656Z" fill="#2F2E41"/>
<path id="Vector_9" opacity="0.1" d="M121.762 688.656L146.955 694.489L136.572 718.965C136.572 718.965 140.792 733.618 136.772 741.378C132.752 749.138 133.332 763.217 133.332 763.217L127.872 762.357C127.872 762.357 114.616 787.313 98.9531 780.184C83.2901 773.054 99.9496 756.094 99.9496 756.094C99.9496 756.094 113.492 729.318 115.212 718.398C116.932 707.479 121.762 688.656 121.762 688.656Z" fill="#3F3D56"/>
<path id="Vector_10" d="M100.536 576.421L114.354 645.511C114.354 645.511 109.748 679.595 115.275 700.783L120.802 721.049H139.226V646.432C139.226 646.432 140.148 585.633 137.384 581.027C134.62 576.421 100.536 576.421 100.536 576.421Z" fill="#FFB8B8"/>
<path id="Vector_11" d="M142.911 713.68L117.118 715.522L123.566 741.315C123.566 741.315 117.118 755.133 119.881 763.424C122.645 771.715 119.881 785.533 119.881 785.533H125.408C125.408 785.533 134.62 812.248 151.202 807.642C167.783 803.036 153.966 783.69 153.966 783.69C153.966 783.69 144.754 755.133 144.754 744.079C144.754 733.025 142.911 713.68 142.911 713.68Z" fill="#2F2E41"/>
<path id="Vector_12" d="M149.359 394.946C163.096 394.946 174.232 383.81 174.232 370.073C174.232 356.337 163.096 345.201 149.359 345.201C135.623 345.201 124.487 356.337 124.487 370.073C124.487 383.81 135.623 394.946 149.359 394.946Z" fill="#FFB8B8"/>
<path id="Vector_13" d="M132.317 379.746C132.317 379.746 134.16 411.067 128.633 412.909C123.105 414.751 157.19 412.909 157.19 412.909C157.19 412.909 152.584 393.564 157.19 388.037C161.796 382.51 132.317 379.746 132.317 379.746Z" fill="#FFB8B8"/>
<path id="Vector_14" d="M157.65 407.842C157.65 407.842 133.699 406 129.093 407.842C124.487 409.685 111.59 418.897 111.59 418.897L118.039 476.932L170.547 487.986L178.838 476.011L187.128 458.508L183.444 436.4L182.522 423.503L157.65 407.842Z" fill="#367BF5"/>
<path id="Vector_15" d="M106.984 422.582C106.984 422.582 95.0089 425.345 94.0877 434.557C93.1665 443.769 93.1665 466.799 94.0877 470.484C95.0089 474.169 94.0877 476.011 93.1665 476.932C92.2453 477.853 90.4029 476.011 92.2453 478.775C94.0877 481.538 94.0877 481.538 93.1665 484.302C92.2453 487.065 89.4817 483.381 91.3241 487.986C93.1665 492.592 94.0877 493.514 93.1665 494.435C92.2453 495.356 89.4817 516.544 89.4817 516.544L105.142 519.307L120.802 464.957L106.984 422.582Z" fill="#367BF5"/>
<path id="Vector_16" d="M178.838 422.582C180.587 422.679 182.279 423.243 183.736 424.215C185.194 425.187 186.366 426.531 187.128 428.109C189.892 433.636 197.262 469.563 196.34 472.326C195.419 475.09 193.577 471.405 195.419 476.932C197.262 482.459 195.419 481.538 196.34 485.223C197.262 488.908 192.656 485.223 196.34 488.908C200.025 492.592 201.868 493.514 200.025 495.356C198.183 497.198 195.419 493.514 198.183 497.198C200.946 500.883 200.946 506.41 200.946 506.41L178.838 511.016L172.389 459.429L178.838 422.582Z" fill="#367BF5"/>
<path id="Vector_17" d="M104.101 421.117L108.626 418.854C109.084 418.625 109.582 418.489 110.093 418.454C110.603 418.419 111.115 418.485 111.6 418.649C112.084 418.813 112.532 419.071 112.916 419.409C113.3 419.747 113.614 420.158 113.839 420.617L134.62 463.114L157.65 477.853L174.232 470.484C174.232 470.484 186.207 452.06 182.523 442.848C180.024 436.602 177.098 426.992 175.472 421.451C175.376 421.125 175.384 420.778 175.493 420.456C175.602 420.134 175.808 419.854 176.082 419.653C176.356 419.452 176.685 419.34 177.025 419.333C177.365 419.326 177.698 419.424 177.981 419.613L181.121 421.706C182.126 422.376 182.826 423.415 183.071 424.598L189.892 457.587L180.68 476.932V495.356L187.128 594.845C187.128 594.845 163.177 591.16 139.226 586.554C115.275 581.948 84.8757 578.264 84.8757 578.264C84.8757 578.264 100.536 497.198 113.433 483.38C113.433 483.38 113.433 473.247 115.275 472.326C117.118 471.405 118.96 464.957 118.96 464.957L102.274 426.11C101.884 425.202 101.855 424.179 102.195 423.251C102.535 422.322 103.217 421.559 104.101 421.117V421.117Z" fill="#2F2E41"/>
<path id="Vector_18" d="M174 347.602L152.895 336.547L123.749 341.07L117.719 367.703L132.73 367.125L136.923 357.341V366.964L143.85 366.698L147.87 351.12L150.382 367.703L175.005 367.2L174 347.602Z" fill="#2F2E41"/>
<path id="Vector_19" d="M124.027 374.91C125.553 374.91 126.79 372.744 126.79 370.073C126.79 367.402 125.553 365.237 124.027 365.237C122.5 365.237 121.263 367.402 121.263 370.073C121.263 372.744 122.5 374.91 124.027 374.91Z" fill="#FFB8B8"/>
<path id="Vector_20" d="M864.385 258H242.385V577.006H864.385V258Z" fill="#3F3D56"/>
<path id="Vector_21" d="M509.029 433.737H380.069C379.877 433.737 379.687 433.699 379.51 433.625C379.333 433.552 379.172 433.444 379.036 433.309C378.9 433.173 378.793 433.012 378.719 432.835C378.646 432.658 378.608 432.468 378.608 432.276V380.693C378.608 380.501 378.646 380.311 378.719 380.134C378.793 379.956 378.9 379.795 379.036 379.66C379.172 379.524 379.333 379.417 379.51 379.343C379.687 379.27 379.877 379.232 380.069 379.232H509.029C509.221 379.232 509.411 379.27 509.588 379.343C509.765 379.416 509.926 379.524 510.062 379.66C510.197 379.795 510.305 379.956 510.378 380.134C510.452 380.311 510.489 380.501 510.489 380.693V432.276C510.489 432.468 510.452 432.658 510.378 432.835C510.305 433.012 510.197 433.173 510.062 433.309C509.926 433.445 509.765 433.552 509.588 433.626C509.411 433.699 509.221 433.737 509.029 433.737V433.737ZM381.529 430.816H507.568V382.153H381.529V430.816Z" fill="white"/>
<path id="Vector_22" d="M434.877 467.589H380.069C379.877 467.589 379.687 467.552 379.51 467.478C379.333 467.405 379.172 467.297 379.036 467.162C378.9 467.026 378.793 466.865 378.719 466.688C378.646 466.511 378.608 466.321 378.608 466.129V444.205C378.608 444.013 378.646 443.823 378.719 443.646C378.793 443.469 378.9 443.308 379.036 443.172C379.172 443.037 379.333 442.929 379.51 442.856C379.687 442.782 379.877 442.744 380.069 442.745H434.877C435.069 442.744 435.259 442.782 435.436 442.855C435.613 442.929 435.774 443.036 435.91 443.172C436.045 443.308 436.153 443.469 436.226 443.646C436.3 443.823 436.337 444.013 436.337 444.205V466.129C436.337 466.321 436.3 466.511 436.226 466.688C436.153 466.865 436.045 467.026 435.91 467.162C435.774 467.297 435.613 467.405 435.436 467.478C435.259 467.552 435.069 467.589 434.877 467.589V467.589ZM381.529 464.668H433.416V445.665H381.529V464.668Z" fill="white"/>
<path id="Vector_23" d="M509.029 467.589H454.221C454.029 467.589 453.839 467.552 453.662 467.478C453.484 467.405 453.323 467.297 453.188 467.162C453.052 467.026 452.945 466.865 452.871 466.688C452.798 466.511 452.76 466.321 452.76 466.129V444.205C452.76 444.013 452.798 443.823 452.871 443.646C452.945 443.469 453.052 443.308 453.188 443.172C453.323 443.036 453.484 442.929 453.662 442.855C453.839 442.782 454.029 442.744 454.221 442.745H509.029C509.221 442.744 509.411 442.782 509.588 442.855C509.765 442.929 509.926 443.036 510.062 443.172C510.197 443.308 510.305 443.469 510.378 443.646C510.452 443.823 510.489 444.013 510.489 444.205V466.129C510.489 466.321 510.452 466.511 510.378 466.688C510.305 466.865 510.197 467.026 510.062 467.162C509.926 467.297 509.765 467.405 509.588 467.478C509.411 467.552 509.221 467.589 509.029 467.589V467.589ZM455.681 464.668H507.568V445.665H455.681V464.668Z" fill="white"/>
<path id="Vector_24" d="M507.417 432.125C507.235 432.125 507.054 432.09 506.884 432.024L379.535 382.052C379.357 381.982 379.194 381.877 379.056 381.744C378.918 381.611 378.807 381.452 378.73 381.277C378.654 381.101 378.612 380.912 378.609 380.72C378.605 380.528 378.64 380.338 378.71 380.159C378.78 379.981 378.884 379.818 379.017 379.68C379.15 379.542 379.309 379.431 379.485 379.354C379.661 379.278 379.85 379.236 380.041 379.233C380.233 379.229 380.424 379.263 380.602 379.333L507.951 429.305C508.267 429.43 508.531 429.661 508.695 429.958C508.86 430.256 508.915 430.602 508.852 430.936C508.789 431.27 508.611 431.572 508.349 431.789C508.087 432.006 507.757 432.125 507.417 432.125V432.125Z" fill="white"/>
<path id="Vector_25" d="M380.069 433.737C379.73 433.737 379.401 433.619 379.139 433.403C378.877 433.186 378.699 432.886 378.634 432.553C378.57 432.219 378.624 431.874 378.787 431.576C378.949 431.278 379.211 431.046 379.526 430.92L508.487 379.336C508.846 379.194 509.248 379.199 509.603 379.352C509.958 379.505 510.239 379.793 510.382 380.152C510.526 380.511 510.521 380.913 510.369 381.268C510.217 381.624 509.93 381.905 509.571 382.049L380.611 433.632C380.439 433.701 380.255 433.737 380.069 433.737V433.737Z" fill="white"/>
<path id="Vector_26" d="M434.071 466.783C433.888 466.783 433.707 466.749 433.536 466.682L380.339 445.725C379.979 445.583 379.691 445.303 379.537 444.948C379.383 444.593 379.376 444.192 379.518 443.832C379.66 443.472 379.939 443.182 380.293 443.028C380.648 442.873 381.05 442.866 381.41 443.007L434.606 463.964C434.922 464.088 435.186 464.319 435.35 464.617C435.514 464.915 435.569 465.261 435.506 465.595C435.443 465.929 435.265 466.231 435.003 466.448C434.741 466.665 434.411 466.783 434.071 466.783V466.783Z" fill="white"/>
<path id="Vector_27" d="M380.875 466.783C380.531 466.784 380.199 466.663 379.936 466.442C379.673 466.221 379.496 465.915 379.436 465.577C379.377 465.239 379.438 464.89 379.61 464.593C379.782 464.296 380.053 464.068 380.375 463.951L433.572 444.607C433.752 444.541 433.944 444.51 434.136 444.518C434.328 444.526 434.517 444.572 434.691 444.653C434.866 444.733 435.022 444.848 435.153 444.99C435.283 445.131 435.383 445.297 435.449 445.478C435.515 445.658 435.544 445.85 435.536 446.042C435.527 446.234 435.48 446.423 435.399 446.597C435.317 446.771 435.202 446.927 435.06 447.057C434.918 447.186 434.751 447.286 434.57 447.351L381.374 466.695C381.214 466.753 381.045 466.783 380.875 466.783V466.783Z" fill="white"/>
<path id="Vector_28" d="M508.223 466.783C508.048 466.783 507.874 466.752 507.71 466.691L456.126 447.347C455.763 447.211 455.47 446.936 455.309 446.583C455.149 446.23 455.136 445.828 455.272 445.466C455.408 445.103 455.683 444.809 456.035 444.649C456.388 444.489 456.79 444.475 457.153 444.611L508.736 463.955C509.057 464.075 509.325 464.304 509.494 464.602C509.663 464.9 509.722 465.247 509.661 465.584C509.599 465.92 509.422 466.225 509.159 466.444C508.897 466.663 508.565 466.784 508.223 466.783V466.783Z" fill="white"/>
<path id="Vector_29" d="M456.64 465.172C456.294 465.172 455.96 465.049 455.696 464.826C455.433 464.603 455.257 464.293 455.2 463.952C455.143 463.612 455.208 463.262 455.385 462.965C455.562 462.668 455.838 462.443 456.165 462.331L507.748 444.599C507.93 444.535 508.122 444.508 508.314 444.52C508.506 444.531 508.694 444.58 508.867 444.664C509.04 444.748 509.194 444.865 509.322 445.009C509.449 445.153 509.547 445.32 509.61 445.502C509.672 445.684 509.698 445.876 509.686 446.068C509.674 446.26 509.624 446.448 509.54 446.62C509.455 446.793 509.337 446.947 509.193 447.074C509.048 447.201 508.88 447.298 508.698 447.36L457.114 465.092C456.962 465.145 456.801 465.172 456.64 465.172Z" fill="white"/>
<path id="Vector_30" d="M300.474 351.452C296.142 351.452 291.906 350.167 288.304 347.76C284.701 345.353 281.893 341.932 280.235 337.929C278.577 333.926 278.143 329.521 278.989 325.272C279.834 321.022 281.92 317.119 284.984 314.055C288.048 310.991 291.951 308.905 296.201 308.06C300.45 307.214 304.855 307.648 308.858 309.306C312.861 310.964 316.282 313.772 318.689 317.375C321.096 320.977 322.381 325.213 322.381 329.546C322.375 335.354 320.065 340.922 315.958 345.029C311.851 349.136 306.282 351.446 300.474 351.452V351.452ZM300.474 310.56C296.719 310.56 293.049 311.673 289.926 313.759C286.804 315.846 284.371 318.811 282.934 322.28C281.497 325.749 281.121 329.567 281.853 333.249C282.586 336.932 284.394 340.315 287.049 342.971C289.705 345.626 293.087 347.434 296.77 348.167C300.453 348.899 304.271 348.523 307.74 347.086C311.209 345.649 314.174 343.216 316.26 340.093C318.347 336.971 319.46 333.301 319.46 329.546C319.454 324.512 317.452 319.686 313.893 316.127C310.334 312.568 305.508 310.565 300.474 310.56Z" fill="white"/>
<path id="Vector_31" d="M445.059 351.452C440.726 351.452 436.49 350.167 432.888 347.76C429.285 345.353 426.477 341.932 424.819 337.929C423.161 333.926 422.728 329.521 423.573 325.272C424.418 321.022 426.505 317.119 429.568 314.055C432.632 310.991 436.535 308.905 440.785 308.06C445.034 307.214 449.439 307.648 453.442 309.306C457.445 310.964 460.866 313.772 463.273 317.375C465.681 320.977 466.965 325.213 466.965 329.546C466.959 335.354 464.649 340.922 460.542 345.029C456.435 349.136 450.867 351.446 445.059 351.452V351.452ZM445.059 310.56C441.304 310.56 437.633 311.673 434.511 313.759C431.388 315.846 428.955 318.811 427.518 322.28C426.081 325.749 425.705 329.567 426.438 333.249C427.17 336.932 428.978 340.315 431.634 342.971C434.289 345.626 437.672 347.434 441.355 348.167C445.037 348.899 448.855 348.523 452.324 347.086C455.793 345.649 458.758 343.216 460.845 340.093C462.931 336.971 464.044 333.301 464.044 329.546C464.039 324.512 462.036 319.686 458.477 316.127C454.918 312.568 450.092 310.566 445.059 310.56V310.56Z" fill="white"/>
<path id="Vector_32" d="M624.694 351.452C620.361 351.452 616.125 350.167 612.523 347.76C608.92 345.353 606.113 341.932 604.454 337.929C602.796 333.926 602.363 329.521 603.208 325.272C604.053 321.022 606.14 317.119 609.203 314.055C612.267 310.991 616.17 308.905 620.42 308.06C624.669 307.214 629.074 307.648 633.077 309.306C637.08 310.964 640.501 313.772 642.908 317.375C645.316 320.977 646.6 325.213 646.6 329.546C646.594 335.354 644.284 340.922 640.177 345.029C636.07 349.136 630.502 351.446 624.694 351.452V351.452ZM624.694 310.56C620.939 310.56 617.268 311.673 614.146 313.759C611.023 315.846 608.59 318.811 607.153 322.28C605.716 325.749 605.34 329.567 606.073 333.249C606.805 336.932 608.613 340.315 611.269 342.971C613.924 345.626 617.307 347.434 620.99 348.167C624.672 348.899 628.49 348.523 631.959 347.086C635.428 345.649 638.393 343.216 640.48 340.093C642.566 336.971 643.679 333.301 643.679 329.546C643.674 324.512 641.671 319.686 638.112 316.127C634.553 312.568 629.727 310.566 624.694 310.56V310.56Z" fill="white"/>
<path id="Vector_33" d="M812.896 351.452C808.563 351.452 804.328 350.167 800.725 347.76C797.123 345.353 794.315 341.932 792.657 337.929C790.999 333.926 790.565 329.521 791.41 325.272C792.255 321.022 794.342 317.119 797.405 314.055C800.469 310.991 804.373 308.905 808.622 308.06C812.872 307.214 817.276 307.648 821.279 309.306C825.282 310.964 828.703 313.772 831.111 317.375C833.518 320.977 834.803 325.213 834.803 329.546C834.796 335.354 832.486 340.922 828.379 345.029C824.272 349.136 818.704 351.446 812.896 351.452V351.452ZM812.896 310.56C809.141 310.56 805.47 311.673 802.348 313.759C799.226 315.846 796.792 318.811 795.355 322.28C793.918 325.749 793.542 329.567 794.275 333.249C795.007 336.932 796.816 340.315 799.471 342.971C802.126 345.626 805.509 347.434 809.192 348.167C812.875 348.899 816.692 348.523 820.161 347.086C823.631 345.649 826.596 343.216 828.682 340.093C830.768 336.971 831.882 333.301 831.882 329.546C831.876 324.512 829.874 319.686 826.314 316.127C822.755 312.568 817.929 310.566 812.896 310.56V310.56Z" fill="white"/>
<path id="Vector_34" d="M441.184 336.307V335.202L442.594 333.831C445.991 330.6 447.526 328.88 447.546 326.876C447.582 326.522 447.539 326.165 447.418 325.83C447.298 325.496 447.104 325.193 446.851 324.943C446.597 324.694 446.291 324.505 445.955 324.39C445.618 324.275 445.26 324.237 444.907 324.279C443.865 324.317 442.867 324.714 442.084 325.402L441.51 324.134C442.567 323.255 443.9 322.777 445.275 322.784C445.804 322.737 446.337 322.803 446.839 322.978C447.34 323.153 447.799 323.432 448.184 323.798C448.569 324.164 448.871 324.607 449.072 325.099C449.272 325.591 449.366 326.12 449.346 326.65C449.346 329.105 447.566 331.09 444.763 333.79L443.699 334.773V334.813H449.674V336.307H441.184Z" fill="white"/>
<path id="Vector_35" d="M299.989 324.574H299.949L297.637 325.822L297.29 324.451L300.194 322.896H301.729V336.195H299.989V324.574Z" fill="white"/>
<path id="Vector_36" d="M814.205 336.194V332.574H808.027V331.387L813.96 322.897H815.904V331.162H817.765V332.574H815.904V336.194H814.205ZM814.205 331.162V326.724C814.205 326.028 814.226 325.332 814.268 324.636H814.205C813.797 325.414 813.469 325.986 813.101 326.601L809.848 331.121V331.162L814.205 331.162Z" fill="white"/>
<path id="Vector_37" d="M622.444 334.128C623.338 334.656 624.352 334.945 625.39 334.967C627.703 334.967 628.419 333.493 628.398 332.389C628.378 330.527 626.699 329.729 624.962 329.729H623.958V328.379H624.962C626.271 328.379 627.928 327.704 627.928 326.128C627.928 325.064 627.252 324.123 625.595 324.123C624.642 324.15 623.717 324.456 622.937 325.004L622.466 323.695C623.5 323.021 624.709 322.665 625.943 322.671C628.562 322.671 629.748 324.226 629.748 325.843C629.734 326.561 629.487 327.254 629.044 327.819C628.601 328.383 627.986 328.788 627.292 328.972V329.014C628.114 329.133 628.866 329.543 629.41 330.17C629.955 330.797 630.256 331.599 630.259 332.429C630.259 334.557 628.601 336.42 625.411 336.42C624.199 336.436 623.004 336.124 621.954 335.519L622.444 334.128Z" fill="white"/>
<path id="Vector_38" d="M693.045 466.129H564.085C563.893 466.129 563.703 466.091 563.526 466.018C563.349 465.944 563.188 465.837 563.052 465.701C562.917 465.566 562.809 465.404 562.736 465.227C562.662 465.05 562.625 464.86 562.625 464.668V382.153C562.625 381.961 562.662 381.771 562.736 381.594C562.809 381.417 562.917 381.256 563.052 381.12C563.188 380.984 563.349 380.877 563.526 380.803C563.703 380.73 563.893 380.692 564.085 380.693H693.045C693.237 380.692 693.427 380.73 693.604 380.803C693.781 380.877 693.942 380.984 694.078 381.12C694.214 381.256 694.321 381.417 694.395 381.594C694.468 381.771 694.506 381.961 694.506 382.153V464.668C694.506 464.86 694.468 465.05 694.395 465.227C694.321 465.404 694.214 465.566 694.078 465.701C693.942 465.837 693.781 465.944 693.604 466.018C693.427 466.091 693.237 466.129 693.045 466.129V466.129ZM565.546 463.208H691.585V383.613H565.546V463.208Z" fill="white"/>
<path id="Vector_39" d="M669.967 398.948H591.103C590.716 398.948 590.344 398.794 590.071 398.52C589.797 398.246 589.643 397.875 589.643 397.488C589.643 397.1 589.797 396.729 590.071 396.455C590.344 396.181 590.716 396.027 591.103 396.027H669.967C670.355 396.027 670.726 396.181 671 396.455C671.274 396.729 671.428 397.1 671.428 397.488C671.428 397.875 671.274 398.246 671 398.52C670.726 398.794 670.355 398.948 669.967 398.948V398.948Z" fill="white"/>
<path id="Vector_40" d="M669.967 412.092H591.103C590.911 412.093 590.721 412.055 590.543 411.982C590.366 411.909 590.204 411.801 590.068 411.666C589.932 411.53 589.824 411.369 589.751 411.191C589.677 411.014 589.639 410.824 589.639 410.632C589.639 410.44 589.677 410.249 589.751 410.072C589.824 409.894 589.932 409.733 590.068 409.598C590.204 409.462 590.366 409.354 590.543 409.281C590.721 409.208 590.911 409.171 591.103 409.171H669.967C670.355 409.171 670.726 409.325 671 409.599C671.274 409.873 671.428 410.244 671.428 410.632C671.428 411.019 671.274 411.391 671 411.664C670.726 411.938 670.355 412.092 669.967 412.092V412.092Z" fill="white"/>
<path id="Vector_41" d="M669.967 425.236H591.103C590.716 425.236 590.344 425.082 590.071 424.808C589.797 424.535 589.643 424.163 589.643 423.776C589.643 423.388 589.797 423.017 590.071 422.743C590.344 422.469 590.716 422.315 591.103 422.315H669.967C670.355 422.315 670.726 422.469 671 422.743C671.274 423.017 671.428 423.388 671.428 423.776C671.428 424.163 671.274 424.535 671 424.808C670.726 425.082 670.355 425.236 669.967 425.236V425.236Z" fill="white"/>
<path id="Vector_42" d="M669.967 438.38H591.103C590.911 438.381 590.721 438.343 590.543 438.27C590.366 438.197 590.204 438.089 590.068 437.954C589.932 437.818 589.824 437.657 589.751 437.48C589.677 437.302 589.639 437.112 589.639 436.92C589.639 436.728 589.677 436.537 589.751 436.36C589.824 436.183 589.932 436.021 590.068 435.886C590.204 435.75 590.366 435.643 590.543 435.569C590.721 435.496 590.911 435.459 591.103 435.459H669.967C670.355 435.459 670.726 435.613 671 435.887C671.274 436.161 671.428 436.532 671.428 436.92C671.428 437.307 671.274 437.679 671 437.952C670.726 438.226 670.355 438.38 669.967 438.38V438.38Z" fill="white"/>
<path id="Vector_43" d="M669.967 451.524H591.103C590.716 451.524 590.344 451.37 590.071 451.096C589.797 450.823 589.643 450.451 589.643 450.064C589.643 449.676 589.797 449.305 590.071 449.031C590.344 448.757 590.716 448.603 591.103 448.603H669.967C670.16 448.603 670.35 448.64 670.527 448.713C670.705 448.787 670.867 448.894 671.003 449.03C671.139 449.165 671.246 449.327 671.32 449.504C671.394 449.681 671.432 449.872 671.432 450.064C671.432 450.256 671.394 450.446 671.32 450.624C671.246 450.801 671.139 450.962 671.003 451.098C670.867 451.233 670.705 451.341 670.527 451.414C670.35 451.487 670.16 451.525 669.967 451.524Z" fill="white"/>
<path id="Vector_44" d="M270.311 384.749C270.7 384.735 271.068 384.571 271.339 384.291C271.609 384.011 271.76 383.638 271.76 383.249C271.76 382.859 271.609 382.486 271.339 382.206C271.068 381.926 270.7 381.762 270.311 381.749C269.922 381.762 269.554 381.926 269.283 382.206C269.013 382.486 268.862 382.859 268.862 383.249C268.862 383.638 269.013 384.011 269.283 384.291C269.554 384.571 269.922 384.735 270.311 384.749V384.749Z" fill="white"/>
<path id="Vector_45" d="M270.311 400.813C270.7 400.8 271.068 400.636 271.339 400.356C271.609 400.076 271.76 399.703 271.76 399.313C271.76 398.924 271.609 398.551 271.339 398.271C271.068 397.991 270.7 397.827 270.311 397.813C269.922 397.827 269.554 397.991 269.283 398.271C269.013 398.551 268.862 398.924 268.862 399.313C268.862 399.703 269.013 400.076 269.283 400.356C269.554 400.636 269.922 400.8 270.311 400.813V400.813Z" fill="white"/>
<path id="Vector_46" d="M270.311 416.878C270.7 416.865 271.068 416.701 271.339 416.421C271.609 416.141 271.76 415.767 271.76 415.378C271.76 414.989 271.609 414.615 271.339 414.336C271.068 414.056 270.7 413.892 270.311 413.878C269.922 413.892 269.554 414.056 269.283 414.336C269.013 414.615 268.862 414.989 268.862 415.378C268.862 415.767 269.013 416.141 269.283 416.421C269.554 416.701 269.922 416.865 270.311 416.878V416.878Z" fill="white"/>
<path id="Vector_47" d="M270.311 432.943C270.7 432.93 271.068 432.766 271.339 432.486C271.609 432.206 271.76 431.832 271.76 431.443C271.76 431.054 271.609 430.68 271.339 430.401C271.068 430.121 270.7 429.957 270.311 429.943C269.922 429.957 269.554 430.121 269.283 430.401C269.013 430.68 268.862 431.054 268.862 431.443C268.862 431.832 269.013 432.206 269.283 432.486C269.554 432.766 269.922 432.93 270.311 432.943V432.943Z" fill="white"/>
<path id="Vector_48" d="M270.311 449.008C270.7 448.995 271.068 448.831 271.339 448.551C271.609 448.271 271.76 447.897 271.76 447.508C271.76 447.119 271.609 446.745 271.339 446.465C271.068 446.186 270.7 446.022 270.311 446.008C269.922 446.022 269.554 446.186 269.283 446.465C269.013 446.745 268.862 447.119 268.862 447.508C268.862 447.897 269.013 448.271 269.283 448.551C269.554 448.831 269.922 448.995 270.311 449.008V449.008Z" fill="white"/>
<path id="Vector_49" d="M270.311 465.073C270.7 465.06 271.068 464.896 271.339 464.616C271.609 464.336 271.76 463.962 271.76 463.573C271.76 463.184 271.609 462.81 271.339 462.53C271.068 462.251 270.7 462.087 270.311 462.073C269.922 462.087 269.554 462.251 269.283 462.53C269.013 462.81 268.862 463.184 268.862 463.573C268.862 463.962 269.013 464.336 269.283 464.616C269.554 464.896 269.922 465.06 270.311 465.073V465.073Z" fill="white"/>
<path id="Vector_50" d="M331.144 384.709H284.409C284.022 384.709 283.651 384.555 283.377 384.281C283.103 384.007 282.949 383.636 282.949 383.248C282.949 382.861 283.103 382.489 283.377 382.216C283.651 381.942 284.022 381.788 284.409 381.788H331.144C331.531 381.788 331.903 381.942 332.176 382.216C332.45 382.489 332.604 382.861 332.604 383.248C332.604 383.636 332.45 384.007 332.176 384.281C331.903 384.555 331.531 384.709 331.144 384.709H331.144Z" fill="white"/>
<path id="Vector_51" d="M331.144 400.774H284.409C284.217 400.774 284.027 400.737 283.849 400.664C283.672 400.59 283.51 400.483 283.374 400.347C283.238 400.212 283.13 400.05 283.057 399.873C282.983 399.696 282.945 399.505 282.945 399.313C282.945 399.121 282.983 398.931 283.057 398.753C283.13 398.576 283.238 398.415 283.374 398.279C283.51 398.144 283.672 398.036 283.849 397.963C284.027 397.89 284.217 397.852 284.409 397.853H331.144C331.336 397.852 331.526 397.89 331.704 397.963C331.881 398.036 332.043 398.144 332.179 398.279C332.315 398.415 332.423 398.576 332.496 398.753C332.57 398.931 332.608 399.121 332.608 399.313C332.608 399.505 332.57 399.696 332.496 399.873C332.423 400.05 332.315 400.212 332.179 400.347C332.043 400.483 331.881 400.59 331.704 400.664C331.526 400.737 331.336 400.774 331.144 400.774H331.144Z" fill="white"/>
<path id="Vector_52" d="M331.144 416.839H284.409C284.022 416.839 283.651 416.685 283.377 416.411C283.103 416.137 282.949 415.766 282.949 415.378C282.949 414.991 283.103 414.619 283.377 414.345C283.651 414.072 284.022 413.918 284.409 413.918H331.144C331.336 413.917 331.526 413.955 331.704 414.028C331.881 414.101 332.043 414.208 332.179 414.344C332.315 414.48 332.423 414.641 332.496 414.818C332.57 414.996 332.608 415.186 332.608 415.378C332.608 415.57 332.57 415.761 332.496 415.938C332.423 416.115 332.315 416.277 332.179 416.412C332.043 416.548 331.881 416.655 331.704 416.729C331.526 416.802 331.336 416.839 331.144 416.839H331.144Z" fill="white"/>
<path id="Vector_53" d="M331.144 432.904H284.409C284.022 432.904 283.651 432.75 283.377 432.476C283.103 432.202 282.949 431.83 282.949 431.443C282.949 431.056 283.103 430.684 283.377 430.41C283.651 430.136 284.022 429.983 284.409 429.983H331.144C331.336 429.982 331.526 430.02 331.704 430.093C331.881 430.166 332.043 430.273 332.179 430.409C332.315 430.545 332.423 430.706 332.496 430.883C332.57 431.061 332.608 431.251 332.608 431.443C332.608 431.635 332.57 431.825 332.496 432.003C332.423 432.18 332.315 432.341 332.179 432.477C332.043 432.613 331.881 432.72 331.704 432.793C331.526 432.867 331.336 432.904 331.144 432.904H331.144Z" fill="white"/>
<path id="Vector_54" d="M331.144 448.968H284.409C284.022 448.968 283.651 448.815 283.377 448.541C283.103 448.267 282.949 447.895 282.949 447.508C282.949 447.121 283.103 446.749 283.377 446.475C283.651 446.201 284.022 446.048 284.409 446.048H331.144C331.336 446.047 331.526 446.084 331.704 446.158C331.881 446.231 332.043 446.338 332.179 446.474C332.315 446.61 332.423 446.771 332.496 446.948C332.57 447.126 332.608 447.316 332.608 447.508C332.608 447.7 332.57 447.89 332.496 448.068C332.423 448.245 332.315 448.406 332.179 448.542C332.043 448.678 331.881 448.785 331.704 448.858C331.526 448.932 331.336 448.969 331.144 448.968H331.144Z" fill="white"/>
<path id="Vector_55" d="M331.144 465.033H284.409C284.217 465.034 284.027 464.996 283.849 464.923C283.672 464.85 283.51 464.743 283.374 464.607C283.238 464.471 283.13 464.31 283.057 464.133C282.983 463.955 282.945 463.765 282.945 463.573C282.945 463.381 282.983 463.191 283.057 463.013C283.13 462.836 283.238 462.675 283.374 462.539C283.51 462.403 283.672 462.296 283.849 462.223C284.027 462.149 284.217 462.112 284.409 462.112H331.144C331.336 462.112 331.526 462.149 331.704 462.223C331.881 462.296 332.043 462.403 332.179 462.539C332.315 462.675 332.423 462.836 332.496 463.013C332.57 463.191 332.608 463.381 332.608 463.573C332.608 463.765 332.57 463.955 332.496 464.133C332.423 464.31 332.315 464.471 332.179 464.607C332.043 464.743 331.881 464.85 331.704 464.923C331.526 464.996 331.336 465.034 331.144 465.033H331.144Z" fill="white"/>
<path id="Vector_56" d="M828.616 471.702H797.178C795.098 471.7 793.104 470.873 791.634 469.403C790.163 467.933 789.336 465.939 789.333 463.86V382.96C789.336 380.881 790.163 378.887 791.634 377.417C793.104 375.947 795.098 375.121 797.178 375.119H800.991C801.23 375.119 801.466 375.177 801.677 375.29C801.888 375.402 802.068 375.564 802.202 375.762C802.336 375.96 802.419 376.188 802.444 376.426C802.469 376.664 802.436 376.904 802.346 377.126C802.249 377.364 802.211 377.623 802.237 377.88C802.263 378.137 802.352 378.383 802.495 378.597C802.639 378.812 802.833 378.988 803.06 379.109C803.288 379.231 803.542 379.295 803.799 379.296H821.723C821.981 379.296 822.234 379.232 822.461 379.111C822.689 378.989 822.883 378.814 823.027 378.6C823.171 378.386 823.26 378.14 823.286 377.884C823.313 377.628 823.276 377.369 823.179 377.13C823.089 376.908 823.054 376.668 823.078 376.429C823.103 376.191 823.186 375.963 823.319 375.764C823.453 375.565 823.633 375.403 823.844 375.29C824.056 375.178 824.292 375.119 824.531 375.119H828.616C830.695 375.121 832.688 375.948 834.159 377.418C835.629 378.888 836.456 380.881 836.458 382.96V463.86C836.456 465.939 835.629 467.932 834.159 469.403C832.688 470.873 830.695 471.7 828.616 471.702ZM797.178 378.04C795.873 378.041 794.622 378.56 793.699 379.482C792.776 380.405 792.256 381.655 792.254 382.96V463.86C792.256 465.165 792.775 466.416 793.698 467.338C794.621 468.261 795.872 468.78 797.178 468.781H828.616C829.921 468.78 831.172 468.261 832.094 467.338C833.017 466.416 833.536 465.164 833.538 463.86V382.96C833.536 381.656 833.017 380.405 832.094 379.482C831.171 378.56 829.92 378.041 828.616 378.04H826.204C826.123 379.173 825.615 380.234 824.784 381.009C823.953 381.784 822.859 382.216 821.723 382.217H803.799C802.663 382.215 801.57 381.784 800.739 381.009C799.908 380.234 799.401 379.173 799.32 378.04H797.178Z" fill="white"/>
<path id="Vector_57" d="M766.357 425.236H725.464C725.077 425.236 724.706 425.082 724.432 424.808C724.158 424.535 724.004 424.163 724.004 423.776C724.004 423.388 724.158 423.017 724.432 422.743C724.706 422.469 725.077 422.315 725.464 422.315H762.831L754.371 413.855C754.097 413.581 753.943 413.21 753.943 412.822C753.943 412.435 754.097 412.064 754.371 411.79C754.645 411.516 755.016 411.362 755.404 411.362C755.791 411.362 756.162 411.516 756.436 411.79L767.39 422.743C767.594 422.947 767.733 423.208 767.789 423.491C767.846 423.774 767.817 424.068 767.706 424.335C767.596 424.601 767.408 424.83 767.168 424.99C766.928 425.151 766.646 425.236 766.357 425.236V425.236Z" fill="white"/>
<path id="Vector_58" d="M756.134 435.459C755.845 435.459 755.563 435.374 755.323 435.213C755.083 435.053 754.895 434.825 754.785 434.558C754.674 434.291 754.645 433.997 754.702 433.714C754.758 433.431 754.897 433.171 755.101 432.966L765.324 422.743C765.598 422.469 765.97 422.315 766.357 422.315C766.744 422.315 767.116 422.469 767.39 422.743C767.663 423.017 767.817 423.388 767.817 423.776C767.817 424.163 767.663 424.534 767.39 424.808L757.166 435.031C757.031 435.167 756.87 435.275 756.693 435.348C756.516 435.422 756.326 435.46 756.134 435.459Z" fill="white"/>
<path id="Vector_59" d="M838.353 548.158H790.602C787.344 529.32 787.344 510.063 790.602 491.225H838.353C832.974 509.821 832.974 529.562 838.353 548.158V548.158Z" fill="#FF6584"/>
<path id="Vector_60" d="M573.228 538.37H620.979C624.238 519.532 624.238 500.274 620.979 481.436H573.228C578.608 500.033 578.608 519.773 573.228 538.37V538.37Z" fill="#367BF5"/>
<path id="Vector_61" d="M645.897 554.381H693.648C696.907 535.543 696.907 516.286 693.648 497.448H645.897C651.277 516.044 651.277 535.785 645.897 554.381V554.381Z" fill="#367BF5"/>
<path id="Vector_62" d="M613.445 498.024H584.388C583.886 498.024 583.48 497.37 583.48 496.563C583.48 495.756 583.886 495.103 584.388 495.103H613.445C613.946 495.103 614.353 495.756 614.353 496.563C614.353 497.37 613.946 498.024 613.445 498.024Z" fill="white"/>
<path id="Vector_63" d="M613.445 511.572H584.388C583.886 511.572 583.48 510.919 583.48 510.112C583.48 509.304 583.886 508.651 584.388 508.651H613.445C613.946 508.651 614.353 509.304 614.353 510.112C614.353 510.919 613.946 511.572 613.445 511.572Z" fill="white"/>
<path id="Vector_64" d="M686.114 520.194H657.057C656.555 520.194 656.149 519.541 656.149 518.733C656.149 517.926 656.556 517.273 657.057 517.273H686.114C686.616 517.273 687.022 517.926 687.022 518.733C687.022 519.541 686.616 520.194 686.114 520.194Z" fill="white"/>
<path id="Vector_65" d="M686.114 533.742H657.057C656.555 533.742 656.149 533.089 656.149 532.282C656.149 531.475 656.556 530.822 657.057 530.822H686.114C686.616 530.822 687.022 531.475 687.022 532.282C687.022 533.089 686.616 533.742 686.114 533.742Z" fill="white"/>
<path id="Vector_66" d="M827.758 506.645H798.701C798.199 506.645 797.793 505.992 797.793 505.185C797.793 504.378 798.199 503.724 798.701 503.724H827.758C828.259 503.724 828.666 504.378 828.666 505.185C828.666 505.992 828.259 506.645 827.758 506.645Z" fill="white"/>
<path id="Vector_67" d="M827.758 520.194H798.701C798.199 520.194 797.793 519.541 797.793 518.733C797.793 517.926 798.199 517.273 798.701 517.273H827.758C828.259 517.273 828.666 517.926 828.666 518.733C828.666 519.541 828.259 520.194 827.758 520.194Z" fill="white"/>
<path id="Vector_68" d="M613.445 525.121H584.388C583.886 525.121 583.48 524.467 583.48 523.66C583.48 522.853 583.886 522.2 584.388 522.2H613.445C613.946 522.2 614.353 522.853 614.353 523.66C614.353 524.467 613.946 525.121 613.445 525.121Z" fill="white"/>
<path id="Vector_69" d="M333.05 539.601H380.801C384.06 520.763 384.06 501.506 380.801 482.668H333.05C338.43 501.264 338.43 521.005 333.05 539.601V539.601Z" fill="#367BF5"/>
<path id="Vector_70" d="M373.267 499.255H344.21C343.708 499.255 343.302 498.602 343.302 497.795C343.302 496.988 343.708 496.334 344.21 496.334H373.267C373.768 496.334 374.175 496.988 374.175 497.795C374.175 498.602 373.768 499.255 373.267 499.255Z" fill="white"/>
<path id="Vector_71" d="M373.267 512.804H344.21C343.708 512.804 343.302 512.151 343.302 511.343C343.302 510.536 343.708 509.883 344.21 509.883H373.267C373.768 509.883 374.175 510.536 374.175 511.343C374.175 512.151 373.768 512.804 373.267 512.804Z" fill="white"/>
<path id="Vector_72" d="M373.267 526.352H344.21C343.708 526.352 343.302 525.699 343.302 524.892C343.302 524.085 343.708 523.431 344.21 523.431H373.267C373.768 523.431 374.175 524.085 374.175 524.892C374.175 525.699 373.768 526.352 373.267 526.352Z" fill="white"/>
<path id="Vector_73" d="M196.05 629.601H243.801C247.06 610.763 247.06 591.506 243.801 572.668H196.05C201.43 591.264 201.43 611.005 196.05 629.601V629.601Z" fill="#367BF5"/>
<path id="Vector_74" d="M236.267 589.255H207.21C206.708 589.255 206.302 588.602 206.302 587.795C206.302 586.988 206.708 586.334 207.21 586.334H236.267C236.768 586.334 237.175 586.988 237.175 587.795C237.175 588.602 236.768 589.255 236.267 589.255Z" fill="white"/>
<path id="Vector_75" d="M236.267 602.804H207.21C206.708 602.804 206.302 602.151 206.302 601.343C206.302 600.536 206.708 599.883 207.21 599.883H236.267C236.768 599.883 237.175 600.536 237.175 601.343C237.175 602.151 236.768 602.804 236.267 602.804Z" fill="white"/>
<path id="Vector_76" d="M236.267 616.352H207.21C206.708 616.352 206.302 615.699 206.302 614.892C206.302 614.085 206.708 613.431 207.21 613.431H236.267C236.768 613.431 237.175 614.085 237.175 614.892C237.175 615.699 236.768 616.352 236.267 616.352Z" fill="white"/>
<path id="Vector_77" d="M856.642 523.686C856.642 523.686 827.304 546.737 841.973 551.976C856.642 557.215 866.072 533.116 866.072 533.116L856.642 523.686Z" fill="#A0616A"/>
<path id="Vector_78" d="M857.69 515.303L851.403 525.781C851.403 525.781 861.881 525.781 863.977 541.498L872.359 531.02L857.69 515.303Z" fill="#D0CDE1"/>
<path id="Vector_79" d="M997.047 754.201L998.094 785.634L985.521 792.969L980.282 789.826L981.33 754.201H997.047Z" fill="#A0616A"/>
<path id="Vector_80" d="M922.653 745.818L924.749 779.348L895.411 791.921L897.506 774.109C897.506 774.109 905.888 760.487 903.793 745.818H922.653Z" fill="#A0616A"/>
<path id="Vector_81" d="M967.708 493.3C967.708 493.3 984.473 537.307 987.616 564.55C990.76 591.792 995.999 664.09 995.999 664.09L1006.48 757.344L977.138 761.535L964.565 667.234L936.274 573.98L929.988 667.234L924.749 752.105L897.506 753.153L895.411 665.138L883.885 553.024L890.172 499.587L967.708 493.3Z" fill="#2F2E41"/>
<path id="Vector_82" d="M983.425 787.73C983.425 787.73 985.144 770.132 997.906 779.979L1000.19 778.3L1010.67 801.351C1010.67 801.351 1023.24 819.164 1001.24 821.259C979.234 823.355 981.33 801.351 981.33 801.351L979.234 791.921L980.282 785.746L983.425 787.73Z" fill="#2F2E41"/>
<path id="Vector_83" d="M922.653 766.774C925.232 768.249 927.37 770.387 928.844 772.966C930.318 775.546 931.074 778.473 931.035 781.443C931.035 791.921 929.988 792.969 929.988 792.969L914.271 797.16C914.271 797.16 903.793 796.112 897.506 802.399C891.219 808.686 859.785 812.877 859.785 804.495C859.785 796.112 885.98 782.491 885.98 782.491C885.98 782.491 893.759 769.354 899.3 770.683C904.841 772.013 906.936 774.109 906.936 775.156C906.936 776.204 903.793 783.539 903.793 783.539C903.793 783.539 921.605 779.348 922.653 766.774Z" fill="#2F2E41"/>
<path id="Vector_84" d="M920.558 364.421C935.025 364.421 946.753 352.693 946.753 338.226C946.753 323.759 935.025 312.031 920.558 312.031C906.091 312.031 894.363 323.759 894.363 338.226C894.363 352.693 906.091 364.421 920.558 364.421Z" fill="#A0616A"/>
<path id="Vector_85" d="M939.942 345.037L951.467 371.232L920.034 416.287C920.034 416.287 917.938 367.041 911.651 358.658C905.364 350.276 939.942 345.037 939.942 345.037Z" fill="#A0616A"/>
<path id="Vector_86" d="M925.273 399.522L930.512 385.901L934.703 386.949L939.942 382.757L947.276 359.706L957.754 367.041L971.376 504.302L886.504 506.397L898.03 411.048L908.508 383.805L916.071 373.807L921.081 389.044L925.273 399.522Z" fill="#D0CDE1"/>
<path id="Vector_87" d="M949.372 458.199L952.578 363.417C952.578 363.417 958.802 363.897 960.898 367.041C962.993 370.184 997.57 376.471 997.57 376.471L991.284 473.916C991.284 473.916 1017.48 551.452 1008.05 555.644C998.618 559.835 981.853 558.787 981.853 558.787L949.372 458.199Z" fill="#3F3D56"/>
<path id="Vector_88" d="M898.554 446.149L909.669 382.27L884.933 398.998L891.219 445.101L885.98 476.535C885.98 476.535 866.072 563.502 872.359 566.645C878.646 569.789 885.98 566.645 885.98 566.645L898.554 478.631V446.149Z" fill="#3F3D56"/>
<path id="Vector_89" d="M892.267 396.903L884.932 398.998L881.789 440.91L876.55 477.583L851.403 522.638C851.403 522.638 863.977 514.256 869.216 538.355L896.91 490.138L892.267 396.903Z" fill="#3F3D56"/>
<path id="Vector_90" d="M973.995 515.303C973.995 515.303 944.657 538.355 959.326 543.594C973.995 548.833 983.425 524.734 983.425 524.734L973.995 515.303Z" fill="#A0616A"/>
<path id="Vector_91" d="M991.808 526.829L982.377 538.355L969.804 516.351L975.043 506.921L991.808 526.829Z" fill="#D0CDE1"/>
<path id="Vector_92" d="M989.712 380.138L998.094 375.947C998.094 375.947 1004.38 384.329 1005.43 391.664C1006.48 398.998 1011.72 408.428 1011.72 413.667C1011.72 418.906 1026.38 468.153 1026.38 468.153L992.855 536.259C992.855 536.259 985.521 511.112 969.804 509.017L995.999 472.344L981.33 446.149L989.712 380.138Z" fill="#3F3D56"/>
<path id="Vector_93" d="M942.487 313.268L947.426 311.291C947.426 311.291 937.098 299.92 922.728 300.908L926.77 296.459C926.77 296.459 916.89 292.504 907.909 302.886C903.188 308.344 897.725 314.759 894.32 321.985H889.03L891.238 326.847L883.51 331.708L891.442 330.835C890.969 333.497 890.897 336.215 891.227 338.899C891.567 341.583 892.937 344.03 895.047 345.724V345.724C895.047 345.724 901.173 333.044 901.173 331.066V336.01C901.173 336.01 906.113 331.56 906.113 328.594L908.807 332.055L910.155 326.617L926.77 332.055L924.075 327.605L934.404 329.089L930.362 323.65C930.362 323.65 942.037 330.077 942.487 335.516C942.936 340.954 946.353 346.107 946.353 346.107C946.353 346.107 955.509 320.684 942.487 313.268Z" fill="#2F2E41"/>
<path id="Vector_94" d="M942.037 337.702C943.658 337.702 944.971 336.06 944.971 334.035C944.971 332.01 943.658 330.368 942.037 330.368C940.417 330.368 939.104 332.01 939.104 334.035C939.104 336.06 940.417 337.702 942.037 337.702Z" fill="#A0616A"/>
</g>
</svg>
